<?xml version="1.0" standalone="no"?>
<!DOCTYPE svg PUBLIC "-//W3C//DTD SVG 1.1//EN" "http://www.w3.org/Graphics/SVG/1.1/DTD/svg11.dtd">
<svg width="23cm" height="56cm" viewBox="0 -56 23 56" xmlns="http://www.w3.org/2000/svg" version="1.1">
<title>OpenSCAD Model</title>
<path d="
M 14.8129,-51.5246 L 15.118,-51.5979 L 15.408,-51.718 L 15.6756,-51.882 L 15.9142,-52.0858 L 16.118,-52.3244
 L 16.282,-52.592 L 16.4021,-52.882 L 16.4754,-53.1871 L 16.5,-53.5 L 16.4754,-53.8129 L 16.4021,-54.118
 L 16.282,-54.408 L 16.118,-54.6756 L 15.9142,-54.9142 L 15.6756,-55.118 L 15.408,-55.282 L 15.118,-55.4021
 L 14.8129,-55.4754 L 14.5,-55.5 L 14.1871,-55.4754 L 13.882,-55.4021 L 13.592,-55.282 L 13.3244,-55.118
 L 13.0858,-54.9142 L 12.9455,-54.75 L 13.5,-54.75 L 13.5,-54.45 L 12.5,-54.45 L 12.5,-54.75
 L 5.5,-54.75 L 5.5,-54.45 L 4.5,-54.45 L 4.5,-52.55 L 5.5,-52.55 L 5.5,-52.25
 L 12.5,-52.25 L 12.5,-52.55 L 13.5,-52.55 L 13.5,-52.25 L 12.9455,-52.25 L 13.0858,-52.0858
 L 13.3244,-51.882 L 13.592,-51.718 L 13.882,-51.5979 L 14.1871,-51.5246 L 14.5,-51.5 z
M 14.4765,-54.9518 L 14.4536,-54.9573 L 14.4319,-54.9663 L 14.4118,-54.9786 L 14.3939,-54.9939 L 14.3786,-55.0118
 L 14.3663,-55.0319 L 14.3573,-55.0536 L 14.3518,-55.0765 L 14.35,-55.1 L 14.3518,-55.1235 L 14.3573,-55.1463
 L 14.3663,-55.1681 L 14.3786,-55.1882 L 14.3939,-55.2061 L 14.4118,-55.2213 L 14.4319,-55.2336 L 14.4536,-55.2426
 L 14.4765,-55.2482 L 14.5,-55.25 L 14.5235,-55.2482 L 14.5463,-55.2426 L 14.5681,-55.2336 L 14.5882,-55.2213
 L 14.6061,-55.2061 L 14.6213,-55.1882 L 14.6336,-55.1681 L 14.6427,-55.1463 L 14.6481,-55.1235 L 14.65,-55.1
 L 14.6481,-55.0765 L 14.6427,-55.0536 L 14.6336,-55.0319 L 14.6213,-55.0118 L 14.6061,-54.9939 L 14.5882,-54.9786
 L 14.5681,-54.9663 L 14.5463,-54.9573 L 14.5235,-54.9518 L 14.5,-54.95 z
M 10.25,-52.75 L 10.2109,-52.7531 L 10.1727,-52.7622 L 10.1365,-52.7772 L 10.103,-52.7977 L 10.0732,-52.8232
 L 10.0477,-52.853 L 10.0272,-52.8865 L 10.0122,-52.9227 L 10.0031,-52.9609 L 10,-53 L 10,-54
 L 10.0031,-54.0391 L 10.0122,-54.0773 L 10.0272,-54.1135 L 10.0477,-54.1469 L 10.0732,-54.1768 L 10.103,-54.2023
 L 10.1365,-54.2227 L 10.1727,-54.2378 L 10.2109,-54.2469 L 10.25,-54.25 L 11.75,-54.25 L 11.7891,-54.2469
 L 11.8272,-54.2378 L 11.8635,-54.2227 L 11.8969,-54.2023 L 11.9268,-54.1768 L 11.9522,-54.1469 L 11.9727,-54.1135
 L 11.9878,-54.0773 L 11.9969,-54.0391 L 12,-54 L 12,-53 L 11.9969,-52.9609 L 11.9878,-52.9227
 L 11.9727,-52.8865 L 11.9522,-52.853 L 11.9268,-52.8232 L 11.8969,-52.7977 L 11.8635,-52.7772 L 11.8272,-52.7622
 L 11.7891,-52.7531 L 11.75,-52.75 z
M 6.75,-52.75 L 6.71089,-52.7531 L 6.67274,-52.7622 L 6.63649,-52.7772 L 6.60304,-52.7977 L 6.57321,-52.8232
 L 6.54774,-52.853 L 6.52724,-52.8865 L 6.51222,-52.9227 L 6.50307,-52.9609 L 6.5,-53 L 6.5,-54
 L 6.50307,-54.0391 L 6.51222,-54.0773 L 6.52724,-54.1135 L 6.54774,-54.1469 L 6.57321,-54.1768 L 6.60304,-54.2023
 L 6.63649,-54.2227 L 6.67274,-54.2378 L 6.71089,-54.2469 L 6.75,-54.25 L 8.25,-54.25 L 8.28911,-54.2469
 L 8.32724,-54.2378 L 8.36349,-54.2227 L 8.39694,-54.2023 L 8.42677,-54.1768 L 8.45224,-54.1469 L 8.47275,-54.1135
 L 8.48776,-54.0773 L 8.49692,-54.0391 L 8.5,-54 L 8.5,-53 L 8.49692,-52.9609 L 8.48776,-52.9227
 L 8.47275,-52.8865 L 8.45224,-52.853 L 8.42677,-52.8232 L 8.39694,-52.7977 L 8.36349,-52.7772 L 8.32724,-52.7622
 L 8.28911,-52.7531 L 8.25,-52.75 z
M 4.97653,-53.9018 L 4.95364,-53.9073 L 4.9319,-53.9163 L 4.91182,-53.9286 L 4.89392,-53.9439 L 4.87865,-53.9618
 L 4.86635,-53.9819 L 4.85733,-54.0036 L 4.85184,-54.0265 L 4.84999,-54.05 L 4.85184,-54.0735 L 4.85733,-54.0963
 L 4.86635,-54.1181 L 4.87865,-54.1382 L 4.89392,-54.1561 L 4.91182,-54.1713 L 4.9319,-54.1836 L 4.95364,-54.1927
 L 4.97653,-54.1982 L 5,-54.2 L 5.02345,-54.1982 L 5.04634,-54.1927 L 5.06808,-54.1836 L 5.08817,-54.1713
 L 5.10606,-54.1561 L 5.12134,-54.1382 L 5.13364,-54.1181 L 5.14265,-54.0963 L 5.14815,-54.0735 L 5.14999,-54.05
 L 5.14815,-54.0265 L 5.14265,-54.0036 L 5.13364,-53.9819 L 5.12134,-53.9618 L 5.10606,-53.9439 L 5.08817,-53.9286
 L 5.06808,-53.9163 L 5.04634,-53.9073 L 5.02345,-53.9018 L 5,-53.9 z
M 14.4218,-53.0061 L 14.3455,-53.0245 L 14.273,-53.0545 L 14.2061,-53.0955 L 14.1464,-53.1464 L 14.0955,-53.2061
 L 14.0545,-53.273 L 14.0245,-53.3455 L 14.0061,-53.4218 L 14,-53.5 L 14.0061,-53.5782 L 14.0245,-53.6545
 L 14.0545,-53.727 L 14.0955,-53.7939 L 14.1464,-53.8535 L 14.2061,-53.9045 L 14.273,-53.9455 L 14.3455,-53.9755
 L 14.4218,-53.9938 L 14.5,-54 L 14.5782,-53.9938 L 14.6545,-53.9755 L 14.727,-53.9455 L 14.7939,-53.9045
 L 14.8535,-53.8535 L 14.9045,-53.7939 L 14.9455,-53.727 L 14.9755,-53.6545 L 14.9938,-53.5782 L 15,-53.5
 L 14.9938,-53.4218 L 14.9755,-53.3455 L 14.9455,-53.273 L 14.9045,-53.2061 L 14.8535,-53.1464 L 14.7939,-53.0955
 L 14.727,-53.0545 L 14.6545,-53.0245 L 14.5782,-53.0061 L 14.5,-53 z
M 12.8765,-53.3518 L 12.8536,-53.3573 L 12.8319,-53.3663 L 12.8118,-53.3786 L 12.7939,-53.3939 L 12.7786,-53.4118
 L 12.7663,-53.4319 L 12.7573,-53.4536 L 12.7518,-53.4765 L 12.75,-53.5 L 12.7518,-53.5235 L 12.7573,-53.5463
 L 12.7663,-53.5681 L 12.7786,-53.5882 L 12.7939,-53.6061 L 12.8118,-53.6214 L 12.8319,-53.6337 L 12.8536,-53.6427
 L 12.8765,-53.6481 L 12.9,-53.65 L 12.9235,-53.6481 L 12.9464,-53.6427 L 12.9681,-53.6337 L 12.9882,-53.6214
 L 13.0061,-53.6061 L 13.0213,-53.5882 L 13.0336,-53.5681 L 13.0426,-53.5463 L 13.0481,-53.5235 L 13.05,-53.5
 L 13.0481,-53.4765 L 13.0426,-53.4536 L 13.0336,-53.4319 L 13.0213,-53.4118 L 13.0061,-53.3939 L 12.9882,-53.3786
 L 12.9681,-53.3663 L 12.9464,-53.3573 L 12.9235,-53.3518 L 12.9,-53.35 z
M 16.0765,-53.3518 L 16.0536,-53.3573 L 16.0319,-53.3663 L 16.0118,-53.3786 L 15.9939,-53.3939 L 15.9786,-53.4118
 L 15.9663,-53.4319 L 15.9573,-53.4536 L 15.9518,-53.4765 L 15.95,-53.5 L 15.9518,-53.5235 L 15.9573,-53.5463
 L 15.9663,-53.5681 L 15.9786,-53.5882 L 15.9939,-53.6061 L 16.0118,-53.6214 L 16.0319,-53.6337 L 16.0536,-53.6427
 L 16.0765,-53.6481 L 16.1,-53.65 L 16.1235,-53.6481 L 16.1463,-53.6427 L 16.1681,-53.6337 L 16.1882,-53.6214
 L 16.2061,-53.6061 L 16.2213,-53.5882 L 16.2336,-53.5681 L 16.2426,-53.5463 L 16.2482,-53.5235 L 16.25,-53.5
 L 16.2482,-53.4765 L 16.2426,-53.4536 L 16.2336,-53.4319 L 16.2213,-53.4118 L 16.2061,-53.3939 L 16.1882,-53.3786
 L 16.1681,-53.3663 L 16.1463,-53.3573 L 16.1235,-53.3518 L 16.1,-53.35 z
M 4.97653,-52.8018 L 4.95364,-52.8073 L 4.9319,-52.8163 L 4.91182,-52.8286 L 4.89392,-52.8439 L 4.87865,-52.8618
 L 4.86635,-52.8819 L 4.85733,-52.9036 L 4.85184,-52.9265 L 4.84999,-52.95 L 4.85184,-52.9735 L 4.85733,-52.9964
 L 4.86635,-53.0181 L 4.87865,-53.0382 L 4.89392,-53.0561 L 4.91182,-53.0714 L 4.9319,-53.0836 L 4.95364,-53.0927
 L 4.97653,-53.0981 L 5,-53.1 L 5.02345,-53.0981 L 5.04634,-53.0927 L 5.06808,-53.0836 L 5.08817,-53.0714
 L 5.10606,-53.0561 L 5.12134,-53.0382 L 5.13364,-53.0181 L 5.14265,-52.9964 L 5.14815,-52.9735 L 5.14999,-52.95
 L 5.14815,-52.9265 L 5.14265,-52.9036 L 5.13364,-52.8819 L 5.12134,-52.8618 L 5.10606,-52.8439 L 5.08817,-52.8286
 L 5.06808,-52.8163 L 5.04634,-52.8073 L 5.02345,-52.8018 L 5,-52.8 z
M 14.4765,-51.7518 L 14.4536,-51.7573 L 14.4319,-51.7663 L 14.4118,-51.7786 L 14.3939,-51.7939 L 14.3786,-51.8118
 L 14.3663,-51.8319 L 14.3573,-51.8536 L 14.3518,-51.8765 L 14.35,-51.9 L 14.3518,-51.9235 L 14.3573,-51.9464
 L 14.3663,-51.9681 L 14.3786,-51.9882 L 14.3939,-52.0061 L 14.4118,-52.0213 L 14.4319,-52.0336 L 14.4536,-52.0426
 L 14.4765,-52.0481 L 14.5,-52.05 L 14.5235,-52.0481 L 14.5463,-52.0426 L 14.5681,-52.0336 L 14.5882,-52.0213
 L 14.6061,-52.0061 L 14.6213,-51.9882 L 14.6336,-51.9681 L 14.6427,-51.9464 L 14.6481,-51.9235 L 14.65,-51.9
 L 14.6481,-51.8765 L 14.6427,-51.8536 L 14.6336,-51.8319 L 14.6213,-51.8118 L 14.6061,-51.7939 L 14.5882,-51.7786
 L 14.5681,-51.7663 L 14.5463,-51.7573 L 14.5235,-51.7518 L 14.5,-51.75 z
M 10,-46.275 L 15.5,-48.2 L 15.5,-48.5 L 13.5,-48.5 L 13.5,-48.8 L 12.5,-48.8
 L 12.5,-48.5 L 5.5,-48.5 L 5.5,-49.1 L 4.5,-49.1 L 4.5,-44.7 L 5.5,-44.7
 L 5.5,-45 L 6.5,-45 L 8,-41 L 10,-41 z
M 9.77023,-48 L 10.2298,-48 L 10,-47.7702 z
M 7.93689,-48 L 8.39642,-48 L 8.16666,-47.7702 z
M 6.10356,-48 L 6.5631,-48 L 6.33333,-47.7702 z
M 8.52022,-47.4167 L 9.08333,-47.9798 L 9.64644,-47.4167 L 9.08333,-46.8536 z
M 6.68687,-47.4167 L 7.25,-47.9798 L 7.81311,-47.4167 L 7.25,-46.8536 z
M 5,-47.2702 L 5,-47.5631 L 5.41666,-47.9798 L 5.97977,-47.4167 L 5.41666,-46.8536 z
M 10.3535,-47.4167 L 10.9167,-47.9798 L 11.4487,-47.4477 L 10.6115,-47.1587 z
M 11.7817,-47.8219 L 11.8607,-47.7977 L 11.8333,-47.7702 z
M 10,-47.0631 L 10.0859,-46.9772 L 9.82358,-46.8867 z
M 7.60355,-46.5 L 8.16666,-47.0631 L 8.72977,-46.5 L 8.16666,-45.9369 z
M 5.77022,-46.5 L 6.33333,-47.0631 L 6.89644,-46.5 L 6.33333,-45.9369 z
M 9.43687,-46.5 L 9.5,-46.5631 L 9.5,-46.4369 z
M 5,-46.5631 L 5.06311,-46.5 L 5,-46.4369 z
M 5,-45.5 L 5,-45.7298 L 5.41666,-46.1465 L 5.97977,-45.5833 L 5.89642,-45.5 z
M 8.52022,-45.5833 L 9.08333,-46.1465 L 9.5,-45.7298 L 9.5,-45.4369 L 9.08333,-45.0202 z
M 6.77022,-45.5 L 6.68687,-45.5833 L 7.25,-46.1465 L 7.81311,-45.5833 L 7.25,-45.0202 L 6.97786,-45.2924
 L 6.89999,-45.5 z
M 7.60355,-44.6667 L 8.16666,-45.2298 L 8.72977,-44.6667 L 8.16666,-44.1036 z
M 9.43687,-44.6667 L 9.5,-44.7298 L 9.5,-44.6035 z
M 8.52022,-43.75 L 9.08333,-44.3131 L 9.5,-43.8964 L 9.5,-43.6036 L 9.08333,-43.1869 z
M 8.07785,-42.359 L 7.81914,-43.0489 L 8.16666,-43.3965 L 8.72977,-42.8333 L 8.16666,-42.2702 z
M 9.43687,-42.8333 L 9.5,-42.8965 L 9.5,-42.7702 z
M 8.93689,-41.5 L 8.52022,-41.9167 L 9.08333,-42.4798 L 9.5,-42.0631 L 9.5,-41.7702 L 9.22977,-41.5
 z
M 7.81311,-43.75 L 7.6263,-43.5632 L 7.40211,-44.161 z
M 2.79999,-46.8 L 1.5,-46.8 L 1.5,-44.9 L 2.79999,-44.9 z
M 22.575,-45.8 L 17,-45.8 L 17,-43.9 L 22.575,-43.9 z
M 20.2875,-44.4 L 20.2484,-44.4031 L 20.2102,-44.4122 L 20.174,-44.4272 L 20.1405,-44.4477 L 20.1107,-44.4732
 L 20.0852,-44.5031 L 20.0647,-44.5365 L 20.0497,-44.5727 L 20.0406,-44.6109 L 20.0375,-44.65 L 20.0375,-45.05
 L 20.0406,-45.0891 L 20.0497,-45.1272 L 20.0647,-45.1635 L 20.0852,-45.1969 L 20.1107,-45.2268 L 20.1405,-45.2522
 L 20.174,-45.2728 L 20.2102,-45.2878 L 20.2484,-45.2969 L 20.2875,-45.3 L 21.325,-45.3 L 21.3641,-45.2969
 L 21.4023,-45.2878 L 21.4385,-45.2728 L 21.4719,-45.2522 L 21.5018,-45.2268 L 21.5273,-45.1969 L 21.5477,-45.1635
 L 21.5628,-45.1272 L 21.5719,-45.0891 L 21.575,-45.05 L 21.575,-44.65 L 21.5719,-44.6109 L 21.5628,-44.5727
 L 21.5477,-44.5365 L 21.5273,-44.5031 L 21.5018,-44.4732 L 21.4719,-44.4477 L 21.4385,-44.4272 L 21.4023,-44.4122
 L 21.3641,-44.4031 L 21.325,-44.4 z
M 17.75,-44.4 L 17.7109,-44.4031 L 17.6727,-44.4122 L 17.6365,-44.4272 L 17.603,-44.4477 L 17.5732,-44.4732
 L 17.5477,-44.5031 L 17.5272,-44.5365 L 17.5122,-44.5727 L 17.5031,-44.6109 L 17.5,-44.65 L 17.5,-45.05
 L 17.5031,-45.0891 L 17.5122,-45.1272 L 17.5272,-45.1635 L 17.5477,-45.1969 L 17.5732,-45.2268 L 17.603,-45.2522
 L 17.6365,-45.2728 L 17.6727,-45.2878 L 17.7109,-45.2969 L 17.75,-45.3 L 18.7875,-45.3 L 18.8266,-45.2969
 L 18.8647,-45.2878 L 18.901,-45.2728 L 18.9344,-45.2522 L 18.9643,-45.2268 L 18.9897,-45.1969 L 19.0102,-45.1635
 L 19.0253,-45.1272 L 19.0344,-45.0891 L 19.0375,-45.05 L 19.0375,-44.65 L 19.0344,-44.6109 L 19.0253,-44.5727
 L 19.0102,-44.5365 L 18.9897,-44.5031 L 18.9643,-44.4732 L 18.9344,-44.4477 L 18.901,-44.4272 L 18.8647,-44.4122
 L 18.8266,-44.4031 L 18.7875,-44.4 z
M 4.37199,-41.8 L 0,-41.8 L 0,-39.9 L 4.37199,-39.9 z
M 0.75,-40.4 L 0.710892,-40.4031 L 0.672745,-40.4122 L 0.63649,-40.4272 L 0.603043,-40.4477 L 0.573212,-40.4732
 L 0.547745,-40.5031 L 0.527237,-40.5365 L 0.512222,-40.5727 L 0.503067,-40.6109 L 0.5,-40.65 L 0.5,-41.05
 L 0.503067,-41.0891 L 0.512222,-41.1272 L 0.527237,-41.1635 L 0.547745,-41.1969 L 0.573212,-41.2268 L 0.603043,-41.2522
 L 0.63649,-41.2728 L 0.672745,-41.2878 L 0.710892,-41.2969 L 0.75,-41.3 L 1.43599,-41.3 L 1.4751,-41.2969
 L 1.51324,-41.2878 L 1.54948,-41.2728 L 1.58295,-41.2522 L 1.61276,-41.2268 L 1.63824,-41.1969 L 1.65875,-41.1635
 L 1.67375,-41.1272 L 1.68292,-41.0891 L 1.68599,-41.05 L 1.68599,-40.65 L 1.68292,-40.6109 L 1.67375,-40.5727
 L 1.65875,-40.5365 L 1.63824,-40.5031 L 1.61276,-40.4732 L 1.58295,-40.4477 L 1.54948,-40.4272 L 1.51324,-40.4122
 L 1.4751,-40.4031 L 1.43599,-40.4 z
M 2.93599,-40.4 L 2.89688,-40.4031 L 2.85873,-40.4122 L 2.82249,-40.4272 L 2.78905,-40.4477 L 2.75922,-40.4732
 L 2.73373,-40.5031 L 2.71324,-40.5365 L 2.69823,-40.5727 L 2.68907,-40.6109 L 2.68599,-40.65 L 2.68599,-41.05
 L 2.68907,-41.0891 L 2.69823,-41.1272 L 2.71324,-41.1635 L 2.73373,-41.1969 L 2.75922,-41.2268 L 2.78905,-41.2522
 L 2.82249,-41.2728 L 2.85873,-41.2878 L 2.89688,-41.2969 L 2.93599,-41.3 L 3.62199,-41.3 L 3.6611,-41.2969
 L 3.69925,-41.2878 L 3.73549,-41.2728 L 3.76894,-41.2522 L 3.79877,-41.2268 L 3.82425,-41.1969 L 3.84474,-41.1635
 L 3.85976,-41.1272 L 3.86891,-41.0891 L 3.87199,-41.05 L 3.87199,-40.65 L 3.86891,-40.6109 L 3.85976,-40.5727
 L 3.84474,-40.5365 L 3.82425,-40.5031 L 3.79877,-40.4732 L 3.76894,-40.4477 L 3.73549,-40.4272 L 3.69925,-40.4122
 L 3.6611,-40.4031 L 3.62199,-40.4 z
M 18.2021,-41.8 L 12.275,-41.8 L 12.275,-39.9 L 18.2021,-39.9 z
M 15.9886,-40.4 L 15.9495,-40.4031 L 15.9113,-40.4122 L 15.8751,-40.4272 L 15.8416,-40.4477 L 15.8118,-40.4732
 L 15.7863,-40.5031 L 15.7658,-40.5365 L 15.7508,-40.5727 L 15.7416,-40.6109 L 15.7386,-40.65 L 15.7386,-41.05
 L 15.7416,-41.0891 L 15.7508,-41.1272 L 15.7658,-41.1635 L 15.7863,-41.1969 L 15.8118,-41.2268 L 15.8416,-41.2522
 L 15.8751,-41.2728 L 15.9113,-41.2878 L 15.9495,-41.2969 L 15.9886,-41.3 L 17.4521,-41.3 L 17.4912,-41.2969
 L 17.5294,-41.2878 L 17.5656,-41.2728 L 17.5991,-41.2522 L 17.6289,-41.2268 L 17.6544,-41.1969 L 17.6749,-41.1635
 L 17.6899,-41.1272 L 17.6991,-41.0891 L 17.7021,-41.05 L 17.7021,-40.65 L 17.6991,-40.6109 L 17.6899,-40.5727
 L 17.6749,-40.5365 L 17.6544,-40.5031 L 17.6289,-40.4732 L 17.5991,-40.4477 L 17.5656,-40.4272 L 17.5294,-40.4122
 L 17.4912,-40.4031 L 17.4521,-40.4 z
M 13.025,-40.4 L 12.9859,-40.4031 L 12.9477,-40.4122 L 12.9115,-40.4272 L 12.8781,-40.4477 L 12.8482,-40.4732
 L 12.8227,-40.5031 L 12.8022,-40.5365 L 12.7872,-40.5727 L 12.7781,-40.6109 L 12.775,-40.65 L 12.775,-41.05
 L 12.7781,-41.0891 L 12.7872,-41.1272 L 12.8022,-41.1635 L 12.8227,-41.1969 L 12.8482,-41.2268 L 12.8781,-41.2522
 L 12.9115,-41.2728 L 12.9477,-41.2878 L 12.9859,-41.2969 L 13.025,-41.3 L 14.4886,-41.3 L 14.5277,-41.2969
 L 14.5658,-41.2878 L 14.6021,-41.2728 L 14.6355,-41.2522 L 14.6653,-41.2268 L 14.6908,-41.1969 L 14.7113,-41.1635
 L 14.7263,-41.1272 L 14.7355,-41.0891 L 14.7386,-41.05 L 14.7386,-40.65 L 14.7355,-40.6109 L 14.7263,-40.5727
 L 14.7113,-40.5365 L 14.6908,-40.5031 L 14.6653,-40.4732 L 14.6355,-40.4477 L 14.6021,-40.4272 L 14.5658,-40.4122
 L 14.5277,-40.4031 L 14.4886,-40.4 z
M 19.9905,-33.5246 L 20.2957,-33.5979 L 20.5856,-33.718 L 20.8532,-33.882 L 21.0919,-34.0858 L 21.2957,-34.3244
 L 21.4597,-34.592 L 21.5798,-34.882 L 21.653,-35.1871 L 21.6777,-35.5 L 21.653,-35.8129 L 21.5798,-36.118
 L 21.4597,-36.408 L 21.2957,-36.6756 L 21.0919,-36.9142 L 20.8532,-37.118 L 20.5856,-37.282 L 20.2957,-37.4021
 L 19.9905,-37.4754 L 19.6777,-37.5 L 19.3648,-37.4754 L 19.0596,-37.4021 L 18.7697,-37.282 L 18.5021,-37.118
 L 18.2634,-36.9142 L 18.1232,-36.75 L 18.6777,-36.75 L 18.6777,-36.45 L 17.6777,-36.45 L 17.6777,-36.75
 L 5.5,-36.75 L 5.5,-36.45 L 4.5,-36.45 L 4.5,-34.55 L 5.5,-34.55 L 5.5,-34.25
 L 17.6777,-34.25 L 17.6777,-34.55 L 18.6777,-34.55 L 18.6777,-34.25 L 18.1232,-34.25 L 18.2634,-34.0858
 L 18.5021,-33.882 L 18.7697,-33.718 L 19.0596,-33.5979 L 19.3648,-33.5246 L 19.6777,-33.5 z
M 19.6542,-36.9518 L 19.6313,-36.9573 L 19.6096,-36.9663 L 19.5895,-36.9786 L 19.5716,-36.9939 L 19.5563,-37.0118
 L 19.544,-37.0319 L 19.535,-37.0536 L 19.5295,-37.0765 L 19.5277,-37.1 L 19.5295,-37.1235 L 19.535,-37.1463
 L 19.544,-37.1681 L 19.5563,-37.1882 L 19.5716,-37.2061 L 19.5895,-37.2213 L 19.6096,-37.2336 L 19.6313,-37.2426
 L 19.6542,-37.2482 L 19.6777,-37.25 L 19.7011,-37.2482 L 19.724,-37.2426 L 19.7458,-37.2336 L 19.7658,-37.2213
 L 19.7837,-37.2061 L 19.799,-37.1882 L 19.8113,-37.1681 L 19.8203,-37.1463 L 19.8258,-37.1235 L 19.8277,-37.1
 L 19.8258,-37.0765 L 19.8203,-37.0536 L 19.8113,-37.0319 L 19.799,-37.0118 L 19.7837,-36.9939 L 19.7658,-36.9786
 L 19.7458,-36.9663 L 19.724,-36.9573 L 19.7011,-36.9518 L 19.6777,-36.95 z
M 12.6011,-36.0773 L 12.6161,-36.1135 L 12.6366,-36.1469 L 12.662,-36.1768 L 12.6919,-36.2023 L 12.7253,-36.2227
 L 12.7616,-36.2378 L 12.7997,-36.2469 L 12.8388,-36.25 L 16.9277,-36.25 L 16.9668,-36.2469 L 17.0049,-36.2378
 L 17.0412,-36.2227 L 17.0746,-36.2023 L 17.1044,-36.1768 L 17.1299,-36.1469 L 17.1504,-36.1135 L 17.1654,-36.0773
 L 17.1746,-36.0391 L 17.1777,-36 L 17.1777,-35 L 17.1746,-34.9609 L 17.1654,-34.9227 L 17.1504,-34.8865
 L 17.1299,-34.853 L 17.1044,-34.8232 L 17.0746,-34.7977 L 17.0412,-34.7772 L 17.0049,-34.7622 L 16.9668,-34.7531
 L 16.9277,-34.75 L 12.8388,-34.75 L 12.7997,-34.7531 L 12.7616,-34.7622 L 12.7253,-34.7772 L 12.6919,-34.7977
 L 12.662,-34.8232 L 12.6366,-34.853 L 12.6161,-34.8865 L 12.6011,-34.9227 L 12.5919,-34.9609 L 12.5888,-35
 L 12.5888,-36 L 12.5919,-36.0391 z
M 4.97653,-35.9018 L 4.95364,-35.9073 L 4.9319,-35.9163 L 4.91182,-35.9286 L 4.89392,-35.9439 L 4.87865,-35.9618
 L 4.86635,-35.9819 L 4.85733,-36.0036 L 4.85184,-36.0265 L 4.84999,-36.05 L 4.85184,-36.0735 L 4.85733,-36.0963
 L 4.86635,-36.1181 L 4.87865,-36.1382 L 4.89392,-36.1561 L 4.91182,-36.1713 L 4.9319,-36.1836 L 4.95364,-36.1927
 L 4.97653,-36.1982 L 5,-36.2 L 5.02345,-36.1982 L 5.04634,-36.1927 L 5.06808,-36.1836 L 5.08817,-36.1713
 L 5.10606,-36.1561 L 5.12134,-36.1382 L 5.13364,-36.1181 L 5.14265,-36.0963 L 5.14815,-36.0735 L 5.14999,-36.05
 L 5.14815,-36.0265 L 5.14265,-36.0036 L 5.13364,-35.9819 L 5.12134,-35.9618 L 5.10606,-35.9439 L 5.08817,-35.9286
 L 5.06808,-35.9163 L 5.04634,-35.9073 L 5.02345,-35.9018 L 5,-35.9 z
M 19.5994,-35.0061 L 19.5231,-35.0245 L 19.4507,-35.0545 L 19.3838,-35.0955 L 19.3241,-35.1464 L 19.2731,-35.2061
 L 19.2322,-35.273 L 19.2021,-35.3455 L 19.1838,-35.4218 L 19.1777,-35.5 L 19.1838,-35.5782 L 19.2021,-35.6545
 L 19.2322,-35.727 L 19.2731,-35.7939 L 19.3241,-35.8535 L 19.3838,-35.9045 L 19.4507,-35.9455 L 19.5231,-35.9755
 L 19.5994,-35.9938 L 19.6777,-36 L 19.7559,-35.9938 L 19.8322,-35.9755 L 19.9047,-35.9455 L 19.9716,-35.9045
 L 20.0312,-35.8535 L 20.0822,-35.7939 L 20.1232,-35.727 L 20.1532,-35.6545 L 20.1715,-35.5782 L 20.1777,-35.5
 L 20.1715,-35.4218 L 20.1532,-35.3455 L 20.1232,-35.273 L 20.0822,-35.2061 L 20.0312,-35.1464 L 19.9716,-35.0955
 L 19.9047,-35.0545 L 19.8322,-35.0245 L 19.7559,-35.0061 L 19.6777,-35 z
M 21.2542,-35.3518 L 21.2313,-35.3573 L 21.2096,-35.3663 L 21.1895,-35.3786 L 21.1716,-35.3939 L 21.1563,-35.4118
 L 21.144,-35.4319 L 21.135,-35.4536 L 21.1295,-35.4765 L 21.1277,-35.5 L 21.1295,-35.5235 L 21.135,-35.5463
 L 21.144,-35.5681 L 21.1563,-35.5882 L 21.1716,-35.6061 L 21.1895,-35.6214 L 21.2096,-35.6337 L 21.2313,-35.6427
 L 21.2542,-35.6481 L 21.2777,-35.65 L 21.3011,-35.6481 L 21.324,-35.6427 L 21.3458,-35.6337 L 21.3658,-35.6214
 L 21.3837,-35.6061 L 21.399,-35.5882 L 21.4113,-35.5681 L 21.4203,-35.5463 L 21.4258,-35.5235 L 21.4277,-35.5
 L 21.4258,-35.4765 L 21.4203,-35.4536 L 21.4113,-35.4319 L 21.399,-35.4118 L 21.3837,-35.3939 L 21.3658,-35.3786
 L 21.3458,-35.3663 L 21.324,-35.3573 L 21.3011,-35.3518 L 21.2777,-35.35 z
M 18.0542,-35.3518 L 18.0313,-35.3573 L 18.0096,-35.3663 L 17.9895,-35.3786 L 17.9716,-35.3939 L 17.9563,-35.4118
 L 17.944,-35.4319 L 17.935,-35.4536 L 17.9295,-35.4765 L 17.9277,-35.5 L 17.9295,-35.5235 L 17.935,-35.5463
 L 17.944,-35.5681 L 17.9563,-35.5882 L 17.9716,-35.6061 L 17.9895,-35.6214 L 18.0096,-35.6337 L 18.0313,-35.6427
 L 18.0542,-35.6481 L 18.0777,-35.65 L 18.1011,-35.6481 L 18.124,-35.6427 L 18.1458,-35.6337 L 18.1658,-35.6214
 L 18.1837,-35.6061 L 18.199,-35.5882 L 18.2113,-35.5681 L 18.2203,-35.5463 L 18.2258,-35.5235 L 18.2277,-35.5
 L 18.2258,-35.4765 L 18.2203,-35.4536 L 18.2113,-35.4319 L 18.199,-35.4118 L 18.1837,-35.3939 L 18.1658,-35.3786
 L 18.1458,-35.3663 L 18.124,-35.3573 L 18.1011,-35.3518 L 18.0777,-35.35 z
M 4.97653,-34.8018 L 4.95364,-34.8073 L 4.9319,-34.8163 L 4.91182,-34.8286 L 4.89392,-34.8439 L 4.87865,-34.8618
 L 4.86635,-34.8819 L 4.85733,-34.9036 L 4.85184,-34.9265 L 4.84999,-34.95 L 4.85184,-34.9735 L 4.85733,-34.9964
 L 4.86635,-35.0181 L 4.87865,-35.0382 L 4.89392,-35.0561 L 4.91182,-35.0714 L 4.9319,-35.0836 L 4.95364,-35.0927
 L 4.97653,-35.0981 L 5,-35.1 L 5.02345,-35.0981 L 5.04634,-35.0927 L 5.06808,-35.0836 L 5.08817,-35.0714
 L 5.10606,-35.0561 L 5.12134,-35.0382 L 5.13364,-35.0181 L 5.14265,-34.9964 L 5.14815,-34.9735 L 5.14999,-34.95
 L 5.14815,-34.9265 L 5.14265,-34.9036 L 5.13364,-34.8819 L 5.12134,-34.8618 L 5.10606,-34.8439 L 5.08817,-34.8286
 L 5.06808,-34.8163 L 5.04634,-34.8073 L 5.02345,-34.8018 L 5,-34.8 z
M 19.6542,-33.7518 L 19.6313,-33.7573 L 19.6096,-33.7663 L 19.5895,-33.7786 L 19.5716,-33.7939 L 19.5563,-33.8118
 L 19.544,-33.8319 L 19.535,-33.8536 L 19.5295,-33.8765 L 19.5277,-33.9 L 19.5295,-33.9235 L 19.535,-33.9464
 L 19.544,-33.9681 L 19.5563,-33.9882 L 19.5716,-34.0061 L 19.5895,-34.0213 L 19.6096,-34.0336 L 19.6313,-34.0426
 L 19.6542,-34.0481 L 19.6777,-34.05 L 19.7011,-34.0481 L 19.724,-34.0426 L 19.7458,-34.0336 L 19.7658,-34.0213
 L 19.7837,-34.0061 L 19.799,-33.9882 L 19.8113,-33.9681 L 19.8203,-33.9464 L 19.8258,-33.9235 L 19.8277,-33.9
 L 19.8258,-33.8765 L 19.8203,-33.8536 L 19.8113,-33.8319 L 19.799,-33.8118 L 19.7837,-33.7939 L 19.7658,-33.7786
 L 19.7458,-33.7663 L 19.724,-33.7573 L 19.7011,-33.7518 L 19.6777,-33.75 z
M 11.0858,-34.9609 L 11.0766,-34.9227 L 11.0616,-34.8865 L 11.0411,-34.853 L 11.0156,-34.8232 L 10.9858,-34.7977
 L 10.9523,-34.7772 L 10.9161,-34.7622 L 10.8779,-34.7531 L 10.8388,-34.75 L 6.75,-34.75 L 6.71089,-34.7531
 L 6.67274,-34.7622 L 6.63649,-34.7772 L 6.60304,-34.7977 L 6.57321,-34.8232 L 6.54774,-34.853 L 6.52724,-34.8865
 L 6.51222,-34.9227 L 6.50307,-34.9609 L 6.5,-35 L 6.5,-36 L 6.50307,-36.0391 L 6.51222,-36.0773
 L 6.52724,-36.1135 L 6.54774,-36.1469 L 6.57321,-36.1768 L 6.60304,-36.2023 L 6.63649,-36.2227 L 6.67274,-36.2378
 L 6.71089,-36.2469 L 6.75,-36.25 L 10.8388,-36.25 L 10.8779,-36.2469 L 10.9161,-36.2378 L 10.9523,-36.2227
 L 10.9858,-36.2023 L 11.0156,-36.1768 L 11.0411,-36.1469 L 11.0616,-36.1135 L 11.0766,-36.0773 L 11.0858,-36.0391
 L 11.0888,-36 L 11.0888,-35 z
M 10,-27.7377 L 20.6777,-30.2 L 20.6777,-30.5 L 18.6777,-30.5 L 18.6777,-30.8 L 17.6777,-30.8
 L 17.6777,-30.5 L 5.5,-30.5 L 5.5,-31.1 L 4.5,-31.1 L 4.5,-26.7 L 5.5,-26.7
 L 5.5,-27 L 6.5,-27 L 8,-23 L 10,-23 z
M 6.7601,-29.673 L 7.08716,-30 L 7.63251,-30 L 7.95955,-29.673 L 7.35983,-29.0732 z
M 14.6899,-29.3694 L 14.3863,-29.673 L 14.7134,-30 L 15.2587,-30 L 15.5858,-29.673 L 15.4473,-29.5345
 z
M 8.66666,-29.673 L 8.99371,-30 L 9.53906,-30 L 9.8661,-29.673 L 9.26639,-29.0732 z
M 10.5732,-29.673 L 10.9003,-30 L 11.4456,-30 L 11.7727,-29.673 L 11.1729,-29.0732 z
M 5,-29.5265 L 5,-29.8194 L 5.1806,-30 L 5.72595,-30 L 6.05299,-29.673 L 5.45328,-29.0732
 z
M 12.4798,-29.673 L 12.8068,-30 L 13.3522,-30 L 13.6792,-29.673 L 13.0795,-29.0732 z
M 11.5265,-28.7197 L 12.1262,-29.3194 L 12.5441,-28.9015 L 11.5594,-28.6868 z
M 14.0328,-29.3194 L 14.1094,-29.2428 L 13.9134,-29.2 z
M 7.71338,-28.7197 L 8.31311,-29.3194 L 8.91283,-28.7197 L 8.31311,-28.1199 z
M 5.80682,-28.7197 L 6.40656,-29.3194 L 7.00627,-28.7197 L 6.40656,-28.1199 z
M 9.61993,-28.7197 L 10.2197,-29.3194 L 10.8194,-28.7197 L 10.5709,-28.4712 L 9.99414,-28.3455 z
M 5,-28.8194 L 5.09972,-28.7197 L 5,-28.62 z
M 6.7601,-27.7664 L 7.35983,-28.3661 L 7.95955,-27.7664 L 7.35983,-27.1667 z
M 5.11995,-27.5 L 5,-27.6199 L 5,-27.9129 L 5.45328,-28.3661 L 6.05299,-27.7664 L 5.78659,-27.5
 z
M 8.66666,-27.7664 L 9.26639,-28.3661 L 9.5,-28.1325 L 9.5,-27.4003 L 9.26639,-27.1667 z
M 7.71338,-26.8131 L 8.31311,-27.4128 L 8.91283,-26.8131 L 8.31311,-26.2134 z
M 7.30916,-26.4089 L 7.35983,-26.4596 L 7.95955,-25.8598 L 7.63628,-25.5366 z
M 8.66666,-25.8598 L 9.26639,-26.4596 L 9.5,-26.226 L 9.5,-25.4937 L 9.26639,-25.2601 z
M 9.11995,-23.5 L 8.66666,-23.9533 L 9.26639,-24.553 L 9.5,-24.3194 L 9.5,-23.5872 L 9.41283,-23.5
 z
M 7.82913,-25.0223 L 8.31311,-25.5063 L 8.91283,-24.9066 L 8.31311,-24.3068 L 7.96802,-24.6519 z
M 8.41284,-23.5 L 8.39999,-23.5 L 8.39229,-23.5206 z
M 2.79999,-28.8 L 1.5,-28.8 L 1.5,-26.9 L 2.79999,-26.9 z
M 22.0377,-27.8 L 17,-27.8 L 17,-25.9 L 22.0377,-25.9 z
M 17.75,-26.4 L 17.7109,-26.4031 L 17.6727,-26.4122 L 17.6365,-26.4272 L 17.603,-26.4477 L 17.5732,-26.4732
 L 17.5477,-26.5031 L 17.5272,-26.5365 L 17.5122,-26.5727 L 17.5031,-26.6109 L 17.5,-26.65 L 17.5,-27.05
 L 17.5031,-27.0891 L 17.5122,-27.1272 L 17.5272,-27.1635 L 17.5477,-27.1969 L 17.5732,-27.2268 L 17.603,-27.2522
 L 17.6365,-27.2728 L 17.6727,-27.2878 L 17.7109,-27.2969 L 17.75,-27.3 L 18.5188,-27.3 L 18.558,-27.2969
 L 18.5961,-27.2878 L 18.6323,-27.2728 L 18.6658,-27.2522 L 18.6956,-27.2268 L 18.7211,-27.1969 L 18.7416,-27.1635
 L 18.7566,-27.1272 L 18.7658,-27.0891 L 18.7688,-27.05 L 18.7688,-26.65 L 18.7658,-26.6109 L 18.7566,-26.5727
 L 18.7416,-26.5365 L 18.7211,-26.5031 L 18.6956,-26.4732 L 18.6658,-26.4477 L 18.6323,-26.4272 L 18.5961,-26.4122
 L 18.558,-26.4031 L 18.5188,-26.4 z
M 20.0188,-26.4 L 19.9797,-26.4031 L 19.9416,-26.4122 L 19.9053,-26.4272 L 19.8719,-26.4477 L 19.8421,-26.4732
 L 19.8166,-26.5031 L 19.7961,-26.5365 L 19.7811,-26.5727 L 19.7719,-26.6109 L 19.7688,-26.65 L 19.7688,-27.05
 L 19.7719,-27.0891 L 19.7811,-27.1272 L 19.7961,-27.1635 L 19.8166,-27.1969 L 19.8421,-27.2268 L 19.8719,-27.2522
 L 19.9053,-27.2728 L 19.9416,-27.2878 L 19.9797,-27.2969 L 20.0188,-27.3 L 20.7877,-27.3 L 20.8268,-27.2969
 L 20.865,-27.2878 L 20.9012,-27.2728 L 20.9346,-27.2522 L 20.9645,-27.2268 L 20.99,-27.1969 L 21.0105,-27.1635
 L 21.0255,-27.1272 L 21.0346,-27.0891 L 21.0377,-27.05 L 21.0377,-26.65 L 21.0346,-26.6109 L 21.0255,-26.5727
 L 21.0105,-26.5365 L 20.99,-26.5031 L 20.9645,-26.4732 L 20.9346,-26.4477 L 20.9012,-26.4272 L 20.865,-26.4122
 L 20.8268,-26.4031 L 20.7877,-26.4 z
M 4.37199,-23.8 L 0,-23.8 L 0,-21.9 L 4.37199,-21.9 z
M 0.75,-22.4 L 0.710892,-22.4031 L 0.672745,-22.4122 L 0.63649,-22.4272 L 0.603043,-22.4477 L 0.573212,-22.4732
 L 0.547745,-22.5031 L 0.527237,-22.5365 L 0.512222,-22.5727 L 0.503067,-22.6109 L 0.5,-22.65 L 0.5,-23.05
 L 0.503067,-23.0891 L 0.512222,-23.1272 L 0.527237,-23.1635 L 0.547745,-23.1969 L 0.573212,-23.2268 L 0.603043,-23.2522
 L 0.63649,-23.2728 L 0.672745,-23.2878 L 0.710892,-23.2969 L 0.75,-23.3 L 1.43599,-23.3 L 1.4751,-23.2969
 L 1.51324,-23.2878 L 1.54948,-23.2728 L 1.58295,-23.2522 L 1.61276,-23.2268 L 1.63824,-23.1969 L 1.65875,-23.1635
 L 1.67375,-23.1272 L 1.68292,-23.0891 L 1.68599,-23.05 L 1.68599,-22.65 L 1.68292,-22.6109 L 1.67375,-22.5727
 L 1.65875,-22.5365 L 1.63824,-22.5031 L 1.61276,-22.4732 L 1.58295,-22.4477 L 1.54948,-22.4272 L 1.51324,-22.4122
 L 1.4751,-22.4031 L 1.43599,-22.4 z
M 2.93599,-22.4 L 2.89688,-22.4031 L 2.85873,-22.4122 L 2.82249,-22.4272 L 2.78905,-22.4477 L 2.75922,-22.4732
 L 2.73373,-22.5031 L 2.71324,-22.5365 L 2.69823,-22.5727 L 2.68907,-22.6109 L 2.68599,-22.65 L 2.68599,-23.05
 L 2.68907,-23.0891 L 2.69823,-23.1272 L 2.71324,-23.1635 L 2.73373,-23.1969 L 2.75922,-23.2268 L 2.78905,-23.2522
 L 2.82249,-23.2728 L 2.85873,-23.2878 L 2.89688,-23.2969 L 2.93599,-23.3 L 3.62199,-23.3 L 3.6611,-23.2969
 L 3.69925,-23.2878 L 3.73549,-23.2728 L 3.76894,-23.2522 L 3.79877,-23.2268 L 3.82425,-23.1969 L 3.84474,-23.1635
 L 3.85976,-23.1272 L 3.86891,-23.0891 L 3.87199,-23.05 L 3.87199,-22.65 L 3.86891,-22.6109 L 3.85976,-22.5727
 L 3.84474,-22.5365 L 3.82425,-22.5031 L 3.79877,-22.4732 L 3.76894,-22.4477 L 3.73549,-22.4272 L 3.69925,-22.4122
 L 3.6611,-22.4031 L 3.62199,-22.4 z
M 22.7956,-23.8 L 11.7377,-23.8 L 11.7377,-21.9 L 22.7956,-21.9 z
M 17.7789,-23.1272 L 17.7939,-23.1635 L 17.8144,-23.1969 L 17.8399,-23.2268 L 17.8697,-23.2522 L 17.9032,-23.2728
 L 17.9394,-23.2878 L 17.9775,-23.2969 L 18.0166,-23.3 L 22.0456,-23.3 L 22.0847,-23.2969 L 22.1228,-23.2878
 L 22.1591,-23.2728 L 22.1926,-23.2522 L 22.2224,-23.2268 L 22.2478,-23.1969 L 22.2684,-23.1635 L 22.2834,-23.1272
 L 22.2925,-23.0891 L 22.2956,-23.05 L 22.2956,-22.65 L 22.2925,-22.6109 L 22.2834,-22.5727 L 22.2684,-22.5365
 L 22.2478,-22.5031 L 22.2224,-22.4732 L 22.1926,-22.4477 L 22.1591,-22.4272 L 22.1228,-22.4122 L 22.0847,-22.4031
 L 22.0456,-22.4 L 18.0166,-22.4 L 17.9775,-22.4031 L 17.9394,-22.4122 L 17.9032,-22.4272 L 17.8697,-22.4477
 L 17.8399,-22.4732 L 17.8144,-22.5031 L 17.7939,-22.5365 L 17.7789,-22.5727 L 17.7697,-22.6109 L 17.7666,-22.65
 L 17.7666,-23.05 L 17.7697,-23.0891 z
M 16.7636,-22.6109 L 16.7544,-22.5727 L 16.7394,-22.5365 L 16.7189,-22.5031 L 16.6934,-22.4732 L 16.6636,-22.4477
 L 16.6301,-22.4272 L 16.5939,-22.4122 L 16.5558,-22.4031 L 16.5166,-22.4 L 12.4877,-22.4 L 12.4486,-22.4031
 L 12.4104,-22.4122 L 12.3742,-22.4272 L 12.3408,-22.4477 L 12.3109,-22.4732 L 12.2854,-22.5031 L 12.265,-22.5365
 L 12.2499,-22.5727 L 12.2408,-22.6109 L 12.2377,-22.65 L 12.2377,-23.05 L 12.2408,-23.0891 L 12.2499,-23.1272
 L 12.265,-23.1635 L 12.2854,-23.1969 L 12.3109,-23.2268 L 12.3408,-23.2522 L 12.3742,-23.2728 L 12.4104,-23.2878
 L 12.4486,-23.2969 L 12.4877,-23.3 L 16.5166,-23.3 L 16.5558,-23.2969 L 16.5939,-23.2878 L 16.6301,-23.2728
 L 16.6636,-23.2522 L 16.6934,-23.2268 L 16.7189,-23.1969 L 16.7394,-23.1635 L 16.7544,-23.1272 L 16.7636,-23.0891
 L 16.7666,-23.05 L 16.7666,-22.65 z
M 17.2322,-12 L 17.364,-12 L 18.0659,-12.7019 L 18.7678,-12 L 22,-12 L 22.0782,-12.0061
 L 22.1545,-12.0245 L 22.227,-12.0545 L 22.2939,-12.0955 L 22.3535,-12.1464 L 22.4045,-12.2061 L 22.4455,-12.273
 L 22.4755,-12.3455 L 22.4938,-12.4218 L 22.5,-12.5 L 22.5,-17.5 L 22.4938,-17.5782 L 22.4755,-17.6545
 L 22.4455,-17.727 L 22.4045,-17.7939 L 22.3535,-17.8535 L 22.2939,-17.9045 L 22.227,-17.9455 L 22.1545,-17.9755
 L 22.0782,-17.9938 L 22,-18 L 18.7678,-18 L 18.0659,-17.2981 L 17.364,-18 L 17.2322,-18
 L 16.2322,-19 L 4.25,-19 L 3.62425,-18.9507 L 3.01393,-18.8042 L 2.43404,-18.564 L 1.89885,-18.2361
 L 1.42157,-17.8284 L 1.01393,-17.3511 L 0.685974,-16.8159 L 0.44577,-16.2361 L 0.29924,-15.6257 L 0.25,-15
 L 0.29924,-14.3743 L 0.44577,-13.7639 L 0.685974,-13.184 L 1.01393,-12.6488 L 1.42157,-12.1716 L 1.89885,-11.7639
 L 2.43404,-11.436 L 3.01393,-11.1958 L 3.62425,-11.0492 L 4.25,-11 L 16.2322,-11 z
M 4.25,-17.5 L 4.25,-18.5 L 4.54999,-18.5 L 4.54999,-17.5 z
M 6.45,-17.5 L 6.45,-18.5 L 6.74998,-18.5 L 6.74998,-17.5 z
M 14.8839,-17.6516 L 15.591,-18.3587 L 15.8031,-18.1466 L 15.096,-17.4395 z
M 4.92653,-17.8518 L 4.90364,-17.8573 L 4.8819,-17.8663 L 4.86183,-17.8786 L 4.84393,-17.8939 L 4.82864,-17.9118
 L 4.81635,-17.9319 L 4.80733,-17.9536 L 4.80183,-17.9765 L 4.79999,-18 L 4.80183,-18.0235 L 4.80733,-18.0463
 L 4.81635,-18.0681 L 4.82864,-18.0882 L 4.84393,-18.1061 L 4.86183,-18.1214 L 4.8819,-18.1337 L 4.90364,-18.1427
 L 4.92653,-18.1481 L 4.95,-18.15 L 4.97346,-18.1481 L 4.99635,-18.1427 L 5.0181,-18.1337 L 5.03816,-18.1214
 L 5.05606,-18.1061 L 5.07135,-18.0882 L 5.08365,-18.0681 L 5.09265,-18.0463 L 5.09814,-18.0235 L 5.09999,-18
 L 5.09814,-17.9765 L 5.09265,-17.9536 L 5.08365,-17.9319 L 5.07135,-17.9118 L 5.05606,-17.8939 L 5.03816,-17.8786
 L 5.0181,-17.8663 L 4.99635,-17.8573 L 4.97346,-17.8518 L 4.95,-17.85 z
M 6.02654,-17.8518 L 6.00365,-17.8573 L 5.98189,-17.8663 L 5.96182,-17.8786 L 5.94392,-17.8939 L 5.92863,-17.9118
 L 5.91634,-17.9319 L 5.90733,-17.9536 L 5.90184,-17.9765 L 5.89999,-18 L 5.90184,-18.0235 L 5.90733,-18.0463
 L 5.91634,-18.0681 L 5.92863,-18.0882 L 5.94392,-18.1061 L 5.96182,-18.1214 L 5.98189,-18.1337 L 6.00365,-18.1427
 L 6.02654,-18.1481 L 6.04999,-18.15 L 6.07346,-18.1481 L 6.09634,-18.1427 L 6.11809,-18.1337 L 6.13817,-18.1214
 L 6.15607,-18.1061 L 6.17134,-18.0882 L 6.18364,-18.0681 L 6.19266,-18.0463 L 6.19815,-18.0235 L 6.2,-18
 L 6.19815,-17.9765 L 6.19266,-17.9536 L 6.18364,-17.9319 L 6.17134,-17.9118 L 6.15607,-17.8939 L 6.13817,-17.8786
 L 6.11809,-17.8663 L 6.09634,-17.8573 L 6.07346,-17.8518 L 6.04999,-17.85 z
M 8,-17.5 L 8,-18 L 14,-18 L 14,-17.5 z
M 15.7089,-17.3621 L 15.6861,-17.3676 L 15.6643,-17.3766 L 15.6442,-17.3889 L 15.6263,-17.4042 L 15.6111,-17.4221
 L 15.5988,-17.4421 L 15.5898,-17.4639 L 15.5842,-17.4868 L 15.5824,-17.5102 L 15.5842,-17.5337 L 15.5898,-17.5566
 L 15.5988,-17.5783 L 15.6111,-17.5984 L 15.6263,-17.6163 L 15.6442,-17.6316 L 15.6643,-17.6439 L 15.6861,-17.6529
 L 15.7089,-17.6584 L 15.7324,-17.6602 L 15.7559,-17.6584 L 15.7788,-17.6529 L 15.8005,-17.6439 L 15.8206,-17.6316
 L 15.8385,-17.6163 L 15.8538,-17.5984 L 15.8661,-17.5783 L 15.8751,-17.5566 L 15.8806,-17.5337 L 15.8824,-17.5102
 L 15.8806,-17.4868 L 15.8751,-17.4639 L 15.8661,-17.4421 L 15.8538,-17.4221 L 15.8385,-17.4042 L 15.8206,-17.3889
 L 15.8005,-17.3766 L 15.7788,-17.3676 L 15.7559,-17.3621 L 15.7324,-17.3602 z
M 16.4868,-16.5842 L 16.4639,-16.5898 L 16.4421,-16.5988 L 16.4221,-16.6111 L 16.4042,-16.6263 L 16.3889,-16.6442
 L 16.3766,-16.6643 L 16.3676,-16.6861 L 16.3621,-16.7089 L 16.3602,-16.7324 L 16.3621,-16.7559 L 16.3676,-16.7788
 L 16.3766,-16.8005 L 16.3889,-16.8206 L 16.4042,-16.8385 L 16.4221,-16.8538 L 16.4421,-16.8661 L 16.4639,-16.8751
 L 16.4868,-16.8806 L 16.5102,-16.8824 L 16.5337,-16.8806 L 16.5566,-16.8751 L 16.5783,-16.8661 L 16.5984,-16.8538
 L 16.6163,-16.8385 L 16.6316,-16.8206 L 16.6439,-16.8005 L 16.6529,-16.7788 L 16.6584,-16.7559 L 16.6602,-16.7324
 L 16.6584,-16.7089 L 16.6529,-16.6861 L 16.6439,-16.6643 L 16.6316,-16.6442 L 16.6163,-16.6263 L 16.5984,-16.6111
 L 16.5783,-16.5988 L 16.5566,-16.5898 L 16.5337,-16.5842 L 16.5102,-16.5824 z
M 16.4395,-16.096 L 17.1466,-16.8031 L 17.3587,-16.591 L 16.6516,-15.8839 z
M 16.4395,-13.904 L 16.6516,-14.1161 L 17.3587,-13.409 L 17.1466,-13.1969 z
M 16.4868,-13.1194 L 16.4639,-13.1249 L 16.4421,-13.1339 L 16.4221,-13.1462 L 16.4042,-13.1615 L 16.3889,-13.1794
 L 16.3766,-13.1995 L 16.3676,-13.2212 L 16.3621,-13.2441 L 16.3602,-13.2676 L 16.3621,-13.291 L 16.3676,-13.3139
 L 16.3766,-13.3357 L 16.3889,-13.3557 L 16.4042,-13.3736 L 16.4221,-13.3889 L 16.4421,-13.4012 L 16.4639,-13.4102
 L 16.4868,-13.4157 L 16.5102,-13.4176 L 16.5337,-13.4157 L 16.5566,-13.4102 L 16.5783,-13.4012 L 16.5984,-13.3889
 L 16.6163,-13.3736 L 16.6316,-13.3557 L 16.6439,-13.3357 L 16.6529,-13.3139 L 16.6584,-13.291 L 16.6602,-13.2676
 L 16.6584,-13.2441 L 16.6529,-13.2212 L 16.6439,-13.1995 L 16.6316,-13.1794 L 16.6163,-13.1615 L 16.5984,-13.1462
 L 16.5783,-13.1339 L 16.5566,-13.1249 L 16.5337,-13.1194 L 16.5102,-13.1176 z
M 15.7089,-12.3416 L 15.6861,-12.3471 L 15.6643,-12.3561 L 15.6442,-12.3684 L 15.6263,-12.3837 L 15.6111,-12.4016
 L 15.5988,-12.4217 L 15.5898,-12.4434 L 15.5842,-12.4663 L 15.5824,-12.4898 L 15.5842,-12.5132 L 15.5898,-12.5361
 L 15.5988,-12.5579 L 15.6111,-12.5779 L 15.6263,-12.5958 L 15.6442,-12.6111 L 15.6643,-12.6234 L 15.6861,-12.6324
 L 15.7089,-12.6379 L 15.7324,-12.6398 L 15.7559,-12.6379 L 15.7788,-12.6324 L 15.8005,-12.6234 L 15.8206,-12.6111
 L 15.8385,-12.5958 L 15.8538,-12.5779 L 15.8661,-12.5579 L 15.8751,-12.5361 L 15.8806,-12.5132 L 15.8824,-12.4898
 L 15.8806,-12.4663 L 15.8751,-12.4434 L 15.8661,-12.4217 L 15.8538,-12.4016 L 15.8385,-12.3837 L 15.8206,-12.3684
 L 15.8005,-12.3561 L 15.7788,-12.3471 L 15.7559,-12.3416 L 15.7324,-12.3398 z
M 14.8839,-12.3483 L 15.096,-12.5605 L 15.8031,-11.8534 L 15.591,-11.6412 z
M 6.45,-11.5 L 6.45,-12.5 L 6.74998,-12.5 L 6.74998,-11.5 z
M 8,-12 L 8,-12.5 L 14,-12.5 L 14,-12 z
M 4.25,-11.5 L 4.25,-12.5 L 4.54999,-12.5 L 4.54999,-11.5 z
M 4.92653,-11.8518 L 4.90364,-11.8573 L 4.8819,-11.8663 L 4.86183,-11.8786 L 4.84393,-11.8939 L 4.82864,-11.9118
 L 4.81635,-11.9319 L 4.80733,-11.9536 L 4.80183,-11.9765 L 4.79999,-12 L 4.80183,-12.0235 L 4.80733,-12.0463
 L 4.81635,-12.0681 L 4.82864,-12.0882 L 4.84393,-12.1061 L 4.86183,-12.1214 L 4.8819,-12.1337 L 4.90364,-12.1427
 L 4.92653,-12.1481 L 4.95,-12.15 L 4.97346,-12.1481 L 4.99634,-12.1427 L 5.0181,-12.1337 L 5.03816,-12.1214
 L 5.05606,-12.1061 L 5.07135,-12.0882 L 5.08365,-12.0681 L 5.09265,-12.0463 L 5.09814,-12.0235 L 5.09999,-12
 L 5.09814,-11.9765 L 5.09265,-11.9536 L 5.08365,-11.9319 L 5.07135,-11.9118 L 5.05606,-11.8939 L 5.03816,-11.8786
 L 5.0181,-11.8663 L 4.99634,-11.8573 L 4.97346,-11.8518 L 4.95,-11.85 z
M 6.02652,-11.8518 L 6.00365,-11.8573 L 5.98189,-11.8663 L 5.96182,-11.8786 L 5.94392,-11.8939 L 5.92863,-11.9118
 L 5.91634,-11.9319 L 5.90733,-11.9536 L 5.90184,-11.9765 L 5.89999,-12 L 5.90184,-12.0235 L 5.90733,-12.0463
 L 5.91634,-12.0681 L 5.92863,-12.0882 L 5.94392,-12.1061 L 5.96182,-12.1214 L 5.98189,-12.1337 L 6.00365,-12.1427
 L 6.02652,-12.1481 L 6.04999,-12.15 L 6.07346,-12.1481 L 6.09634,-12.1427 L 6.11809,-12.1337 L 6.13815,-12.1214
 L 6.15605,-12.1061 L 6.17134,-12.0882 L 6.18364,-12.0681 L 6.19266,-12.0463 L 6.19815,-12.0235 L 6.2,-12
 L 6.19815,-11.9765 L 6.19266,-11.9536 L 6.18364,-11.9319 L 6.17134,-11.9118 L 6.15605,-11.8939 L 6.13815,-11.8786
 L 6.11809,-11.8663 L 6.09634,-11.8573 L 6.07346,-11.8518 L 6.04999,-11.85 z
M 18,-1.76776 L 18,-6.23222 L 16.2322,-8 L 4.25,-8 L 3.62425,-7.95074 L 3.01393,-7.80421
 L 2.43404,-7.56403 L 1.89885,-7.23605 L 1.42157,-6.82841 L 1.01393,-6.35114 L 0.685974,-5.81595 L 0.44577,-5.23605
 L 0.29924,-4.62573 L 0.25,-4 L 0.29924,-3.37425 L 0.44577,-2.76393 L 0.685974,-2.18404 L 1.01393,-1.64885
 L 1.42157,-1.17157 L 1.89885,-0.763931 L 2.43404,-0.435974 L 3.01393,-0.19577 L 3.62425,-0.0492401 L 4.25,-0
 L 16.2322,-0 z
M 6.45,-6.5 L 6.45,-7.5 L 6.74998,-7.5 L 6.74998,-6.5 z
M 4.25,-6.5 L 4.25,-7.5 L 4.54999,-7.5 L 4.54999,-6.5 z
M 14.8839,-6.65164 L 15.591,-7.35875 L 15.8031,-7.14662 L 15.096,-6.43951 z
M 12.9218,-6.25615 L 12.8455,-6.27446 L 12.773,-6.30449 L 12.7061,-6.34549 L 12.6464,-6.39644 L 12.5955,-6.4561
 L 12.5545,-6.52299 L 12.5245,-6.59549 L 12.5061,-6.67177 L 12.5,-6.75 L 12.5061,-6.82822 L 12.5245,-6.9045
 L 12.5545,-6.97699 L 12.5955,-7.04388 L 12.6464,-7.10355 L 12.7061,-7.1545 L 12.773,-7.1955 L 12.8455,-7.22552
 L 12.9218,-7.24384 L 13,-7.25 L 13.0782,-7.24384 L 13.1545,-7.22552 L 13.227,-7.1955 L 13.2939,-7.1545
 L 13.3535,-7.10355 L 13.4045,-7.04388 L 13.4455,-6.97699 L 13.4755,-6.9045 L 13.4938,-6.82822 L 13.5,-6.75
 L 13.4938,-6.67177 L 13.4755,-6.59549 L 13.4455,-6.52299 L 13.4045,-6.4561 L 13.3535,-6.39644 L 13.2939,-6.34549
 L 13.227,-6.30449 L 13.1545,-6.27446 L 13.0782,-6.25615 L 13,-6.25 z
M 4.92653,-6.85184 L 4.90364,-6.85733 L 4.8819,-6.86635 L 4.86183,-6.87865 L 4.84393,-6.89392 L 4.82864,-6.91182
 L 4.81635,-6.9319 L 4.80733,-6.95364 L 4.80183,-6.97653 L 4.79999,-7 L 4.80183,-7.02345 L 4.80733,-7.04634
 L 4.81635,-7.06808 L 4.82864,-7.08817 L 4.84393,-7.10606 L 4.86183,-7.12134 L 4.8819,-7.13364 L 4.90364,-7.14265
 L 4.92653,-7.14815 L 4.95,-7.14999 L 4.97346,-7.14815 L 4.99635,-7.14265 L 5.0181,-7.13364 L 5.03816,-7.12134
 L 5.05606,-7.10606 L 5.07135,-7.08817 L 5.08365,-7.06808 L 5.09265,-7.04634 L 5.09814,-7.02345 L 5.09999,-7
 L 5.09814,-6.97653 L 5.09265,-6.95364 L 5.08365,-6.9319 L 5.07135,-6.91182 L 5.05606,-6.89392 L 5.03816,-6.87865
 L 5.0181,-6.86635 L 4.99635,-6.85733 L 4.97346,-6.85184 L 4.95,-6.84999 z
M 6.02654,-6.85184 L 6.00365,-6.85733 L 5.98189,-6.86635 L 5.96182,-6.87865 L 5.94392,-6.89392 L 5.92863,-6.91182
 L 5.91634,-6.9319 L 5.90733,-6.95364 L 5.90184,-6.97653 L 5.89999,-7 L 5.90184,-7.02345 L 5.90733,-7.04634
 L 5.91634,-7.06808 L 5.92863,-7.08817 L 5.94392,-7.10606 L 5.96182,-7.12134 L 5.98189,-7.13364 L 6.00365,-7.14265
 L 6.02654,-7.14815 L 6.04999,-7.14999 L 6.07346,-7.14815 L 6.09634,-7.14265 L 6.11809,-7.13364 L 6.13817,-7.12134
 L 6.15607,-7.10606 L 6.17134,-7.08817 L 6.18364,-7.06808 L 6.19266,-7.04634 L 6.19815,-7.02345 L 6.2,-7
 L 6.19815,-6.97653 L 6.19266,-6.95364 L 6.18364,-6.9319 L 6.17134,-6.91182 L 6.15607,-6.89392 L 6.13817,-6.87865
 L 6.11809,-6.86635 L 6.09634,-6.85733 L 6.07346,-6.85184 L 6.04999,-6.84999 z
M 15.7089,-6.36206 L 15.6861,-6.36757 L 15.6643,-6.37657 L 15.6442,-6.38887 L 15.6263,-6.40416 L 15.6111,-6.42206
 L 15.5988,-6.44212 L 15.5898,-6.46387 L 15.5842,-6.48676 L 15.5824,-6.51022 L 15.5842,-6.53369 L 15.5898,-6.55658
 L 15.5988,-6.57832 L 15.6111,-6.59839 L 15.6263,-6.61629 L 15.6442,-6.63158 L 15.6643,-6.64388 L 15.6861,-6.65288
 L 15.7089,-6.65837 L 15.7324,-6.66022 L 15.7559,-6.65837 L 15.7788,-6.65288 L 15.8005,-6.64388 L 15.8206,-6.63158
 L 15.8385,-6.61629 L 15.8538,-6.59839 L 15.8661,-6.57832 L 15.8751,-6.55658 L 15.8806,-6.53369 L 15.8824,-6.51022
 L 15.8806,-6.48676 L 15.8751,-6.46387 L 15.8661,-6.44212 L 15.8538,-6.42206 L 15.8385,-6.40416 L 15.8206,-6.38887
 L 15.8005,-6.37657 L 15.7788,-6.36757 L 15.7559,-6.36206 L 15.7324,-6.36021 z
M 16.4868,-5.58424 L 16.4639,-5.58975 L 16.4421,-5.59875 L 16.4221,-5.61105 L 16.4042,-5.62634 L 16.3889,-5.64424
 L 16.3766,-5.66431 L 16.3676,-5.68605 L 16.3621,-5.70894 L 16.3602,-5.73241 L 16.3621,-5.75587 L 16.3676,-5.77876
 L 16.3766,-5.80051 L 16.3889,-5.82057 L 16.4042,-5.83847 L 16.4221,-5.85376 L 16.4421,-5.86606 L 16.4639,-5.87506
 L 16.4868,-5.88055 L 16.5102,-5.8824 L 16.5337,-5.88055 L 16.5566,-5.87506 L 16.5783,-5.86606 L 16.5984,-5.85376
 L 16.6163,-5.83847 L 16.6316,-5.82057 L 16.6439,-5.80051 L 16.6529,-5.77876 L 16.6584,-5.75587 L 16.6602,-5.73241
 L 16.6584,-5.70894 L 16.6529,-5.68605 L 16.6439,-5.66431 L 16.6316,-5.64424 L 16.6163,-5.62634 L 16.5984,-5.61105
 L 16.5783,-5.59875 L 16.5566,-5.58975 L 16.5337,-5.58424 L 16.5102,-5.5824 z
M 16.4395,-5.09601 L 17.1466,-5.80312 L 17.3587,-5.59099 L 16.6516,-4.88388 z
M 5.76534,-2.51846 L 5.53647,-2.57341 L 5.319,-2.66348 L 5.11832,-2.78647 L 4.93933,-2.93933 L 4.78647,-3.11832
 L 4.66348,-3.319 L 4.57341,-3.53647 L 4.51846,-3.76534 L 4.5,-4 L 4.51846,-4.23465 L 4.57341,-4.46352
 L 4.66348,-4.68098 L 4.78647,-4.88167 L 4.93933,-5.06065 L 5.11832,-5.21352 L 5.319,-5.3365 L 5.53647,-5.42657
 L 5.76534,-5.48152 L 6,-5.5 L 6.23465,-5.48152 L 6.46352,-5.42657 L 6.68098,-5.3365 L 6.88167,-5.21352
 L 7.06065,-5.06065 L 7.21352,-4.88167 L 7.3365,-4.68098 L 7.42657,-4.46352 L 7.48152,-4.23465 L 7.5,-4
 L 7.48152,-3.76534 L 7.42657,-3.53647 L 7.3365,-3.319 L 7.21352,-3.11832 L 7.06065,-2.93933 L 6.88167,-2.78647
 L 6.68098,-2.66348 L 6.46352,-2.57341 L 6.23465,-2.51846 L 6,-2.5 z
M 12.7653,-2.51846 L 12.5365,-2.57341 L 12.319,-2.66348 L 12.1183,-2.78647 L 11.9393,-2.93933 L 11.7865,-3.11832
 L 11.6635,-3.319 L 11.5734,-3.53647 L 11.5185,-3.76534 L 11.5,-4 L 11.5185,-4.23465 L 11.5734,-4.46352
 L 11.6635,-4.68098 L 11.7865,-4.88167 L 11.9393,-5.06065 L 12.1183,-5.21352 L 12.319,-5.3365 L 12.5365,-5.42657
 L 12.7653,-5.48152 L 13,-5.5 L 13.2346,-5.48152 L 13.4635,-5.42657 L 13.681,-5.3365 L 13.8817,-5.21352
 L 14.0607,-5.06065 L 14.2135,-4.88167 L 14.3365,-4.68098 L 14.4266,-4.46352 L 14.4815,-4.23465 L 14.5,-4
 L 14.4815,-3.76534 L 14.4266,-3.53647 L 14.3365,-3.319 L 14.2135,-3.11832 L 14.0607,-2.93933 L 13.8817,-2.78647
 L 13.681,-2.66348 L 13.4635,-2.57341 L 13.2346,-2.51846 L 13,-2.5 z
M 17,-3 L 17,-5 L 17.5,-5 L 17.5,-3 z
M 15.6718,-3.50615 L 15.5955,-3.52446 L 15.523,-3.55449 L 15.4561,-3.59549 L 15.3964,-3.64644 L 15.3455,-3.7061
 L 15.3045,-3.77299 L 15.2745,-3.84549 L 15.2561,-3.92178 L 15.25,-4 L 15.2561,-4.07822 L 15.2745,-4.1545
 L 15.3045,-4.22699 L 15.3455,-4.29388 L 15.3964,-4.35355 L 15.4561,-4.4045 L 15.523,-4.4455 L 15.5955,-4.47552
 L 15.6718,-4.49384 L 15.75,-4.5 L 15.8282,-4.49384 L 15.9045,-4.47552 L 15.977,-4.4455 L 16.0439,-4.4045
 L 16.1035,-4.35355 L 16.1545,-4.29388 L 16.1955,-4.22699 L 16.2255,-4.1545 L 16.2438,-4.07822 L 16.25,-4
 L 16.2438,-3.92178 L 16.2255,-3.84549 L 16.1955,-3.77299 L 16.1545,-3.7061 L 16.1035,-3.64644 L 16.0439,-3.59549
 L 15.977,-3.55449 L 15.9045,-3.52446 L 15.8282,-3.50615 L 15.75,-3.5 z
M 10.1718,-3.50615 L 10.0955,-3.52446 L 10.023,-3.55449 L 9.9561,-3.59549 L 9.89644,-3.64644 L 9.84549,-3.7061
 L 9.80449,-3.77299 L 9.77446,-3.84549 L 9.75615,-3.92178 L 9.75,-4 L 9.75615,-4.07822 L 9.77446,-4.1545
 L 9.80449,-4.22699 L 9.84549,-4.29388 L 9.89644,-4.35355 L 9.9561,-4.4045 L 10.023,-4.4455 L 10.0955,-4.47552
 L 10.1718,-4.49384 L 10.25,-4.5 L 10.3282,-4.49384 L 10.4045,-4.47552 L 10.477,-4.4455 L 10.5439,-4.4045
 L 10.6035,-4.35355 L 10.6545,-4.29388 L 10.6955,-4.22699 L 10.7255,-4.1545 L 10.7438,-4.07822 L 10.75,-4
 L 10.7438,-3.92178 L 10.7255,-3.84549 L 10.6955,-3.77299 L 10.6545,-3.7061 L 10.6035,-3.64644 L 10.5439,-3.59549
 L 10.477,-3.55449 L 10.4045,-3.52446 L 10.3282,-3.50615 L 10.25,-3.5 z
M 16.4395,-2.90398 L 16.6516,-3.1161 L 17.3587,-2.409 L 17.1466,-2.19687 z
M 16.4868,-2.11943 L 16.4639,-2.12492 L 16.4421,-2.13393 L 16.4221,-2.14622 L 16.4042,-2.16151 L 16.3889,-2.17941
 L 16.3766,-2.19948 L 16.3676,-2.22122 L 16.3621,-2.24411 L 16.3602,-2.26758 L 16.3621,-2.29105 L 16.3676,-2.31393
 L 16.3766,-2.33568 L 16.3889,-2.35574 L 16.4042,-2.37364 L 16.4221,-2.38893 L 16.4421,-2.40123 L 16.4639,-2.41023
 L 16.4868,-2.41574 L 16.5102,-2.41759 L 16.5337,-2.41574 L 16.5566,-2.41023 L 16.5783,-2.40123 L 16.5984,-2.38893
 L 16.6163,-2.37364 L 16.6316,-2.35574 L 16.6439,-2.33568 L 16.6529,-2.31393 L 16.6584,-2.29105 L 16.6602,-2.26758
 L 16.6584,-2.24411 L 16.6529,-2.22122 L 16.6439,-2.19948 L 16.6316,-2.17941 L 16.6163,-2.16151 L 16.5984,-2.14622
 L 16.5783,-2.13393 L 16.5566,-2.12492 L 16.5337,-2.11943 L 16.5102,-2.11758 z
M 12.9218,-0.756149 L 12.8455,-0.77446 L 12.773,-0.804489 L 12.7061,-0.84549 L 12.6464,-0.896439 L 12.5955,-0.9561
 L 12.5545,-1.02299 L 12.5245,-1.09549 L 12.5061,-1.17178 L 12.5,-1.25 L 12.5061,-1.32822 L 12.5245,-1.4045
 L 12.5545,-1.47699 L 12.5955,-1.54388 L 12.6464,-1.60355 L 12.7061,-1.6545 L 12.773,-1.6955 L 12.8455,-1.72552
 L 12.9218,-1.74384 L 13,-1.75 L 13.0782,-1.74384 L 13.1545,-1.72552 L 13.227,-1.6955 L 13.2939,-1.6545
 L 13.3535,-1.60355 L 13.4045,-1.54388 L 13.4455,-1.47699 L 13.4755,-1.4045 L 13.4938,-1.32822 L 13.5,-1.25
 L 13.4938,-1.17178 L 13.4755,-1.09549 L 13.4455,-1.02299 L 13.4045,-0.9561 L 13.3535,-0.896439 L 13.2939,-0.84549
 L 13.227,-0.804489 L 13.1545,-0.77446 L 13.0782,-0.756149 L 13,-0.75 z
M 15.7089,-1.34161 L 15.6861,-1.34711 L 15.6643,-1.35611 L 15.6442,-1.36841 L 15.6263,-1.3837 L 15.6111,-1.4016
 L 15.5988,-1.42166 L 15.5898,-1.44341 L 15.5842,-1.46629 L 15.5824,-1.48976 L 15.5842,-1.51323 L 15.5898,-1.53612
 L 15.5988,-1.55786 L 15.6111,-1.57793 L 15.6263,-1.59583 L 15.6442,-1.61111 L 15.6643,-1.62341 L 15.6861,-1.63242
 L 15.7089,-1.63791 L 15.7324,-1.63977 L 15.7559,-1.63791 L 15.7788,-1.63242 L 15.8005,-1.62341 L 15.8206,-1.61111
 L 15.8385,-1.59583 L 15.8538,-1.57793 L 15.8661,-1.55786 L 15.8751,-1.53612 L 15.8806,-1.51323 L 15.8824,-1.48976
 L 15.8806,-1.46629 L 15.8751,-1.44341 L 15.8661,-1.42166 L 15.8538,-1.4016 L 15.8385,-1.3837 L 15.8206,-1.36841
 L 15.8005,-1.35611 L 15.7788,-1.34711 L 15.7559,-1.34161 L 15.7324,-1.33977 z
M 14.8839,-1.34834 L 15.096,-1.56047 L 15.8031,-0.853363 L 15.591,-0.641235 z
M 6.45,-0.5 L 6.45,-1.5 L 6.74998,-1.5 L 6.74998,-0.5 z
M 4.25,-0.5 L 4.25,-1.5 L 4.54999,-1.5 L 4.54999,-0.5 z
M 4.92653,-0.851837 L 4.90364,-0.85733 L 4.8819,-0.866348 L 4.86183,-0.878647 L 4.84393,-0.893921 L 4.82864,-0.911819
 L 4.81635,-0.9319 L 4.80733,-0.953644 L 4.80183,-0.976532 L 4.79999,-1 L 4.80183,-1.02345 L 4.80733,-1.04634
 L 4.81635,-1.06808 L 4.82864,-1.08817 L 4.84393,-1.10606 L 4.86183,-1.12135 L 4.8819,-1.13365 L 4.90364,-1.14265
 L 4.92653,-1.14815 L 4.95,-1.14999 L 4.97346,-1.14815 L 4.99634,-1.14265 L 5.0181,-1.13365 L 5.03816,-1.12135
 L 5.05606,-1.10606 L 5.07135,-1.08817 L 5.08365,-1.06808 L 5.09265,-1.04634 L 5.09814,-1.02345 L 5.09999,-1
 L 5.09814,-0.976532 L 5.09265,-0.953644 L 5.08365,-0.9319 L 5.07135,-0.911819 L 5.05606,-0.893921 L 5.03816,-0.878647
 L 5.0181,-0.866348 L 4.99634,-0.85733 L 4.97346,-0.851837 L 4.95,-0.849991 z
M 6.02652,-0.851837 L 6.00365,-0.85733 L 5.98189,-0.866348 L 5.96182,-0.878647 L 5.94392,-0.893921 L 5.92863,-0.911819
 L 5.91634,-0.9319 L 5.90733,-0.953644 L 5.90184,-0.976532 L 5.89999,-1 L 5.90184,-1.02345 L 5.90733,-1.04634
 L 5.91634,-1.06808 L 5.92863,-1.08817 L 5.94392,-1.10606 L 5.96182,-1.12135 L 5.98189,-1.13365 L 6.00365,-1.14265
 L 6.02652,-1.14815 L 6.04999,-1.14999 L 6.07346,-1.14815 L 6.09634,-1.14265 L 6.11809,-1.13365 L 6.13815,-1.12135
 L 6.15605,-1.10606 L 6.17134,-1.08817 L 6.18364,-1.06808 L 6.19266,-1.04634 L 6.19815,-1.02345 L 6.2,-1
 L 6.19815,-0.976532 L 6.19266,-0.953644 L 6.18364,-0.9319 L 6.17134,-0.911819 L 6.15605,-0.893921 L 6.13815,-0.878647
 L 6.11809,-0.866348 L 6.09634,-0.85733 L 6.07346,-0.851837 L 6.04999,-0.849991 z
" stroke="black" fill="white" stroke-width="0.05"/>
</svg>
