G04 MADE WITH FRITZING*
G04 WWW.FRITZING.ORG*
G04 DOUBLE SIDED*
G04 HOLES PLATED*
G04 CONTOUR ON CENTER OF CONTOUR VECTOR*
%ASAXBY*%
%FSLAX23Y23*%
%MOIN*%
%OFA0B0*%
%SFA1.0B1.0*%
%ADD10C,0.075000*%
%ADD11C,0.075433*%
%ADD12C,0.128000*%
%LNCOPPER0*%
G90*
G70*
G54D10*
X124Y870D03*
G54D11*
X427Y237D03*
X427Y337D03*
X1127Y637D03*
X1127Y737D03*
X2127Y237D03*
X2127Y337D03*
X3777Y337D03*
X3777Y237D03*
X4477Y637D03*
X4477Y737D03*
X2427Y337D03*
X2427Y237D03*
G54D12*
X1176Y688D02*
X727Y688D01*
D02*
X727Y688D02*
X628Y589D01*
D02*
X628Y589D02*
X628Y386D01*
D02*
X628Y386D02*
X528Y286D01*
D02*
X1925Y688D02*
X1176Y688D01*
D02*
X1925Y688D02*
X3478Y688D01*
D02*
X3578Y589D02*
X3578Y386D01*
D02*
X3578Y386D02*
X3678Y286D01*
D02*
X3478Y688D02*
X3578Y589D01*
D02*
X4278Y589D02*
X4326Y688D01*
D02*
X4278Y386D02*
X4278Y589D01*
D02*
X4178Y286D02*
X4278Y386D01*
D02*
X4425Y688D02*
X4417Y697D01*
D02*
X4326Y688D02*
X4425Y688D01*
D02*
X4178Y286D02*
X3726Y286D01*
D02*
X3726Y286D02*
X3717Y278D01*
D02*
X3678Y286D02*
X3726Y286D01*
D02*
X1925Y386D02*
X2028Y286D01*
D02*
X2028Y286D02*
X2076Y286D01*
D02*
X2076Y286D02*
X2066Y296D01*
D02*
X1925Y688D02*
X1925Y386D01*
D02*
X477Y287D02*
X486Y297D01*
D02*
X528Y286D02*
X477Y287D01*
D02*
X1176Y688D02*
X1185Y698D01*
D02*
X3726Y286D02*
X3716Y296D01*
D02*
X2076Y286D02*
X2067Y277D01*
D02*
X1176Y688D02*
X1187Y678D01*
D02*
X477Y287D02*
X486Y278D01*
D02*
X4425Y688D02*
X4416Y679D01*
D02*
X2398Y337D02*
X2156Y337D01*
D02*
X2398Y237D02*
X2156Y237D01*
G36*
X40Y944D02*
X40Y794D01*
X4490Y794D01*
X4490Y792D01*
X4496Y792D01*
X4496Y790D01*
X4502Y790D01*
X4502Y788D01*
X4506Y788D01*
X4506Y786D01*
X4508Y786D01*
X4508Y784D01*
X4510Y784D01*
X4510Y782D01*
X4514Y782D01*
X4514Y780D01*
X4516Y780D01*
X4516Y778D01*
X4518Y778D01*
X4518Y776D01*
X4520Y776D01*
X4520Y774D01*
X4522Y774D01*
X4522Y770D01*
X4524Y770D01*
X4524Y768D01*
X4526Y768D01*
X4526Y764D01*
X4528Y764D01*
X4528Y762D01*
X4530Y762D01*
X4530Y756D01*
X4532Y756D01*
X4532Y748D01*
X4534Y748D01*
X4534Y726D01*
X4532Y726D01*
X4532Y718D01*
X4530Y718D01*
X4530Y712D01*
X4528Y712D01*
X4528Y708D01*
X4526Y708D01*
X4526Y706D01*
X4524Y706D01*
X4524Y702D01*
X4522Y702D01*
X4522Y700D01*
X4520Y700D01*
X4520Y698D01*
X4518Y698D01*
X4518Y676D01*
X4520Y676D01*
X4520Y674D01*
X4522Y674D01*
X4522Y670D01*
X4524Y670D01*
X4524Y668D01*
X4526Y668D01*
X4526Y664D01*
X4528Y664D01*
X4528Y662D01*
X4530Y662D01*
X4530Y656D01*
X4532Y656D01*
X4532Y648D01*
X4534Y648D01*
X4534Y626D01*
X4532Y626D01*
X4532Y618D01*
X4530Y618D01*
X4530Y612D01*
X4528Y612D01*
X4528Y608D01*
X4526Y608D01*
X4526Y606D01*
X4524Y606D01*
X4524Y602D01*
X4522Y602D01*
X4522Y600D01*
X4520Y600D01*
X4520Y598D01*
X4518Y598D01*
X4518Y596D01*
X4516Y596D01*
X4516Y594D01*
X4514Y594D01*
X4514Y592D01*
X4512Y592D01*
X4512Y590D01*
X4508Y590D01*
X4508Y588D01*
X4506Y588D01*
X4506Y586D01*
X4502Y586D01*
X4502Y584D01*
X4498Y584D01*
X4498Y582D01*
X4490Y582D01*
X4490Y580D01*
X4880Y580D01*
X4880Y944D01*
X40Y944D01*
G37*
D02*
G36*
X40Y794D02*
X40Y394D01*
X440Y394D01*
X440Y392D01*
X446Y392D01*
X446Y390D01*
X452Y390D01*
X452Y388D01*
X456Y388D01*
X456Y386D01*
X458Y386D01*
X458Y384D01*
X460Y384D01*
X460Y382D01*
X464Y382D01*
X464Y380D01*
X504Y380D01*
X504Y382D01*
X506Y382D01*
X506Y384D01*
X508Y384D01*
X508Y386D01*
X510Y386D01*
X510Y388D01*
X512Y388D01*
X512Y390D01*
X514Y390D01*
X514Y392D01*
X516Y392D01*
X516Y394D01*
X518Y394D01*
X518Y396D01*
X520Y396D01*
X520Y398D01*
X522Y398D01*
X522Y400D01*
X524Y400D01*
X524Y402D01*
X526Y402D01*
X526Y404D01*
X528Y404D01*
X528Y406D01*
X530Y406D01*
X530Y408D01*
X532Y408D01*
X532Y410D01*
X534Y410D01*
X534Y412D01*
X536Y412D01*
X536Y414D01*
X538Y414D01*
X538Y416D01*
X540Y416D01*
X540Y418D01*
X542Y418D01*
X542Y420D01*
X544Y420D01*
X544Y602D01*
X546Y602D01*
X546Y612D01*
X548Y612D01*
X548Y618D01*
X550Y618D01*
X550Y622D01*
X552Y622D01*
X552Y626D01*
X554Y626D01*
X554Y630D01*
X556Y630D01*
X556Y634D01*
X558Y634D01*
X558Y636D01*
X560Y636D01*
X560Y640D01*
X562Y640D01*
X562Y642D01*
X564Y642D01*
X564Y644D01*
X566Y644D01*
X566Y646D01*
X568Y646D01*
X568Y648D01*
X570Y648D01*
X570Y650D01*
X572Y650D01*
X572Y652D01*
X574Y652D01*
X574Y654D01*
X576Y654D01*
X576Y656D01*
X578Y656D01*
X578Y658D01*
X580Y658D01*
X580Y660D01*
X582Y660D01*
X582Y662D01*
X584Y662D01*
X584Y664D01*
X586Y664D01*
X586Y666D01*
X588Y666D01*
X588Y668D01*
X590Y668D01*
X590Y670D01*
X592Y670D01*
X592Y672D01*
X594Y672D01*
X594Y674D01*
X596Y674D01*
X596Y676D01*
X598Y676D01*
X598Y678D01*
X600Y678D01*
X600Y680D01*
X602Y680D01*
X602Y682D01*
X604Y682D01*
X604Y684D01*
X606Y684D01*
X606Y686D01*
X608Y686D01*
X608Y688D01*
X610Y688D01*
X610Y690D01*
X612Y690D01*
X612Y692D01*
X614Y692D01*
X614Y694D01*
X616Y694D01*
X616Y696D01*
X618Y696D01*
X618Y698D01*
X620Y698D01*
X620Y700D01*
X622Y700D01*
X622Y702D01*
X624Y702D01*
X624Y704D01*
X626Y704D01*
X626Y706D01*
X628Y706D01*
X628Y708D01*
X630Y708D01*
X630Y710D01*
X632Y710D01*
X632Y712D01*
X634Y712D01*
X634Y714D01*
X636Y714D01*
X636Y716D01*
X638Y716D01*
X638Y718D01*
X640Y718D01*
X640Y720D01*
X642Y720D01*
X642Y722D01*
X644Y722D01*
X644Y724D01*
X646Y724D01*
X646Y726D01*
X648Y726D01*
X648Y728D01*
X650Y728D01*
X650Y730D01*
X652Y730D01*
X652Y732D01*
X654Y732D01*
X654Y734D01*
X656Y734D01*
X656Y736D01*
X658Y736D01*
X658Y738D01*
X660Y738D01*
X660Y740D01*
X662Y740D01*
X662Y742D01*
X664Y742D01*
X664Y744D01*
X666Y744D01*
X666Y746D01*
X668Y746D01*
X668Y748D01*
X670Y748D01*
X670Y750D01*
X672Y750D01*
X672Y752D01*
X674Y752D01*
X674Y754D01*
X676Y754D01*
X676Y756D01*
X680Y756D01*
X680Y758D01*
X682Y758D01*
X682Y760D01*
X686Y760D01*
X686Y762D01*
X690Y762D01*
X690Y764D01*
X694Y764D01*
X694Y766D01*
X698Y766D01*
X698Y768D01*
X706Y768D01*
X706Y770D01*
X714Y770D01*
X714Y772D01*
X1082Y772D01*
X1082Y774D01*
X1084Y774D01*
X1084Y776D01*
X1086Y776D01*
X1086Y778D01*
X1088Y778D01*
X1088Y780D01*
X1090Y780D01*
X1090Y782D01*
X1092Y782D01*
X1092Y784D01*
X1096Y784D01*
X1096Y786D01*
X1098Y786D01*
X1098Y788D01*
X1102Y788D01*
X1102Y790D01*
X1106Y790D01*
X1106Y792D01*
X1114Y792D01*
X1114Y794D01*
X40Y794D01*
G37*
D02*
G36*
X1140Y794D02*
X1140Y792D01*
X1146Y792D01*
X1146Y790D01*
X1152Y790D01*
X1152Y788D01*
X1156Y788D01*
X1156Y786D01*
X1158Y786D01*
X1158Y784D01*
X1160Y784D01*
X1160Y782D01*
X1196Y782D01*
X1196Y780D01*
X1206Y780D01*
X1206Y778D01*
X1212Y778D01*
X1212Y776D01*
X1218Y776D01*
X1218Y774D01*
X1222Y774D01*
X1222Y772D01*
X3492Y772D01*
X3492Y770D01*
X3500Y770D01*
X3500Y768D01*
X3506Y768D01*
X3506Y766D01*
X3512Y766D01*
X3512Y764D01*
X3516Y764D01*
X3516Y762D01*
X3520Y762D01*
X3520Y760D01*
X3524Y760D01*
X3524Y758D01*
X3526Y758D01*
X3526Y756D01*
X3528Y756D01*
X3528Y754D01*
X3532Y754D01*
X3532Y752D01*
X3534Y752D01*
X3534Y750D01*
X3536Y750D01*
X3536Y748D01*
X3538Y748D01*
X3538Y746D01*
X3540Y746D01*
X3540Y744D01*
X3542Y744D01*
X3542Y742D01*
X3544Y742D01*
X3544Y740D01*
X3546Y740D01*
X3546Y738D01*
X3548Y738D01*
X3548Y736D01*
X3550Y736D01*
X3550Y734D01*
X3552Y734D01*
X3552Y732D01*
X3554Y732D01*
X3554Y730D01*
X3556Y730D01*
X3556Y728D01*
X3558Y728D01*
X3558Y726D01*
X3560Y726D01*
X3560Y724D01*
X3562Y724D01*
X3562Y722D01*
X3564Y722D01*
X3564Y720D01*
X3566Y720D01*
X3566Y718D01*
X3568Y718D01*
X3568Y716D01*
X3570Y716D01*
X3570Y714D01*
X3572Y714D01*
X3572Y712D01*
X3574Y712D01*
X3574Y710D01*
X3576Y710D01*
X3576Y708D01*
X3578Y708D01*
X3578Y706D01*
X3580Y706D01*
X3580Y704D01*
X3582Y704D01*
X3582Y702D01*
X3584Y702D01*
X3584Y700D01*
X3586Y700D01*
X3586Y698D01*
X3588Y698D01*
X3588Y696D01*
X3590Y696D01*
X3590Y694D01*
X3592Y694D01*
X3592Y692D01*
X3594Y692D01*
X3594Y690D01*
X3596Y690D01*
X3596Y688D01*
X3598Y688D01*
X3598Y686D01*
X3600Y686D01*
X3600Y684D01*
X3602Y684D01*
X3602Y682D01*
X3604Y682D01*
X3604Y680D01*
X3606Y680D01*
X3606Y678D01*
X3608Y678D01*
X3608Y676D01*
X3610Y676D01*
X3610Y674D01*
X3612Y674D01*
X3612Y672D01*
X3614Y672D01*
X3614Y670D01*
X3616Y670D01*
X3616Y668D01*
X3618Y668D01*
X3618Y666D01*
X3620Y666D01*
X3620Y664D01*
X3622Y664D01*
X3622Y662D01*
X3624Y662D01*
X3624Y660D01*
X3626Y660D01*
X3626Y658D01*
X3628Y658D01*
X3628Y656D01*
X3630Y656D01*
X3630Y654D01*
X3632Y654D01*
X3632Y652D01*
X3634Y652D01*
X3634Y650D01*
X3636Y650D01*
X3636Y648D01*
X3638Y648D01*
X3638Y646D01*
X3640Y646D01*
X3640Y644D01*
X3642Y644D01*
X3642Y642D01*
X3644Y642D01*
X3644Y638D01*
X3646Y638D01*
X3646Y636D01*
X3648Y636D01*
X3648Y634D01*
X3650Y634D01*
X3650Y630D01*
X3652Y630D01*
X3652Y626D01*
X3654Y626D01*
X3654Y622D01*
X3656Y622D01*
X3656Y616D01*
X3658Y616D01*
X3658Y610D01*
X3660Y610D01*
X3660Y600D01*
X3662Y600D01*
X3662Y420D01*
X3664Y420D01*
X3664Y418D01*
X3666Y418D01*
X3666Y416D01*
X3668Y416D01*
X3668Y414D01*
X3670Y414D01*
X3670Y412D01*
X3672Y412D01*
X3672Y410D01*
X3674Y410D01*
X3674Y408D01*
X3676Y408D01*
X3676Y406D01*
X3678Y406D01*
X3678Y404D01*
X3680Y404D01*
X3680Y402D01*
X3682Y402D01*
X3682Y400D01*
X3684Y400D01*
X3684Y398D01*
X3686Y398D01*
X3686Y396D01*
X3688Y396D01*
X3688Y394D01*
X3790Y394D01*
X3790Y392D01*
X3796Y392D01*
X3796Y390D01*
X3802Y390D01*
X3802Y388D01*
X3806Y388D01*
X3806Y386D01*
X3808Y386D01*
X3808Y384D01*
X3810Y384D01*
X3810Y382D01*
X3814Y382D01*
X3814Y380D01*
X3816Y380D01*
X3816Y378D01*
X3818Y378D01*
X3818Y376D01*
X3820Y376D01*
X3820Y374D01*
X3822Y374D01*
X3822Y370D01*
X4144Y370D01*
X4144Y372D01*
X4146Y372D01*
X4146Y374D01*
X4148Y374D01*
X4148Y376D01*
X4150Y376D01*
X4150Y378D01*
X4152Y378D01*
X4152Y380D01*
X4154Y380D01*
X4154Y382D01*
X4156Y382D01*
X4156Y384D01*
X4158Y384D01*
X4158Y386D01*
X4160Y386D01*
X4160Y388D01*
X4162Y388D01*
X4162Y390D01*
X4164Y390D01*
X4164Y392D01*
X4166Y392D01*
X4166Y394D01*
X4168Y394D01*
X4168Y396D01*
X4170Y396D01*
X4170Y398D01*
X4172Y398D01*
X4172Y400D01*
X4174Y400D01*
X4174Y402D01*
X4176Y402D01*
X4176Y404D01*
X4178Y404D01*
X4178Y406D01*
X4180Y406D01*
X4180Y408D01*
X4182Y408D01*
X4182Y410D01*
X4184Y410D01*
X4184Y412D01*
X4186Y412D01*
X4186Y414D01*
X4188Y414D01*
X4188Y416D01*
X4190Y416D01*
X4190Y418D01*
X4192Y418D01*
X4192Y420D01*
X4194Y420D01*
X4194Y602D01*
X4196Y602D01*
X4196Y612D01*
X4198Y612D01*
X4198Y618D01*
X4200Y618D01*
X4200Y622D01*
X4202Y622D01*
X4202Y626D01*
X4204Y626D01*
X4204Y630D01*
X4206Y630D01*
X4206Y634D01*
X4208Y634D01*
X4208Y640D01*
X4210Y640D01*
X4210Y644D01*
X4212Y644D01*
X4212Y648D01*
X4214Y648D01*
X4214Y652D01*
X4216Y652D01*
X4216Y656D01*
X4218Y656D01*
X4218Y660D01*
X4220Y660D01*
X4220Y664D01*
X4222Y664D01*
X4222Y668D01*
X4224Y668D01*
X4224Y672D01*
X4226Y672D01*
X4226Y676D01*
X4228Y676D01*
X4228Y680D01*
X4230Y680D01*
X4230Y684D01*
X4232Y684D01*
X4232Y688D01*
X4234Y688D01*
X4234Y694D01*
X4236Y694D01*
X4236Y698D01*
X4238Y698D01*
X4238Y702D01*
X4240Y702D01*
X4240Y706D01*
X4242Y706D01*
X4242Y710D01*
X4244Y710D01*
X4244Y714D01*
X4246Y714D01*
X4246Y718D01*
X4248Y718D01*
X4248Y722D01*
X4250Y722D01*
X4250Y726D01*
X4252Y726D01*
X4252Y730D01*
X4254Y730D01*
X4254Y734D01*
X4256Y734D01*
X4256Y736D01*
X4258Y736D01*
X4258Y738D01*
X4260Y738D01*
X4260Y742D01*
X4262Y742D01*
X4262Y744D01*
X4264Y744D01*
X4264Y746D01*
X4266Y746D01*
X4266Y748D01*
X4268Y748D01*
X4268Y750D01*
X4270Y750D01*
X4270Y752D01*
X4272Y752D01*
X4272Y754D01*
X4276Y754D01*
X4276Y756D01*
X4278Y756D01*
X4278Y758D01*
X4280Y758D01*
X4280Y760D01*
X4284Y760D01*
X4284Y762D01*
X4288Y762D01*
X4288Y764D01*
X4292Y764D01*
X4292Y766D01*
X4298Y766D01*
X4298Y768D01*
X4304Y768D01*
X4304Y770D01*
X4312Y770D01*
X4312Y772D01*
X4382Y772D01*
X4382Y774D01*
X4388Y774D01*
X4388Y776D01*
X4392Y776D01*
X4392Y778D01*
X4402Y778D01*
X4402Y780D01*
X4440Y780D01*
X4440Y782D01*
X4442Y782D01*
X4442Y784D01*
X4446Y784D01*
X4446Y786D01*
X4448Y786D01*
X4448Y788D01*
X4452Y788D01*
X4452Y790D01*
X4456Y790D01*
X4456Y792D01*
X4464Y792D01*
X4464Y794D01*
X1140Y794D01*
G37*
D02*
G36*
X762Y604D02*
X762Y602D01*
X760Y602D01*
X760Y600D01*
X758Y600D01*
X758Y598D01*
X756Y598D01*
X756Y596D01*
X754Y596D01*
X754Y594D01*
X752Y594D01*
X752Y592D01*
X750Y592D01*
X750Y590D01*
X748Y590D01*
X748Y588D01*
X746Y588D01*
X746Y586D01*
X744Y586D01*
X744Y584D01*
X742Y584D01*
X742Y582D01*
X740Y582D01*
X740Y580D01*
X1114Y580D01*
X1114Y582D01*
X1106Y582D01*
X1106Y584D01*
X1102Y584D01*
X1102Y586D01*
X1098Y586D01*
X1098Y588D01*
X1094Y588D01*
X1094Y590D01*
X1092Y590D01*
X1092Y592D01*
X1090Y592D01*
X1090Y594D01*
X1088Y594D01*
X1088Y596D01*
X1086Y596D01*
X1086Y598D01*
X1084Y598D01*
X1084Y600D01*
X1082Y600D01*
X1082Y602D01*
X1080Y602D01*
X1080Y604D01*
X762Y604D01*
G37*
D02*
G36*
X1226Y604D02*
X1226Y602D01*
X1222Y602D01*
X1222Y600D01*
X1216Y600D01*
X1216Y598D01*
X1210Y598D01*
X1210Y596D01*
X1202Y596D01*
X1202Y594D01*
X1164Y594D01*
X1164Y592D01*
X1162Y592D01*
X1162Y590D01*
X1158Y590D01*
X1158Y588D01*
X1156Y588D01*
X1156Y586D01*
X1152Y586D01*
X1152Y584D01*
X1148Y584D01*
X1148Y582D01*
X1140Y582D01*
X1140Y580D01*
X1840Y580D01*
X1840Y604D01*
X1226Y604D01*
G37*
D02*
G36*
X2008Y604D02*
X2008Y422D01*
X2010Y422D01*
X2010Y420D01*
X2416Y420D01*
X2416Y418D01*
X2424Y418D01*
X2424Y416D01*
X2428Y416D01*
X2428Y414D01*
X2434Y414D01*
X2434Y412D01*
X2438Y412D01*
X2438Y410D01*
X2440Y410D01*
X2440Y408D01*
X2444Y408D01*
X2444Y406D01*
X2446Y406D01*
X2446Y404D01*
X2450Y404D01*
X2450Y402D01*
X2452Y402D01*
X2452Y400D01*
X2454Y400D01*
X2454Y398D01*
X2456Y398D01*
X2456Y396D01*
X2458Y396D01*
X2458Y394D01*
X2460Y394D01*
X2460Y392D01*
X2462Y392D01*
X2462Y390D01*
X2464Y390D01*
X2464Y388D01*
X2466Y388D01*
X2466Y384D01*
X2468Y384D01*
X2468Y382D01*
X2470Y382D01*
X2470Y378D01*
X2472Y378D01*
X2472Y374D01*
X2474Y374D01*
X2474Y370D01*
X2476Y370D01*
X2476Y364D01*
X2478Y364D01*
X2478Y362D01*
X2480Y362D01*
X2480Y356D01*
X2482Y356D01*
X2482Y348D01*
X2484Y348D01*
X2484Y326D01*
X2482Y326D01*
X2482Y318D01*
X2480Y318D01*
X2480Y312D01*
X2478Y312D01*
X2478Y308D01*
X2476Y308D01*
X2476Y304D01*
X2474Y304D01*
X2474Y300D01*
X2472Y300D01*
X2472Y274D01*
X2474Y274D01*
X2474Y270D01*
X2476Y270D01*
X2476Y264D01*
X2478Y264D01*
X2478Y262D01*
X2480Y262D01*
X2480Y256D01*
X2482Y256D01*
X2482Y248D01*
X2484Y248D01*
X2484Y226D01*
X2482Y226D01*
X2482Y218D01*
X2480Y218D01*
X2480Y212D01*
X2478Y212D01*
X2478Y208D01*
X2476Y208D01*
X2476Y204D01*
X2474Y204D01*
X2474Y200D01*
X2472Y200D01*
X2472Y196D01*
X2470Y196D01*
X2470Y192D01*
X2468Y192D01*
X2468Y190D01*
X2466Y190D01*
X2466Y186D01*
X2464Y186D01*
X2464Y184D01*
X2462Y184D01*
X2462Y182D01*
X2460Y182D01*
X2460Y180D01*
X3764Y180D01*
X3764Y182D01*
X3756Y182D01*
X3756Y184D01*
X3752Y184D01*
X3752Y186D01*
X3748Y186D01*
X3748Y188D01*
X3744Y188D01*
X3744Y190D01*
X3742Y190D01*
X3742Y192D01*
X3740Y192D01*
X3740Y194D01*
X3700Y194D01*
X3700Y196D01*
X3692Y196D01*
X3692Y198D01*
X3686Y198D01*
X3686Y200D01*
X3682Y200D01*
X3682Y202D01*
X3664Y202D01*
X3664Y204D01*
X3656Y204D01*
X3656Y206D01*
X3648Y206D01*
X3648Y208D01*
X3644Y208D01*
X3644Y210D01*
X3640Y210D01*
X3640Y212D01*
X3636Y212D01*
X3636Y214D01*
X3632Y214D01*
X3632Y216D01*
X3630Y216D01*
X3630Y218D01*
X3626Y218D01*
X3626Y220D01*
X3624Y220D01*
X3624Y222D01*
X3622Y222D01*
X3622Y224D01*
X3620Y224D01*
X3620Y226D01*
X3618Y226D01*
X3618Y228D01*
X3616Y228D01*
X3616Y230D01*
X3614Y230D01*
X3614Y232D01*
X3612Y232D01*
X3612Y234D01*
X3610Y234D01*
X3610Y236D01*
X3608Y236D01*
X3608Y238D01*
X3606Y238D01*
X3606Y240D01*
X3604Y240D01*
X3604Y242D01*
X3602Y242D01*
X3602Y244D01*
X3600Y244D01*
X3600Y246D01*
X3598Y246D01*
X3598Y248D01*
X3596Y248D01*
X3596Y250D01*
X3594Y250D01*
X3594Y252D01*
X3592Y252D01*
X3592Y254D01*
X3590Y254D01*
X3590Y256D01*
X3588Y256D01*
X3588Y258D01*
X3586Y258D01*
X3586Y260D01*
X3584Y260D01*
X3584Y262D01*
X3582Y262D01*
X3582Y264D01*
X3580Y264D01*
X3580Y266D01*
X3578Y266D01*
X3578Y268D01*
X3576Y268D01*
X3576Y270D01*
X3574Y270D01*
X3574Y272D01*
X3572Y272D01*
X3572Y274D01*
X3570Y274D01*
X3570Y276D01*
X3568Y276D01*
X3568Y278D01*
X3566Y278D01*
X3566Y280D01*
X3564Y280D01*
X3564Y282D01*
X3562Y282D01*
X3562Y284D01*
X3560Y284D01*
X3560Y286D01*
X3558Y286D01*
X3558Y288D01*
X3556Y288D01*
X3556Y290D01*
X3554Y290D01*
X3554Y292D01*
X3552Y292D01*
X3552Y294D01*
X3550Y294D01*
X3550Y296D01*
X3548Y296D01*
X3548Y298D01*
X3546Y298D01*
X3546Y300D01*
X3544Y300D01*
X3544Y302D01*
X3542Y302D01*
X3542Y304D01*
X3540Y304D01*
X3540Y306D01*
X3538Y306D01*
X3538Y308D01*
X3536Y308D01*
X3536Y310D01*
X3534Y310D01*
X3534Y312D01*
X3532Y312D01*
X3532Y314D01*
X3530Y314D01*
X3530Y316D01*
X3528Y316D01*
X3528Y318D01*
X3526Y318D01*
X3526Y320D01*
X3524Y320D01*
X3524Y322D01*
X3522Y322D01*
X3522Y324D01*
X3520Y324D01*
X3520Y326D01*
X3518Y326D01*
X3518Y328D01*
X3516Y328D01*
X3516Y330D01*
X3514Y330D01*
X3514Y332D01*
X3512Y332D01*
X3512Y334D01*
X3510Y334D01*
X3510Y338D01*
X3508Y338D01*
X3508Y340D01*
X3506Y340D01*
X3506Y344D01*
X3504Y344D01*
X3504Y348D01*
X3502Y348D01*
X3502Y352D01*
X3500Y352D01*
X3500Y356D01*
X3498Y356D01*
X3498Y364D01*
X3496Y364D01*
X3496Y372D01*
X3494Y372D01*
X3494Y554D01*
X3492Y554D01*
X3492Y556D01*
X3490Y556D01*
X3490Y558D01*
X3488Y558D01*
X3488Y560D01*
X3486Y560D01*
X3486Y562D01*
X3484Y562D01*
X3484Y564D01*
X3482Y564D01*
X3482Y566D01*
X3480Y566D01*
X3480Y568D01*
X3478Y568D01*
X3478Y570D01*
X3476Y570D01*
X3476Y572D01*
X3474Y572D01*
X3474Y574D01*
X3472Y574D01*
X3472Y576D01*
X3470Y576D01*
X3470Y578D01*
X3468Y578D01*
X3468Y580D01*
X3466Y580D01*
X3466Y582D01*
X3464Y582D01*
X3464Y584D01*
X3462Y584D01*
X3462Y586D01*
X3460Y586D01*
X3460Y588D01*
X3458Y588D01*
X3458Y590D01*
X3456Y590D01*
X3456Y592D01*
X3454Y592D01*
X3454Y594D01*
X3452Y594D01*
X3452Y596D01*
X3450Y596D01*
X3450Y598D01*
X3448Y598D01*
X3448Y600D01*
X3446Y600D01*
X3446Y602D01*
X3444Y602D01*
X3444Y604D01*
X2008Y604D01*
G37*
D02*
G36*
X4376Y598D02*
X4376Y596D01*
X4374Y596D01*
X4374Y592D01*
X4372Y592D01*
X4372Y588D01*
X4370Y588D01*
X4370Y584D01*
X4368Y584D01*
X4368Y580D01*
X4464Y580D01*
X4464Y582D01*
X4456Y582D01*
X4456Y584D01*
X4452Y584D01*
X4452Y586D01*
X4448Y586D01*
X4448Y588D01*
X4444Y588D01*
X4444Y590D01*
X4442Y590D01*
X4442Y592D01*
X4440Y592D01*
X4440Y594D01*
X4410Y594D01*
X4410Y596D01*
X4396Y596D01*
X4396Y598D01*
X4376Y598D01*
G37*
D02*
G36*
X738Y580D02*
X738Y578D01*
X1840Y578D01*
X1840Y580D01*
X738Y580D01*
G37*
D02*
G36*
X738Y580D02*
X738Y578D01*
X1840Y578D01*
X1840Y580D01*
X738Y580D01*
G37*
D02*
G36*
X4366Y580D02*
X4366Y578D01*
X4880Y578D01*
X4880Y580D01*
X4366Y580D01*
G37*
D02*
G36*
X4366Y580D02*
X4366Y578D01*
X4880Y578D01*
X4880Y580D01*
X4366Y580D01*
G37*
D02*
G36*
X736Y578D02*
X736Y576D01*
X734Y576D01*
X734Y574D01*
X732Y574D01*
X732Y572D01*
X730Y572D01*
X730Y570D01*
X728Y570D01*
X728Y568D01*
X726Y568D01*
X726Y566D01*
X724Y566D01*
X724Y564D01*
X722Y564D01*
X722Y562D01*
X720Y562D01*
X720Y560D01*
X718Y560D01*
X718Y558D01*
X716Y558D01*
X716Y556D01*
X714Y556D01*
X714Y554D01*
X712Y554D01*
X712Y374D01*
X710Y374D01*
X710Y364D01*
X708Y364D01*
X708Y358D01*
X706Y358D01*
X706Y352D01*
X704Y352D01*
X704Y348D01*
X702Y348D01*
X702Y344D01*
X700Y344D01*
X700Y342D01*
X698Y342D01*
X698Y338D01*
X696Y338D01*
X696Y336D01*
X694Y336D01*
X694Y332D01*
X692Y332D01*
X692Y330D01*
X690Y330D01*
X690Y328D01*
X688Y328D01*
X688Y326D01*
X686Y326D01*
X686Y324D01*
X684Y324D01*
X684Y322D01*
X682Y322D01*
X682Y320D01*
X680Y320D01*
X680Y318D01*
X678Y318D01*
X678Y316D01*
X676Y316D01*
X676Y314D01*
X674Y314D01*
X674Y312D01*
X672Y312D01*
X672Y310D01*
X670Y310D01*
X670Y308D01*
X668Y308D01*
X668Y306D01*
X666Y306D01*
X666Y304D01*
X664Y304D01*
X664Y302D01*
X662Y302D01*
X662Y300D01*
X660Y300D01*
X660Y298D01*
X658Y298D01*
X658Y296D01*
X656Y296D01*
X656Y294D01*
X654Y294D01*
X654Y292D01*
X652Y292D01*
X652Y290D01*
X650Y290D01*
X650Y288D01*
X648Y288D01*
X648Y286D01*
X646Y286D01*
X646Y284D01*
X644Y284D01*
X644Y282D01*
X642Y282D01*
X642Y280D01*
X640Y280D01*
X640Y278D01*
X638Y278D01*
X638Y276D01*
X636Y276D01*
X636Y274D01*
X634Y274D01*
X634Y272D01*
X632Y272D01*
X632Y270D01*
X630Y270D01*
X630Y268D01*
X628Y268D01*
X628Y266D01*
X626Y266D01*
X626Y264D01*
X624Y264D01*
X624Y262D01*
X622Y262D01*
X622Y260D01*
X620Y260D01*
X620Y258D01*
X618Y258D01*
X618Y256D01*
X616Y256D01*
X616Y254D01*
X614Y254D01*
X614Y252D01*
X612Y252D01*
X612Y250D01*
X610Y250D01*
X610Y248D01*
X608Y248D01*
X608Y246D01*
X606Y246D01*
X606Y244D01*
X604Y244D01*
X604Y242D01*
X602Y242D01*
X602Y240D01*
X600Y240D01*
X600Y238D01*
X598Y238D01*
X598Y236D01*
X596Y236D01*
X596Y234D01*
X594Y234D01*
X594Y232D01*
X592Y232D01*
X592Y230D01*
X590Y230D01*
X590Y228D01*
X588Y228D01*
X588Y226D01*
X586Y226D01*
X586Y224D01*
X584Y224D01*
X584Y222D01*
X582Y222D01*
X582Y220D01*
X578Y220D01*
X578Y218D01*
X576Y218D01*
X576Y216D01*
X574Y216D01*
X574Y214D01*
X570Y214D01*
X570Y212D01*
X566Y212D01*
X566Y210D01*
X562Y210D01*
X562Y208D01*
X556Y208D01*
X556Y206D01*
X550Y206D01*
X550Y204D01*
X542Y204D01*
X542Y202D01*
X522Y202D01*
X522Y200D01*
X516Y200D01*
X516Y198D01*
X512Y198D01*
X512Y196D01*
X504Y196D01*
X504Y194D01*
X464Y194D01*
X464Y192D01*
X462Y192D01*
X462Y190D01*
X458Y190D01*
X458Y188D01*
X456Y188D01*
X456Y186D01*
X452Y186D01*
X452Y184D01*
X448Y184D01*
X448Y182D01*
X440Y182D01*
X440Y180D01*
X2092Y180D01*
X2092Y184D01*
X2090Y184D01*
X2090Y186D01*
X2088Y186D01*
X2088Y188D01*
X2086Y188D01*
X2086Y192D01*
X2066Y192D01*
X2066Y194D01*
X2050Y194D01*
X2050Y196D01*
X2042Y196D01*
X2042Y198D01*
X2036Y198D01*
X2036Y200D01*
X2032Y200D01*
X2032Y202D01*
X2014Y202D01*
X2014Y204D01*
X2006Y204D01*
X2006Y206D01*
X2000Y206D01*
X2000Y208D01*
X1994Y208D01*
X1994Y210D01*
X1990Y210D01*
X1990Y212D01*
X1986Y212D01*
X1986Y214D01*
X1984Y214D01*
X1984Y216D01*
X1980Y216D01*
X1980Y218D01*
X1978Y218D01*
X1978Y220D01*
X1974Y220D01*
X1974Y222D01*
X1972Y222D01*
X1972Y224D01*
X1970Y224D01*
X1970Y226D01*
X1968Y226D01*
X1968Y228D01*
X1966Y228D01*
X1966Y230D01*
X1964Y230D01*
X1964Y232D01*
X1962Y232D01*
X1962Y234D01*
X1960Y234D01*
X1960Y236D01*
X1958Y236D01*
X1958Y238D01*
X1956Y238D01*
X1956Y240D01*
X1954Y240D01*
X1954Y242D01*
X1952Y242D01*
X1952Y244D01*
X1950Y244D01*
X1950Y246D01*
X1948Y246D01*
X1948Y248D01*
X1946Y248D01*
X1946Y250D01*
X1944Y250D01*
X1944Y252D01*
X1942Y252D01*
X1942Y254D01*
X1940Y254D01*
X1940Y256D01*
X1938Y256D01*
X1938Y258D01*
X1936Y258D01*
X1936Y260D01*
X1934Y260D01*
X1934Y262D01*
X1930Y262D01*
X1930Y264D01*
X1928Y264D01*
X1928Y266D01*
X1926Y266D01*
X1926Y268D01*
X1924Y268D01*
X1924Y270D01*
X1922Y270D01*
X1922Y272D01*
X1920Y272D01*
X1920Y274D01*
X1918Y274D01*
X1918Y276D01*
X1916Y276D01*
X1916Y278D01*
X1914Y278D01*
X1914Y280D01*
X1912Y280D01*
X1912Y282D01*
X1910Y282D01*
X1910Y284D01*
X1908Y284D01*
X1908Y286D01*
X1906Y286D01*
X1906Y288D01*
X1904Y288D01*
X1904Y290D01*
X1902Y290D01*
X1902Y292D01*
X1900Y292D01*
X1900Y294D01*
X1898Y294D01*
X1898Y296D01*
X1896Y296D01*
X1896Y298D01*
X1894Y298D01*
X1894Y300D01*
X1892Y300D01*
X1892Y302D01*
X1890Y302D01*
X1890Y304D01*
X1888Y304D01*
X1888Y306D01*
X1886Y306D01*
X1886Y308D01*
X1884Y308D01*
X1884Y310D01*
X1882Y310D01*
X1882Y312D01*
X1880Y312D01*
X1880Y314D01*
X1878Y314D01*
X1878Y316D01*
X1874Y316D01*
X1874Y318D01*
X1872Y318D01*
X1872Y320D01*
X1870Y320D01*
X1870Y322D01*
X1868Y322D01*
X1868Y324D01*
X1866Y324D01*
X1866Y326D01*
X1864Y326D01*
X1864Y328D01*
X1862Y328D01*
X1862Y332D01*
X1860Y332D01*
X1860Y334D01*
X1858Y334D01*
X1858Y336D01*
X1856Y336D01*
X1856Y338D01*
X1854Y338D01*
X1854Y342D01*
X1852Y342D01*
X1852Y346D01*
X1850Y346D01*
X1850Y350D01*
X1848Y350D01*
X1848Y354D01*
X1846Y354D01*
X1846Y360D01*
X1844Y360D01*
X1844Y368D01*
X1842Y368D01*
X1842Y382D01*
X1840Y382D01*
X1840Y578D01*
X736Y578D01*
G37*
D02*
G36*
X4366Y578D02*
X4366Y576D01*
X4364Y576D01*
X4364Y572D01*
X4362Y572D01*
X4362Y374D01*
X4360Y374D01*
X4360Y364D01*
X4358Y364D01*
X4358Y358D01*
X4356Y358D01*
X4356Y352D01*
X4354Y352D01*
X4354Y348D01*
X4352Y348D01*
X4352Y344D01*
X4350Y344D01*
X4350Y340D01*
X4348Y340D01*
X4348Y338D01*
X4346Y338D01*
X4346Y336D01*
X4344Y336D01*
X4344Y332D01*
X4342Y332D01*
X4342Y330D01*
X4340Y330D01*
X4340Y328D01*
X4338Y328D01*
X4338Y326D01*
X4336Y326D01*
X4336Y324D01*
X4334Y324D01*
X4334Y322D01*
X4332Y322D01*
X4332Y320D01*
X4330Y320D01*
X4330Y318D01*
X4328Y318D01*
X4328Y316D01*
X4326Y316D01*
X4326Y314D01*
X4324Y314D01*
X4324Y312D01*
X4322Y312D01*
X4322Y310D01*
X4320Y310D01*
X4320Y308D01*
X4318Y308D01*
X4318Y306D01*
X4316Y306D01*
X4316Y304D01*
X4314Y304D01*
X4314Y302D01*
X4312Y302D01*
X4312Y300D01*
X4310Y300D01*
X4310Y298D01*
X4308Y298D01*
X4308Y296D01*
X4306Y296D01*
X4306Y294D01*
X4304Y294D01*
X4304Y292D01*
X4302Y292D01*
X4302Y290D01*
X4300Y290D01*
X4300Y288D01*
X4298Y288D01*
X4298Y286D01*
X4296Y286D01*
X4296Y284D01*
X4294Y284D01*
X4294Y282D01*
X4292Y282D01*
X4292Y280D01*
X4290Y280D01*
X4290Y278D01*
X4288Y278D01*
X4288Y276D01*
X4286Y276D01*
X4286Y274D01*
X4284Y274D01*
X4284Y272D01*
X4282Y272D01*
X4282Y270D01*
X4280Y270D01*
X4280Y268D01*
X4278Y268D01*
X4278Y266D01*
X4276Y266D01*
X4276Y264D01*
X4274Y264D01*
X4274Y262D01*
X4272Y262D01*
X4272Y260D01*
X4270Y260D01*
X4270Y258D01*
X4268Y258D01*
X4268Y256D01*
X4266Y256D01*
X4266Y254D01*
X4264Y254D01*
X4264Y252D01*
X4262Y252D01*
X4262Y250D01*
X4260Y250D01*
X4260Y248D01*
X4258Y248D01*
X4258Y246D01*
X4256Y246D01*
X4256Y244D01*
X4254Y244D01*
X4254Y242D01*
X4252Y242D01*
X4252Y240D01*
X4250Y240D01*
X4250Y238D01*
X4248Y238D01*
X4248Y236D01*
X4246Y236D01*
X4246Y234D01*
X4244Y234D01*
X4244Y232D01*
X4242Y232D01*
X4242Y230D01*
X4240Y230D01*
X4240Y228D01*
X4238Y228D01*
X4238Y226D01*
X4236Y226D01*
X4236Y224D01*
X4234Y224D01*
X4234Y222D01*
X4232Y222D01*
X4232Y220D01*
X4228Y220D01*
X4228Y218D01*
X4226Y218D01*
X4226Y216D01*
X4224Y216D01*
X4224Y214D01*
X4220Y214D01*
X4220Y212D01*
X4216Y212D01*
X4216Y210D01*
X4212Y210D01*
X4212Y208D01*
X4206Y208D01*
X4206Y206D01*
X4200Y206D01*
X4200Y204D01*
X4192Y204D01*
X4192Y202D01*
X3822Y202D01*
X3822Y200D01*
X3820Y200D01*
X3820Y198D01*
X3818Y198D01*
X3818Y196D01*
X3816Y196D01*
X3816Y194D01*
X3814Y194D01*
X3814Y192D01*
X3812Y192D01*
X3812Y190D01*
X3808Y190D01*
X3808Y188D01*
X3806Y188D01*
X3806Y186D01*
X3802Y186D01*
X3802Y184D01*
X3798Y184D01*
X3798Y182D01*
X3790Y182D01*
X3790Y180D01*
X4880Y180D01*
X4880Y578D01*
X4366Y578D01*
G37*
D02*
G36*
X2012Y420D02*
X2012Y418D01*
X2014Y418D01*
X2014Y416D01*
X2016Y416D01*
X2016Y414D01*
X2018Y414D01*
X2018Y412D01*
X2020Y412D01*
X2020Y410D01*
X2022Y410D01*
X2022Y408D01*
X2024Y408D01*
X2024Y406D01*
X2026Y406D01*
X2026Y404D01*
X2028Y404D01*
X2028Y402D01*
X2030Y402D01*
X2030Y400D01*
X2032Y400D01*
X2032Y398D01*
X2034Y398D01*
X2034Y396D01*
X2036Y396D01*
X2036Y394D01*
X2038Y394D01*
X2038Y392D01*
X2040Y392D01*
X2040Y390D01*
X2042Y390D01*
X2042Y388D01*
X2044Y388D01*
X2044Y386D01*
X2046Y386D01*
X2046Y384D01*
X2048Y384D01*
X2048Y382D01*
X2050Y382D01*
X2050Y380D01*
X2084Y380D01*
X2084Y382D01*
X2086Y382D01*
X2086Y386D01*
X2088Y386D01*
X2088Y388D01*
X2090Y388D01*
X2090Y390D01*
X2092Y390D01*
X2092Y392D01*
X2094Y392D01*
X2094Y396D01*
X2096Y396D01*
X2096Y398D01*
X2100Y398D01*
X2100Y400D01*
X2102Y400D01*
X2102Y402D01*
X2104Y402D01*
X2104Y404D01*
X2106Y404D01*
X2106Y406D01*
X2110Y406D01*
X2110Y408D01*
X2112Y408D01*
X2112Y410D01*
X2116Y410D01*
X2116Y412D01*
X2120Y412D01*
X2120Y414D01*
X2124Y414D01*
X2124Y416D01*
X2130Y416D01*
X2130Y418D01*
X2138Y418D01*
X2138Y420D01*
X2012Y420D01*
G37*
D02*
G36*
X40Y394D02*
X40Y180D01*
X414Y180D01*
X414Y182D01*
X406Y182D01*
X406Y184D01*
X402Y184D01*
X402Y186D01*
X398Y186D01*
X398Y188D01*
X394Y188D01*
X394Y190D01*
X392Y190D01*
X392Y192D01*
X390Y192D01*
X390Y194D01*
X388Y194D01*
X388Y196D01*
X386Y196D01*
X386Y198D01*
X384Y198D01*
X384Y200D01*
X382Y200D01*
X382Y202D01*
X380Y202D01*
X380Y204D01*
X378Y204D01*
X378Y208D01*
X376Y208D01*
X376Y212D01*
X374Y212D01*
X374Y216D01*
X372Y216D01*
X372Y222D01*
X370Y222D01*
X370Y236D01*
X368Y236D01*
X368Y238D01*
X370Y238D01*
X370Y252D01*
X372Y252D01*
X372Y258D01*
X374Y258D01*
X374Y262D01*
X376Y262D01*
X376Y266D01*
X378Y266D01*
X378Y270D01*
X380Y270D01*
X380Y272D01*
X382Y272D01*
X382Y274D01*
X384Y274D01*
X384Y276D01*
X386Y276D01*
X386Y298D01*
X384Y298D01*
X384Y300D01*
X382Y300D01*
X382Y302D01*
X380Y302D01*
X380Y304D01*
X378Y304D01*
X378Y308D01*
X376Y308D01*
X376Y312D01*
X374Y312D01*
X374Y316D01*
X372Y316D01*
X372Y322D01*
X370Y322D01*
X370Y336D01*
X368Y336D01*
X368Y338D01*
X370Y338D01*
X370Y352D01*
X372Y352D01*
X372Y358D01*
X374Y358D01*
X374Y362D01*
X376Y362D01*
X376Y366D01*
X378Y366D01*
X378Y370D01*
X380Y370D01*
X380Y372D01*
X382Y372D01*
X382Y374D01*
X384Y374D01*
X384Y376D01*
X386Y376D01*
X386Y378D01*
X388Y378D01*
X388Y380D01*
X390Y380D01*
X390Y382D01*
X392Y382D01*
X392Y384D01*
X396Y384D01*
X396Y386D01*
X398Y386D01*
X398Y388D01*
X402Y388D01*
X402Y390D01*
X406Y390D01*
X406Y392D01*
X414Y392D01*
X414Y394D01*
X40Y394D01*
G37*
D02*
G36*
X3690Y394D02*
X3690Y392D01*
X3692Y392D01*
X3692Y390D01*
X3694Y390D01*
X3694Y388D01*
X3696Y388D01*
X3696Y386D01*
X3698Y386D01*
X3698Y384D01*
X3700Y384D01*
X3700Y382D01*
X3702Y382D01*
X3702Y380D01*
X3740Y380D01*
X3740Y382D01*
X3742Y382D01*
X3742Y384D01*
X3746Y384D01*
X3746Y386D01*
X3748Y386D01*
X3748Y388D01*
X3752Y388D01*
X3752Y390D01*
X3756Y390D01*
X3756Y392D01*
X3764Y392D01*
X3764Y394D01*
X3690Y394D01*
G37*
D02*
G36*
X40Y180D02*
X40Y178D01*
X2094Y178D01*
X2094Y180D01*
X40Y180D01*
G37*
D02*
G36*
X40Y180D02*
X40Y178D01*
X2094Y178D01*
X2094Y180D01*
X40Y180D01*
G37*
D02*
G36*
X2458Y180D02*
X2458Y178D01*
X4880Y178D01*
X4880Y180D01*
X2458Y180D01*
G37*
D02*
G36*
X2458Y180D02*
X2458Y178D01*
X4880Y178D01*
X4880Y180D01*
X2458Y180D01*
G37*
D02*
G36*
X40Y178D02*
X40Y152D01*
X2154Y152D01*
X2154Y154D01*
X2138Y154D01*
X2138Y156D01*
X2130Y156D01*
X2130Y158D01*
X2124Y158D01*
X2124Y160D01*
X2120Y160D01*
X2120Y162D01*
X2116Y162D01*
X2116Y164D01*
X2112Y164D01*
X2112Y166D01*
X2108Y166D01*
X2108Y168D01*
X2106Y168D01*
X2106Y170D01*
X2104Y170D01*
X2104Y172D01*
X2102Y172D01*
X2102Y174D01*
X2098Y174D01*
X2098Y176D01*
X2096Y176D01*
X2096Y178D01*
X40Y178D01*
G37*
D02*
G36*
X2456Y178D02*
X2456Y176D01*
X2454Y176D01*
X2454Y174D01*
X2452Y174D01*
X2452Y172D01*
X2450Y172D01*
X2450Y170D01*
X2448Y170D01*
X2448Y168D01*
X2444Y168D01*
X2444Y166D01*
X2442Y166D01*
X2442Y164D01*
X2438Y164D01*
X2438Y162D01*
X2434Y162D01*
X2434Y160D01*
X2430Y160D01*
X2430Y158D01*
X2424Y158D01*
X2424Y156D01*
X2416Y156D01*
X2416Y154D01*
X2400Y154D01*
X2400Y152D01*
X4880Y152D01*
X4880Y178D01*
X2456Y178D01*
G37*
D02*
G36*
X40Y152D02*
X40Y150D01*
X4880Y150D01*
X4880Y152D01*
X40Y152D01*
G37*
D02*
G36*
X40Y152D02*
X40Y150D01*
X4880Y150D01*
X4880Y152D01*
X40Y152D01*
G37*
D02*
G36*
X40Y150D02*
X40Y40D01*
X4880Y40D01*
X4880Y150D01*
X40Y150D01*
G37*
D02*
G04 End of Copper0*
M02*