<?xml version='1.0' encoding='UTF-8' standalone='no'?>
<!-- Created with Fritzing (http://www.fritzing.org/) -->
<svg xmlns="http://www.w3.org/2000/svg" viewBox="0 0 354.331 70.8661" y="0in" xmlns:svg="http://www.w3.org/2000/svg" version="1.2" baseProfile="tiny" width="4.92126in" x="0in" height="0.984252in" >
 <g partID="57710">
  <g id="board" >
   <rect fill="none" stroke-width="0.5" y="0.288" stroke="black" id="boardoutline" fill-opacity="0.5" width="353.755" height="70.2901" x="0.288" />
  </g>
 </g>
 <g partID="69620">
  <g transform="translate(2.88,2.88)">
   <g id="groundplane" >
    <polygon fill="black" stroke-width="0" stroke="none" points="0,0,0,10.8,320.4,10.8,320.4,10.944,320.832,10.944,320.832,11.088,321.264,11.088,321.264,11.232,321.552,11.232,321.552,11.376,321.696,11.376,321.696,11.52,321.84,11.52,321.84,11.664,322.128,11.664,322.128,11.808,322.272,11.808,322.272,11.952,322.416,11.952,322.416,12.096,322.56,12.096,322.56,12.24,322.704,12.24,322.704,12.528,322.848,12.528,322.848,12.672,322.992,12.672,322.992,12.96,323.136,12.96,323.136,13.104,323.28,13.104,323.28,13.536,323.424,13.536,323.424,14.112,323.568,14.112,323.568,15.696,323.424,15.696,323.424,16.272,323.28,16.272,323.28,16.704,323.136,16.704,323.136,16.992,322.992,16.992,322.992,17.136,322.848,17.136,322.848,17.424,322.704,17.424,322.704,17.568,322.56,17.568,322.56,17.712,322.416,17.712,322.416,19.296,322.56,19.296,322.56,19.44,322.704,19.44,322.704,19.728,322.848,19.728,322.848,19.872,322.992,19.872,322.992,20.16,323.136,20.16,323.136,20.304,323.28,20.304,323.28,20.736,323.424,20.736,323.424,21.312,323.568,21.312,323.568,22.896,323.424,22.896,323.424,23.472,323.28,23.472,323.28,23.904,323.136,23.904,323.136,24.192,322.992,24.192,322.992,24.336,322.848,24.336,322.848,24.624,322.704,24.624,322.704,24.768,322.56,24.768,322.56,24.912,322.416,24.912,322.416,25.056,322.272,25.056,322.272,25.2,322.128,25.2,322.128,25.344,321.984,25.344,321.984,25.488,321.696,25.488,321.696,25.632,321.552,25.632,321.552,25.776,321.264,25.776,321.264,25.92,320.976,25.92,320.976,26.064,320.4,26.064,320.4,26.208,348.48,26.208,348.48,0" />
    <polygon fill="black" stroke-width="0" stroke="none" points="0,10.8,0,39.6,28.8,39.6,28.8,39.744,29.232,39.744,29.232,39.888,29.664,39.888,29.664,40.032,29.952,40.032,29.952,40.176,30.096,40.176,30.096,40.32,30.24,40.32,30.24,40.464,30.528,40.464,30.528,40.608,33.408,40.608,33.408,40.464,33.552,40.464,33.552,40.32,33.696,40.32,33.696,40.176,33.84,40.176,33.84,40.032,33.984,40.032,33.984,39.888,34.128,39.888,34.128,39.744,34.272,39.744,34.272,39.6,34.416,39.6,34.416,39.456,34.56,39.456,34.56,39.312,34.704,39.312,34.704,39.168,34.848,39.168,34.848,39.024,34.992,39.024,34.992,38.88,35.136,38.88,35.136,38.736,35.28,38.736,35.28,38.592,35.424,38.592,35.424,38.448,35.568,38.448,35.568,38.304,35.712,38.304,35.712,38.16,35.856,38.16,35.856,38.016,36,38.016,36,37.872,36.144,37.872,36.144,37.728,36.288,37.728,36.288,24.624,36.432,24.624,36.432,23.904,36.576,23.904,36.576,23.472,36.72,23.472,36.72,23.184,36.864,23.184,36.864,22.896,37.008,22.896,37.008,22.608,37.152,22.608,37.152,22.32,37.296,22.32,37.296,22.176,37.44,22.176,37.44,21.888,37.584,21.888,37.584,21.744,37.728,21.744,37.728,21.6,37.872,21.6,37.872,21.456,38.016,21.456,38.016,21.312,38.16,21.312,38.16,21.168,38.304,21.168,38.304,21.024,38.448,21.024,38.448,20.88,38.592,20.88,38.592,20.736,38.736,20.736,38.736,20.592,38.88,20.592,38.88,20.448,39.024,20.448,39.024,20.304,39.168,20.304,39.168,20.16,39.312,20.16,39.312,20.016,39.456,20.016,39.456,19.872,39.6,19.872,39.6,19.728,39.744,19.728,39.744,19.584,39.888,19.584,39.888,19.44,40.032,19.44,40.032,19.296,40.176,19.296,40.176,19.152,40.32,19.152,40.32,19.008,40.464,19.008,40.464,18.864,40.608,18.864,40.608,18.72,40.752,18.72,40.752,18.576,40.896,18.576,40.896,18.432,41.04,18.432,41.04,18.288,41.184,18.288,41.184,18.144,41.328,18.144,41.328,18,41.472,18,41.472,17.856,41.616,17.856,41.616,17.712,41.76,17.712,41.76,17.568,41.904,17.568,41.904,17.424,42.048,17.424,42.048,17.28,42.192,17.28,42.192,17.136,42.336,17.136,42.336,16.992,42.48,16.992,42.48,16.848,42.624,16.848,42.624,16.704,42.768,16.704,42.768,16.56,42.912,16.56,42.912,16.416,43.056,16.416,43.056,16.272,43.2,16.272,43.2,16.128,43.344,16.128,43.344,15.984,43.488,15.984,43.488,15.84,43.632,15.84,43.632,15.696,43.776,15.696,43.776,15.552,43.92,15.552,43.92,15.408,44.064,15.408,44.064,15.264,44.208,15.264,44.208,15.12,44.352,15.12,44.352,14.976,44.496,14.976,44.496,14.832,44.64,14.832,44.64,14.688,44.784,14.688,44.784,14.544,44.928,14.544,44.928,14.4,45.072,14.4,45.072,14.256,45.216,14.256,45.216,14.112,45.36,14.112,45.36,13.968,45.504,13.968,45.504,13.824,45.648,13.824,45.648,13.68,45.792,13.68,45.792,13.536,46.08,13.536,46.08,13.392,46.224,13.392,46.224,13.248,46.512,13.248,46.512,13.104,46.8,13.104,46.8,12.96,47.088,12.96,47.088,12.816,47.376,12.816,47.376,12.672,47.952,12.672,47.952,12.528,48.528,12.528,48.528,12.384,75.024,12.384,75.024,12.24,75.168,12.24,75.168,12.096,75.312,12.096,75.312,11.952,75.456,11.952,75.456,11.808,75.6,11.808,75.6,11.664,75.744,11.664,75.744,11.52,76.032,11.52,76.032,11.376,76.176,11.376,76.176,11.232,76.464,11.232,76.464,11.088,76.752,11.088,76.752,10.944,77.328,10.944,77.328,10.8" />
    <polygon fill="black" stroke-width="0" stroke="none" points="79.2,10.8,79.2,10.944,79.632,10.944,79.632,11.088,80.064,11.088,80.064,11.232,80.352,11.232,80.352,11.376,80.496,11.376,80.496,11.52,80.64,11.52,80.64,11.664,83.232,11.664,83.232,11.808,83.952,11.808,83.952,11.952,84.384,11.952,84.384,12.096,84.816,12.096,84.816,12.24,85.104,12.24,85.104,12.384,248.544,12.384,248.544,12.528,249.12,12.528,249.12,12.672,249.552,12.672,249.552,12.816,249.984,12.816,249.984,12.96,250.272,12.96,250.272,13.104,250.56,13.104,250.56,13.248,250.848,13.248,250.848,13.392,250.992,13.392,250.992,13.536,251.136,13.536,251.136,13.68,251.424,13.68,251.424,13.824,251.568,13.824,251.568,13.968,251.712,13.968,251.712,14.112,251.856,14.112,251.856,14.256,252,14.256,252,14.4,252.144,14.4,252.144,14.544,252.288,14.544,252.288,14.688,252.432,14.688,252.432,14.832,252.576,14.832,252.576,14.976,252.72,14.976,252.72,15.12,252.864,15.12,252.864,15.264,253.008,15.264,253.008,15.408,253.152,15.408,253.152,15.552,253.296,15.552,253.296,15.696,253.44,15.696,253.44,15.84,253.584,15.84,253.584,15.984,253.728,15.984,253.728,16.128,253.872,16.128,253.872,16.272,254.016,16.272,254.016,16.416,254.16,16.416,254.16,16.56,254.304,16.56,254.304,16.704,254.448,16.704,254.448,16.848,254.592,16.848,254.592,16.992,254.736,16.992,254.736,17.136,254.88,17.136,254.88,17.28,255.024,17.28,255.024,17.424,255.168,17.424,255.168,17.568,255.312,17.568,255.312,17.712,255.456,17.712,255.456,17.856,255.6,17.856,255.6,18,255.744,18,255.744,18.144,255.888,18.144,255.888,18.288,256.032,18.288,256.032,18.432,256.176,18.432,256.176,18.576,256.32,18.576,256.32,18.72,256.464,18.72,256.464,18.864,256.608,18.864,256.608,19.008,256.752,19.008,256.752,19.152,256.896,19.152,256.896,19.296,257.04,19.296,257.04,19.44,257.184,19.44,257.184,19.584,257.328,19.584,257.328,19.728,257.472,19.728,257.472,19.872,257.616,19.872,257.616,20.016,257.76,20.016,257.76,20.16,257.904,20.16,257.904,20.304,258.048,20.304,258.048,20.448,258.192,20.448,258.192,20.592,258.336,20.592,258.336,20.736,258.48,20.736,258.48,20.88,258.624,20.88,258.624,21.024,258.768,21.024,258.768,21.168,258.912,21.168,258.912,21.312,259.056,21.312,259.056,21.456,259.2,21.456,259.2,21.6,259.344,21.6,259.344,21.744,259.488,21.744,259.488,22.032,259.632,22.032,259.632,22.176,259.776,22.176,259.776,22.32,259.92,22.32,259.92,22.608,260.064,22.608,260.064,22.896,260.208,22.896,260.208,23.184,260.352,23.184,260.352,23.616,260.496,23.616,260.496,24.048,260.64,24.048,260.64,24.768,260.784,24.768,260.784,37.728,260.928,37.728,260.928,37.872,261.072,37.872,261.072,38.016,261.216,38.016,261.216,38.16,261.36,38.16,261.36,38.304,261.504,38.304,261.504,38.448,261.648,38.448,261.648,38.592,261.792,38.592,261.792,38.736,261.936,38.736,261.936,38.88,262.08,38.88,262.08,39.024,262.224,39.024,262.224,39.168,262.368,39.168,262.368,39.312,262.512,39.312,262.512,39.456,262.656,39.456,262.656,39.6,270,39.6,270,39.744,270.432,39.744,270.432,39.888,270.864,39.888,270.864,40.032,271.152,40.032,271.152,40.176,271.296,40.176,271.296,40.32,271.44,40.32,271.44,40.464,271.728,40.464,271.728,40.608,271.872,40.608,271.872,40.752,272.016,40.752,272.016,40.896,272.16,40.896,272.16,41.04,272.304,41.04,272.304,41.328,295.488,41.328,295.488,41.184,295.632,41.184,295.632,41.04,295.776,41.04,295.776,40.896,295.92,40.896,295.92,40.752,296.064,40.752,296.064,40.608,296.208,40.608,296.208,40.464,296.352,40.464,296.352,40.32,296.496,40.32,296.496,40.176,296.64,40.176,296.64,40.032,296.784,40.032,296.784,39.888,296.928,39.888,296.928,39.744,297.072,39.744,297.072,39.6,297.216,39.6,297.216,39.456,297.36,39.456,297.36,39.312,297.504,39.312,297.504,39.168,297.648,39.168,297.648,39.024,297.792,39.024,297.792,38.88,297.936,38.88,297.936,38.736,298.08,38.736,298.08,38.592,298.224,38.592,298.224,38.448,298.368,38.448,298.368,38.304,298.512,38.304,298.512,38.16,298.656,38.16,298.656,38.016,298.8,38.016,298.8,37.872,298.944,37.872,298.944,37.728,299.088,37.728,299.088,24.624,299.232,24.624,299.232,23.904,299.376,23.904,299.376,23.472,299.52,23.472,299.52,23.184,299.664,23.184,299.664,22.896,299.808,22.896,299.808,22.608,299.952,22.608,299.952,22.32,300.096,22.32,300.096,21.888,300.24,21.888,300.24,21.6,300.384,21.6,300.384,21.312,300.528,21.312,300.528,21.024,300.672,21.024,300.672,20.736,300.816,20.736,300.816,20.448,300.96,20.448,300.96,20.16,301.104,20.16,301.104,19.872,301.248,19.872,301.248,19.584,301.392,19.584,301.392,19.296,301.536,19.296,301.536,19.008,301.68,19.008,301.68,18.72,301.824,18.72,301.824,18.432,301.968,18.432,301.968,18,302.112,18,302.112,17.712,302.256,17.712,302.256,17.424,302.4,17.424,302.4,17.136,302.544,17.136,302.544,16.848,302.688,16.848,302.688,16.56,302.832,16.56,302.832,16.272,302.976,16.272,302.976,15.984,303.12,15.984,303.12,15.696,303.264,15.696,303.264,15.408,303.408,15.408,303.408,15.12,303.552,15.12,303.552,14.976,303.696,14.976,303.696,14.832,303.84,14.832,303.84,14.544,303.984,14.544,303.984,14.4,304.128,14.4,304.128,14.256,304.272,14.256,304.272,14.112,304.416,14.112,304.416,13.968,304.56,13.968,304.56,13.824,304.704,13.824,304.704,13.68,304.992,13.68,304.992,13.536,305.136,13.536,305.136,13.392,305.28,13.392,305.28,13.248,305.568,13.248,305.568,13.104,305.856,13.104,305.856,12.96,306.144,12.96,306.144,12.816,306.576,12.816,306.576,12.672,307.008,12.672,307.008,12.528,307.584,12.528,307.584,12.384,312.624,12.384,312.624,12.24,313.056,12.24,313.056,12.096,313.344,12.096,313.344,11.952,314.064,11.952,314.064,11.808,316.8,11.808,316.8,11.664,316.944,11.664,316.944,11.52,317.232,11.52,317.232,11.376,317.376,11.376,317.376,11.232,317.664,11.232,317.664,11.088,317.952,11.088,317.952,10.944,318.528,10.944,318.528,10.8" />
    <polygon fill="black" stroke-width="0" stroke="none" points="51.984,24.48,51.984,24.624,51.84,24.624,51.84,24.768,51.696,24.768,51.696,24.912,51.552,24.912,51.552,25.056,51.408,25.056,51.408,25.2,51.264,25.2,51.264,25.344,51.12,25.344,51.12,25.488,50.976,25.488,50.976,25.632,50.832,25.632,50.832,25.776,50.688,25.776,50.688,25.92,50.544,25.92,50.544,26.064,50.4,26.064,50.4,26.208,77.328,26.208,77.328,26.064,76.752,26.064,76.752,25.92,76.464,25.92,76.464,25.776,76.176,25.776,76.176,25.632,75.888,25.632,75.888,25.488,75.744,25.488,75.744,25.344,75.6,25.344,75.6,25.2,75.456,25.2,75.456,25.056,75.312,25.056,75.312,24.912,75.168,24.912,75.168,24.768,75.024,24.768,75.024,24.624,74.88,24.624,74.88,24.48" />
    <polygon fill="black" stroke-width="0" stroke="none" points="85.392,24.48,85.392,24.624,85.104,24.624,85.104,24.768,84.672,24.768,84.672,24.912,84.24,24.912,84.24,25.056,83.664,25.056,83.664,25.2,80.928,25.2,80.928,25.344,80.784,25.344,80.784,25.488,80.496,25.488,80.496,25.632,80.352,25.632,80.352,25.776,80.064,25.776,80.064,25.92,79.776,25.92,79.776,26.064,79.2,26.064,79.2,26.208,129.6,26.208,129.6,24.48" />
    <polygon fill="black" stroke-width="0" stroke="none" points="141.696,24.48,141.696,37.584,141.84,37.584,141.84,37.728,171.072,37.728,171.072,37.872,171.648,37.872,171.648,38.016,171.936,38.016,171.936,38.16,172.368,38.16,172.368,38.304,172.656,38.304,172.656,38.448,172.8,38.448,172.8,38.592,173.088,38.592,173.088,38.736,173.232,38.736,173.232,38.88,173.52,38.88,173.52,39.024,173.664,39.024,173.664,39.168,173.808,39.168,173.808,39.312,173.952,39.312,173.952,39.456,174.096,39.456,174.096,39.6,174.24,39.6,174.24,39.744,174.384,39.744,174.384,39.888,174.528,39.888,174.528,40.032,174.672,40.032,174.672,40.32,174.816,40.32,174.816,40.464,174.96,40.464,174.96,40.752,175.104,40.752,175.104,41.04,175.248,41.04,175.248,41.328,175.392,41.328,175.392,41.76,175.536,41.76,175.536,41.904,175.68,41.904,175.68,42.336,175.824,42.336,175.824,42.912,175.968,42.912,175.968,44.496,175.824,44.496,175.824,45.072,175.68,45.072,175.68,45.504,175.536,45.504,175.536,45.792,175.392,45.792,175.392,46.08,175.248,46.08,175.248,46.368,175.104,46.368,175.104,48.24,175.248,48.24,175.248,48.528,175.392,48.528,175.392,48.96,175.536,48.96,175.536,49.104,175.68,49.104,175.68,49.536,175.824,49.536,175.824,50.112,175.968,50.112,175.968,51.696,175.824,51.696,175.824,52.272,175.68,52.272,175.68,52.704,175.536,52.704,175.536,52.992,175.392,52.992,175.392,53.28,175.248,53.28,175.248,53.568,175.104,53.568,175.104,53.856,174.96,53.856,174.96,54.144,174.816,54.144,174.816,54.288,174.672,54.288,174.672,54.576,174.528,54.576,174.528,54.72,174.384,54.72,174.384,54.864,174.24,54.864,174.24,55.008,268.128,55.008,268.128,54.864,267.552,54.864,267.552,54.72,267.264,54.72,267.264,54.576,266.976,54.576,266.976,54.432,266.688,54.432,266.688,54.288,266.544,54.288,266.544,54.144,266.4,54.144,266.4,54,263.52,54,263.52,53.856,262.944,53.856,262.944,53.712,262.512,53.712,262.512,53.568,262.224,53.568,262.224,53.424,260.928,53.424,260.928,53.28,260.352,53.28,260.352,53.136,259.776,53.136,259.776,52.992,259.488,52.992,259.488,52.848,259.2,52.848,259.2,52.704,258.912,52.704,258.912,52.56,258.624,52.56,258.624,52.416,258.48,52.416,258.48,52.272,258.192,52.272,258.192,52.128,258.048,52.128,258.048,51.984,257.904,51.984,257.904,51.84,257.76,51.84,257.76,51.696,257.616,51.696,257.616,51.552,257.472,51.552,257.472,51.408,257.328,51.408,257.328,51.264,257.184,51.264,257.184,51.12,257.04,51.12,257.04,50.976,256.896,50.976,256.896,50.832,256.752,50.832,256.752,50.688,256.608,50.688,256.608,50.544,256.464,50.544,256.464,50.4,256.32,50.4,256.32,50.256,256.176,50.256,256.176,50.112,256.032,50.112,256.032,49.968,255.888,49.968,255.888,49.824,255.744,49.824,255.744,49.68,255.6,49.68,255.6,49.536,255.456,49.536,255.456,49.392,255.312,49.392,255.312,49.248,255.168,49.248,255.168,49.104,255.024,49.104,255.024,48.96,254.88,48.96,254.88,48.816,254.736,48.816,254.736,48.672,254.592,48.672,254.592,48.528,254.448,48.528,254.448,48.384,254.304,48.384,254.304,48.24,254.16,48.24,254.16,48.096,254.016,48.096,254.016,47.952,253.872,47.952,253.872,47.808,253.728,47.808,253.728,47.664,253.584,47.664,253.584,47.52,253.44,47.52,253.44,47.376,253.296,47.376,253.296,47.232,253.152,47.232,253.152,47.088,253.008,47.088,253.008,46.944,252.864,46.944,252.864,46.8,252.72,46.8,252.72,46.656,252.576,46.656,252.576,46.512,252.432,46.512,252.432,46.368,252.288,46.368,252.288,46.224,252.144,46.224,252.144,46.08,252,46.08,252,45.936,251.856,45.936,251.856,45.792,251.712,45.792,251.712,45.648,251.568,45.648,251.568,45.504,251.424,45.504,251.424,45.36,251.28,45.36,251.28,45.216,251.136,45.216,251.136,45.072,250.992,45.072,250.992,44.928,250.848,44.928,250.848,44.784,250.704,44.784,250.704,44.64,250.56,44.64,250.56,44.496,250.416,44.496,250.416,44.352,250.272,44.352,250.272,44.208,250.128,44.208,250.128,44.064,249.984,44.064,249.984,43.92,249.84,43.92,249.84,43.632,249.696,43.632,249.696,43.488,249.552,43.488,249.552,43.2,249.408,43.2,249.408,42.912,249.264,42.912,249.264,42.624,249.12,42.624,249.12,42.336,248.976,42.336,248.976,41.76,248.832,41.76,248.832,41.184,248.688,41.184,248.688,28.08,248.544,28.08,248.544,27.936,248.4,27.936,248.4,27.792,248.256,27.792,248.256,27.648,248.112,27.648,248.112,27.504,247.968,27.504,247.968,27.36,247.824,27.36,247.824,27.216,247.68,27.216,247.68,27.072,247.536,27.072,247.536,26.928,247.392,26.928,247.392,26.784,247.248,26.784,247.248,26.64,247.104,26.64,247.104,26.496,246.96,26.496,246.96,26.352,246.816,26.352,246.816,26.208,246.672,26.208,246.672,26.064,246.528,26.064,246.528,25.92,246.384,25.92,246.384,25.776,246.24,25.776,246.24,25.632,246.096,25.632,246.096,25.488,245.952,25.488,245.952,25.344,245.808,25.344,245.808,25.2,245.664,25.2,245.664,25.056,245.52,25.056,245.52,24.912,245.376,24.912,245.376,24.768,245.232,24.768,245.232,24.624,245.088,24.624,245.088,24.48" />
    <polygon fill="black" stroke-width="0" stroke="none" points="312.192,24.912,312.192,25.056,312.048,25.056,312.048,25.344,311.904,25.344,311.904,25.632,311.76,25.632,311.76,25.92,311.616,25.92,311.616,26.208,318.528,26.208,318.528,26.064,317.952,26.064,317.952,25.92,317.664,25.92,317.664,25.776,317.376,25.776,317.376,25.632,317.088,25.632,317.088,25.488,316.944,25.488,316.944,25.344,316.8,25.344,316.8,25.2,314.64,25.2,314.64,25.056,313.632,25.056,313.632,24.912" />
    <polygon fill="black" stroke-width="0" stroke="none" points="50.256,26.208,50.256,26.352,129.6,26.352,129.6,26.208" />
    <polygon fill="black" stroke-width="0" stroke="none" points="50.256,26.208,50.256,26.352,129.6,26.352,129.6,26.208" />
    <polygon fill="black" stroke-width="0" stroke="none" points="311.472,26.208,311.472,26.352,348.48,26.352,348.48,26.208" />
    <polygon fill="black" stroke-width="0" stroke="none" points="311.472,26.208,311.472,26.352,348.48,26.352,348.48,26.208" />
    <polygon fill="black" stroke-width="0" stroke="none" points="50.112,26.352,50.112,26.496,49.968,26.496,49.968,26.64,49.824,26.64,49.824,26.784,49.68,26.784,49.68,26.928,49.536,26.928,49.536,27.072,49.392,27.072,49.392,27.216,49.248,27.216,49.248,27.36,49.104,27.36,49.104,27.504,48.96,27.504,48.96,27.648,48.816,27.648,48.816,27.792,48.672,27.792,48.672,27.936,48.528,27.936,48.528,28.08,48.384,28.08,48.384,41.04,48.24,41.04,48.24,41.76,48.096,41.76,48.096,42.192,47.952,42.192,47.952,42.624,47.808,42.624,47.808,42.912,47.664,42.912,47.664,43.2,47.52,43.2,47.52,43.344,47.376,43.344,47.376,43.632,47.232,43.632,47.232,43.776,47.088,43.776,47.088,44.064,46.944,44.064,46.944,44.208,46.8,44.208,46.8,44.352,46.656,44.352,46.656,44.496,46.512,44.496,46.512,44.64,46.368,44.64,46.368,44.784,46.224,44.784,46.224,44.928,46.08,44.928,46.08,45.072,45.936,45.072,45.936,45.216,45.792,45.216,45.792,45.36,45.648,45.36,45.648,45.504,45.504,45.504,45.504,45.648,45.36,45.648,45.36,45.792,45.216,45.792,45.216,45.936,45.072,45.936,45.072,46.08,44.928,46.08,44.928,46.224,44.784,46.224,44.784,46.368,44.64,46.368,44.64,46.512,44.496,46.512,44.496,46.656,44.352,46.656,44.352,46.8,44.208,46.8,44.208,46.944,44.064,46.944,44.064,47.088,43.92,47.088,43.92,47.232,43.776,47.232,43.776,47.376,43.632,47.376,43.632,47.52,43.488,47.52,43.488,47.664,43.344,47.664,43.344,47.808,43.2,47.808,43.2,47.952,43.056,47.952,43.056,48.096,42.912,48.096,42.912,48.24,42.768,48.24,42.768,48.384,42.624,48.384,42.624,48.528,42.48,48.528,42.48,48.672,42.336,48.672,42.336,48.816,42.192,48.816,42.192,48.96,42.048,48.96,42.048,49.104,41.904,49.104,41.904,49.248,41.76,49.248,41.76,49.392,41.616,49.392,41.616,49.536,41.472,49.536,41.472,49.68,41.328,49.68,41.328,49.824,41.184,49.824,41.184,49.968,41.04,49.968,41.04,50.112,40.896,50.112,40.896,50.256,40.752,50.256,40.752,50.4,40.608,50.4,40.608,50.544,40.464,50.544,40.464,50.688,40.32,50.688,40.32,50.832,40.176,50.832,40.176,50.976,40.032,50.976,40.032,51.12,39.888,51.12,39.888,51.264,39.744,51.264,39.744,51.408,39.6,51.408,39.6,51.552,39.456,51.552,39.456,51.696,39.312,51.696,39.312,51.84,39.168,51.84,39.168,51.984,39.024,51.984,39.024,52.128,38.736,52.128,38.736,52.272,38.592,52.272,38.592,52.416,38.448,52.416,38.448,52.56,38.16,52.56,38.16,52.704,37.872,52.704,37.872,52.848,37.584,52.848,37.584,52.992,37.152,52.992,37.152,53.136,36.72,53.136,36.72,53.28,36.144,53.28,36.144,53.424,34.704,53.424,34.704,53.568,34.272,53.568,34.272,53.712,33.984,53.712,33.984,53.856,33.408,53.856,33.408,54,30.528,54,30.528,54.144,30.384,54.144,30.384,54.288,30.096,54.288,30.096,54.432,29.952,54.432,29.952,54.576,29.664,54.576,29.664,54.72,29.376,54.72,29.376,54.864,28.8,54.864,28.8,55.008,147.744,55.008,147.744,54.72,147.6,54.72,147.6,54.576,147.456,54.576,147.456,54.432,147.312,54.432,147.312,54.144,145.872,54.144,145.872,54,144.72,54,144.72,53.856,144.144,53.856,144.144,53.712,143.712,53.712,143.712,53.568,143.424,53.568,143.424,53.424,142.128,53.424,142.128,53.28,141.552,53.28,141.552,53.136,141.12,53.136,141.12,52.992,140.688,52.992,140.688,52.848,140.4,52.848,140.4,52.704,140.112,52.704,140.112,52.56,139.968,52.56,139.968,52.416,139.68,52.416,139.68,52.272,139.536,52.272,139.536,52.128,139.248,52.128,139.248,51.984,139.104,51.984,139.104,51.84,138.96,51.84,138.96,51.696,138.816,51.696,138.816,51.552,138.672,51.552,138.672,51.408,138.528,51.408,138.528,51.264,138.384,51.264,138.384,51.12,138.24,51.12,138.24,50.976,138.096,50.976,138.096,50.832,137.952,50.832,137.952,50.688,137.808,50.688,137.808,50.544,137.664,50.544,137.664,50.4,137.52,50.4,137.52,50.256,137.376,50.256,137.376,50.112,137.232,50.112,137.232,49.968,137.088,49.968,137.088,49.824,136.944,49.824,136.944,49.68,136.8,49.68,136.8,49.536,136.656,49.536,136.656,49.392,136.512,49.392,136.512,49.248,136.368,49.248,136.368,49.104,136.08,49.104,136.08,48.96,135.936,48.96,135.936,48.816,135.792,48.816,135.792,48.672,135.648,48.672,135.648,48.528,135.504,48.528,135.504,48.384,135.36,48.384,135.36,48.24,135.216,48.24,135.216,48.096,135.072,48.096,135.072,47.952,134.928,47.952,134.928,47.808,134.784,47.808,134.784,47.664,134.64,47.664,134.64,47.52,134.496,47.52,134.496,47.376,134.352,47.376,134.352,47.232,134.208,47.232,134.208,47.088,134.064,47.088,134.064,46.944,133.92,46.944,133.92,46.8,133.776,46.8,133.776,46.656,133.632,46.656,133.632,46.512,133.488,46.512,133.488,46.368,133.344,46.368,133.344,46.224,133.2,46.224,133.2,46.08,133.056,46.08,133.056,45.936,132.912,45.936,132.912,45.792,132.768,45.792,132.768,45.648,132.624,45.648,132.624,45.504,132.48,45.504,132.48,45.36,132.336,45.36,132.336,45.216,132.048,45.216,132.048,45.072,131.904,45.072,131.904,44.928,131.76,44.928,131.76,44.784,131.616,44.784,131.616,44.64,131.472,44.64,131.472,44.496,131.328,44.496,131.328,44.352,131.184,44.352,131.184,44.064,131.04,44.064,131.04,43.92,130.896,43.92,130.896,43.776,130.752,43.776,130.752,43.632,130.608,43.632,130.608,43.344,130.464,43.344,130.464,43.056,130.32,43.056,130.32,42.768,130.176,42.768,130.176,42.48,130.032,42.48,130.032,42.048,129.888,42.048,129.888,41.472,129.744,41.472,129.744,40.464,129.6,40.464,129.6,26.352" />
    <polygon fill="black" stroke-width="0" stroke="none" points="311.472,26.352,311.472,26.496,311.328,26.496,311.328,26.784,311.184,26.784,311.184,41.04,311.04,41.04,311.04,41.76,310.896,41.76,310.896,42.192,310.752,42.192,310.752,42.624,310.608,42.624,310.608,42.912,310.464,42.912,310.464,43.2,310.32,43.2,310.32,43.488,310.176,43.488,310.176,43.632,310.032,43.632,310.032,43.776,309.888,43.776,309.888,44.064,309.744,44.064,309.744,44.208,309.6,44.208,309.6,44.352,309.456,44.352,309.456,44.496,309.312,44.496,309.312,44.64,309.168,44.64,309.168,44.784,309.024,44.784,309.024,44.928,308.88,44.928,308.88,45.072,308.736,45.072,308.736,45.216,308.592,45.216,308.592,45.36,308.448,45.36,308.448,45.504,308.304,45.504,308.304,45.648,308.16,45.648,308.16,45.792,308.016,45.792,308.016,45.936,307.872,45.936,307.872,46.08,307.728,46.08,307.728,46.224,307.584,46.224,307.584,46.368,307.44,46.368,307.44,46.512,307.296,46.512,307.296,46.656,307.152,46.656,307.152,46.8,307.008,46.8,307.008,46.944,306.864,46.944,306.864,47.088,306.72,47.088,306.72,47.232,306.576,47.232,306.576,47.376,306.432,47.376,306.432,47.52,306.288,47.52,306.288,47.664,306.144,47.664,306.144,47.808,306,47.808,306,47.952,305.856,47.952,305.856,48.096,305.712,48.096,305.712,48.24,305.568,48.24,305.568,48.384,305.424,48.384,305.424,48.528,305.28,48.528,305.28,48.672,305.136,48.672,305.136,48.816,304.992,48.816,304.992,48.96,304.848,48.96,304.848,49.104,304.704,49.104,304.704,49.248,304.56,49.248,304.56,49.392,304.416,49.392,304.416,49.536,304.272,49.536,304.272,49.68,304.128,49.68,304.128,49.824,303.984,49.824,303.984,49.968,303.84,49.968,303.84,50.112,303.696,50.112,303.696,50.256,303.552,50.256,303.552,50.4,303.408,50.4,303.408,50.544,303.264,50.544,303.264,50.688,303.12,50.688,303.12,50.832,302.976,50.832,302.976,50.976,302.832,50.976,302.832,51.12,302.688,51.12,302.688,51.264,302.544,51.264,302.544,51.408,302.4,51.408,302.4,51.552,302.256,51.552,302.256,51.696,302.112,51.696,302.112,51.84,301.968,51.84,301.968,51.984,301.824,51.984,301.824,52.128,301.536,52.128,301.536,52.272,301.392,52.272,301.392,52.416,301.248,52.416,301.248,52.56,300.96,52.56,300.96,52.704,300.672,52.704,300.672,52.848,300.384,52.848,300.384,52.992,299.952,52.992,299.952,53.136,299.52,53.136,299.52,53.28,298.944,53.28,298.944,53.424,272.304,53.424,272.304,53.568,272.16,53.568,272.16,53.712,272.016,53.712,272.016,53.856,271.872,53.856,271.872,54,271.728,54,271.728,54.144,271.584,54.144,271.584,54.288,271.296,54.288,271.296,54.432,271.152,54.432,271.152,54.576,270.864,54.576,270.864,54.72,270.576,54.72,270.576,54.864,270,54.864,270,55.008,348.48,55.008,348.48,26.352" />
    <polygon fill="black" stroke-width="0" stroke="none" points="141.984,37.728,141.984,37.872,142.128,37.872,142.128,38.016,142.272,38.016,142.272,38.16,142.416,38.16,142.416,38.304,142.56,38.304,142.56,38.448,142.704,38.448,142.704,38.592,142.848,38.592,142.848,38.736,142.992,38.736,142.992,38.88,143.136,38.88,143.136,39.024,143.28,39.024,143.28,39.168,143.424,39.168,143.424,39.312,143.568,39.312,143.568,39.456,143.712,39.456,143.712,39.6,143.856,39.6,143.856,39.744,144,39.744,144,39.888,144.144,39.888,144.144,40.032,144.288,40.032,144.288,40.176,144.432,40.176,144.432,40.32,144.576,40.32,144.576,40.464,144.72,40.464,144.72,40.608,147.168,40.608,147.168,40.464,147.312,40.464,147.312,40.176,147.456,40.176,147.456,40.032,147.6,40.032,147.6,39.888,147.744,39.888,147.744,39.744,147.888,39.744,147.888,39.456,148.032,39.456,148.032,39.312,148.32,39.312,148.32,39.168,148.464,39.168,148.464,39.024,148.608,39.024,148.608,38.88,148.752,38.88,148.752,38.736,149.04,38.736,149.04,38.592,149.184,38.592,149.184,38.448,149.472,38.448,149.472,38.304,149.76,38.304,149.76,38.16,150.048,38.16,150.048,38.016,150.48,38.016,150.48,37.872,151.056,37.872,151.056,37.728" />
    <polygon fill="black" stroke-width="0" stroke="none" points="0,39.6,0,55.008,26.928,55.008,26.928,54.864,26.352,54.864,26.352,54.72,26.064,54.72,26.064,54.576,25.776,54.576,25.776,54.432,25.488,54.432,25.488,54.288,25.344,54.288,25.344,54.144,25.2,54.144,25.2,54,25.056,54,25.056,53.856,24.912,53.856,24.912,53.712,24.768,53.712,24.768,53.568,24.624,53.568,24.624,53.424,24.48,53.424,24.48,53.28,24.336,53.28,24.336,52.992,24.192,52.992,24.192,52.704,24.048,52.704,24.048,52.416,23.904,52.416,23.904,51.984,23.76,51.984,23.76,50.976,23.616,50.976,23.616,50.832,23.76,50.832,23.76,49.824,23.904,49.824,23.904,49.392,24.048,49.392,24.048,49.104,24.192,49.104,24.192,48.816,24.336,48.816,24.336,48.528,24.48,48.528,24.48,48.384,24.624,48.384,24.624,48.24,24.768,48.24,24.768,48.096,24.912,48.096,24.912,46.512,24.768,46.512,24.768,46.368,24.624,46.368,24.624,46.224,24.48,46.224,24.48,46.08,24.336,46.08,24.336,45.792,24.192,45.792,24.192,45.504,24.048,45.504,24.048,45.216,23.904,45.216,23.904,44.784,23.76,44.784,23.76,43.776,23.616,43.776,23.616,43.632,23.76,43.632,23.76,42.624,23.904,42.624,23.904,42.192,24.048,42.192,24.048,41.904,24.192,41.904,24.192,41.616,24.336,41.616,24.336,41.328,24.48,41.328,24.48,41.184,24.624,41.184,24.624,41.04,24.768,41.04,24.768,40.896,24.912,40.896,24.912,40.752,25.056,40.752,25.056,40.608,25.2,40.608,25.2,40.464,25.344,40.464,25.344,40.32,25.632,40.32,25.632,40.176,25.776,40.176,25.776,40.032,26.064,40.032,26.064,39.888,26.352,39.888,26.352,39.744,26.928,39.744,26.928,39.6" />
    <polygon fill="black" stroke-width="0" stroke="none" points="262.8,39.6,262.8,39.744,262.944,39.744,262.944,39.888,263.088,39.888,263.088,40.032,263.232,40.032,263.232,40.176,263.376,40.176,263.376,40.32,263.52,40.32,263.52,40.464,263.664,40.464,263.664,40.608,266.4,40.608,266.4,40.464,266.544,40.464,266.544,40.32,266.832,40.32,266.832,40.176,266.976,40.176,266.976,40.032,267.264,40.032,267.264,39.888,267.552,39.888,267.552,39.744,268.128,39.744,268.128,39.6" />
    <polygon fill="black" stroke-width="0" stroke="none" points="0,55.008,0,55.152,147.888,55.152,147.888,55.008" />
    <polygon fill="black" stroke-width="0" stroke="none" points="0,55.008,0,55.152,147.888,55.152,147.888,55.008" />
    <polygon fill="black" stroke-width="0" stroke="none" points="174.096,55.008,174.096,55.152,348.48,55.152,348.48,55.008" />
    <polygon fill="black" stroke-width="0" stroke="none" points="174.096,55.008,174.096,55.152,348.48,55.152,348.48,55.008" />
    <polygon fill="black" stroke-width="0" stroke="none" points="0,55.152,0,57.024,152.208,57.024,152.208,56.88,151.056,56.88,151.056,56.736,150.48,56.736,150.48,56.592,150.048,56.592,150.048,56.448,149.76,56.448,149.76,56.304,149.472,56.304,149.472,56.16,149.184,56.16,149.184,56.016,148.896,56.016,148.896,55.872,148.752,55.872,148.752,55.728,148.608,55.728,148.608,55.584,148.464,55.584,148.464,55.44,148.176,55.44,148.176,55.296,148.032,55.296,148.032,55.152" />
    <polygon fill="black" stroke-width="0" stroke="none" points="173.952,55.152,173.952,55.296,173.808,55.296,173.808,55.44,173.664,55.44,173.664,55.584,173.52,55.584,173.52,55.728,173.376,55.728,173.376,55.872,173.088,55.872,173.088,56.016,172.944,56.016,172.944,56.16,172.656,56.16,172.656,56.304,172.368,56.304,172.368,56.448,172.08,56.448,172.08,56.592,171.648,56.592,171.648,56.736,171.072,56.736,171.072,56.88,169.92,56.88,169.92,57.024,348.48,57.024,348.48,55.152" />
    <polygon fill="black" stroke-width="0" stroke="none" points="0,57.024,0,57.168,348.48,57.168,348.48,57.024" />
    <polygon fill="black" stroke-width="0" stroke="none" points="0,57.024,0,57.168,348.48,57.168,348.48,57.024" />
    <polygon fill="black" stroke-width="0" stroke="none" points="0,57.168,0,65.088,348.48,65.088,348.48,57.168" />
    <g id="connector0pad" >
     <circle cy="5.328" fill="black" stroke-width="0" cx="6.02463" stroke="none"  r="2.7"/>
    </g>
   </g>
  </g>
 </g>
 <g partID="65570">
  <g transform="translate(26.4056,49.4741)">
   <g id="copper0" >
    <circle fill="none" cy="4.31559" stroke-width="1.44" cx="4.31559" stroke="black" id="connector0pin"  r="1.99559"/>
   </g>
  </g>
 </g>
 <g partID="62490">
  <g transform="translate(26.4056,42.2741)">
   <g id="copper0" >
    <circle fill="none" cy="4.31559" stroke-width="1.44" cx="4.31559" stroke="black" id="connector0pin"  r="1.99559"/>
   </g>
  </g>
 </g>
 <g partID="65530">
  <g transform="translate(76.8056,20.6741)">
   <g id="copper0" >
    <circle fill="none" cy="4.31559" stroke-width="1.44" cx="4.31559" stroke="black" id="connector0pin"  r="1.99559"/>
   </g>
  </g>
 </g>
 <g partID="62550">
  <g transform="translate(76.8056,13.4741)">
   <g id="copper0" >
    <circle fill="none" cy="4.31559" stroke-width="1.44" cx="4.31559" stroke="black" id="connector0pin"  r="1.99559"/>
   </g>
  </g>
 </g>
 <g partID="65310">
  <g transform="translate(148.806,49.4741)">
   <g id="copper0" >
    <circle fill="none" cy="4.31559" stroke-width="1.44" cx="4.31559" stroke="black" id="connector0pin"  r="1.99559"/>
   </g>
  </g>
 </g>
 <g partID="62610">
  <g transform="translate(148.806,42.2741)">
   <g id="copper0" >
    <circle fill="none" cy="4.31559" stroke-width="1.44" cx="4.31559" stroke="black" id="connector0pin"  r="1.99559"/>
   </g>
  </g>
 </g>
 <g partID="65330">
  <g transform="translate(267.606,42.2741)">
   <g id="copper0" >
    <circle fill="none" cy="4.31559" stroke-width="1.44" cx="4.31559" stroke="black" id="connector0pin"  r="1.99559"/>
   </g>
  </g>
 </g>
 <g partID="62660">
  <g transform="translate(267.606,49.4741)">
   <g id="copper0" >
    <circle fill="none" cy="4.31559" stroke-width="1.44" cx="4.31559" stroke="black" id="connector0pin"  r="1.99559"/>
   </g>
  </g>
 </g>
 <g partID="65510">
  <g transform="translate(318.006,20.6741)">
   <g id="copper0" >
    <circle fill="none" cy="4.31559" stroke-width="1.44" cx="4.31559" stroke="black" id="connector0pin"  r="1.99559"/>
   </g>
  </g>
 </g>
 <g partID="62700">
  <g transform="translate(318.006,13.4741)">
   <g id="copper0" >
    <circle fill="none" cy="4.31559" stroke-width="1.44" cx="4.31559" stroke="black" id="connector0pin"  r="1.99559"/>
   </g>
  </g>
 </g>
 <g partID="69310">
  <g transform="translate(170.405,42.2741)">
   <g id="copper0" >
    <circle fill="none" cy="4.31559" stroke-width="1.44" cx="4.31559" stroke="black" id="connector0pin"  r="1.99559"/>
   </g>
  </g>
 </g>
 <g partID="69340">
  <g transform="translate(170.405,49.4741)">
   <g id="copper0" >
    <circle fill="none" cy="4.31559" stroke-width="1.44" cx="4.31559" stroke="black" id="connector0pin"  r="1.99559"/>
   </g>
  </g>
 </g>
 <g partID="68530">
  <line stroke-linecap="round" stroke-width="9.216" x2="52.3744" stroke="black" x1="84.6658" y2="21.3083" y1="21.3083"/>
 </g>
 <g partID="66500">
  <line stroke-linecap="round" stroke-width="9.216" x2="45.2015" stroke="black" x1="52.3744" y2="28.4812" y1="21.3083"/>
 </g>
 <g partID="64310">
  <line stroke-linecap="round" stroke-width="9.216" x2="45.2015" stroke="black" x1="45.2015" y2="43.0926" y1="28.4812"/>
 </g>
 <g partID="64280">
  <line stroke-linecap="round" stroke-width="9.216" x2="38.0287" stroke="black" x1="45.2015" y2="50.2654" y1="43.0926"/>
 </g>
 <g partID="58750">
  <line stroke-linecap="round" stroke-width="9.216" x2="84.6658" stroke="black" x1="138.595" y2="21.3083" y1="21.3083"/>
 </g>
 <g partID="61070">
  <line stroke-linecap="round" stroke-width="9.216" x2="250.439" stroke="black" x1="138.595" y2="21.3083" y1="21.3083"/>
 </g>
 <g partID="66330">
  <line stroke-linecap="round" stroke-width="9.216" x2="257.612" stroke="black" x1="257.612" y2="43.0926" y1="28.4812"/>
 </g>
 <g partID="64340">
  <line stroke-linecap="round" stroke-width="9.216" x2="264.784" stroke="black" x1="257.612" y2="50.2654" y1="43.0926"/>
 </g>
 <g partID="61100">
  <line stroke-linecap="round" stroke-width="9.216" x2="257.612" stroke="black" x1="250.439" y2="28.4812" y1="21.3083"/>
 </g>
 <g partID="61420">
  <line stroke-linecap="round" stroke-width="9.216" x2="311.459" stroke="black" x1="308.006" y2="21.3083" y1="28.4812"/>
 </g>
 <g partID="64370">
  <line stroke-linecap="round" stroke-width="9.216" x2="308.006" stroke="black" x1="308.006" y2="28.4812" y1="43.0926"/>
 </g>
 <g partID="62850">
  <line stroke-linecap="round" stroke-width="9.216" x2="308.006" stroke="black" x1="300.833" y2="43.0926" y1="50.2654"/>
 </g>
 <g partID="66680">
  <line stroke-linecap="round" stroke-width="9.216" x2="318.021" stroke="black" x1="318.632" y2="20.698" y1="21.3083"/>
 </g>
 <g partID="65770">
  <line stroke-linecap="round" stroke-width="9.216" x2="318.632" stroke="black" x1="311.459" y2="21.3083" y1="21.3083"/>
 </g>
 <g partID="65800">
  <line stroke-linecap="round" stroke-width="9.216" x2="268.238" stroke="black" x1="300.833" y2="50.2654" y1="50.2654"/>
 </g>
 <g partID="66250">
  <line stroke-linecap="round" stroke-width="9.216" x2="267.621" stroke="black" x1="268.238" y2="50.8814" y1="50.2654"/>
 </g>
 <g partID="65830">
  <line stroke-linecap="round" stroke-width="9.216" x2="268.238" stroke="black" x1="264.784" y2="50.2654" y1="50.2654"/>
 </g>
 <g partID="68080">
  <line stroke-linecap="round" stroke-width="9.216" x2="146.034" stroke="black" x1="138.595" y2="50.2654" y1="43.0926"/>
 </g>
 <g partID="68020">
  <line stroke-linecap="round" stroke-width="9.216" x2="149.487" stroke="black" x1="146.034" y2="50.2654" y1="50.2654"/>
 </g>
 <g partID="66380">
  <line stroke-linecap="round" stroke-width="9.216" x2="148.76" stroke="black" x1="149.487" y2="49.5599" y1="50.2654"/>
 </g>
 <g partID="65860">
  <line stroke-linecap="round" stroke-width="9.216" x2="138.595" stroke="black" x1="138.595" y2="43.0926" y1="21.3083"/>
 </g>
 <g partID="66580">
  <line stroke-linecap="round" stroke-width="9.216" x2="35.0171" stroke="black" x1="34.3208" y2="49.4934" y1="50.1897"/>
 </g>
 <g partID="65920">
  <line stroke-linecap="round" stroke-width="9.216" x2="34.3208" stroke="black" x1="38.0287" y2="50.1897" y1="50.2654"/>
 </g>
 <g partID="66450">
  <line stroke-linecap="round" stroke-width="9.216" x2="85.3352" stroke="black" x1="84.6658" y2="20.6131" y1="21.3083"/>
 </g>
 <g partID="66300">
  <line stroke-linecap="round" stroke-width="9.216" x2="267.531" stroke="black" x1="268.238" y2="49.5894" y1="50.2654"/>
 </g>
 <g partID="66420">
  <line stroke-linecap="round" stroke-width="9.216" x2="148.85" stroke="black" x1="149.487" y2="50.9103" y1="50.2654"/>
 </g>
 <g partID="66470">
  <line stroke-linecap="round" stroke-width="9.216" x2="85.4331" stroke="black" x1="84.6658" y2="22.0699" y1="21.3083"/>
 </g>
 <g partID="66600">
  <line stroke-linecap="round" stroke-width="9.216" x2="35.0169" stroke="black" x1="34.3208" y2="50.8858" y1="50.1897"/>
 </g>
 <g partID="66700">
  <line stroke-linecap="round" stroke-width="9.216" x2="317.925" stroke="black" x1="318.632" y2="21.9831" y1="21.3083"/>
 </g>
 <g partID="69560">
  <line stroke-linecap="round" stroke-width="9.216" x2="155.197" stroke="black" x1="172.645" y2="46.5897" y1="46.5897"/>
 </g>
 <g partID="69590">
  <line stroke-linecap="round" stroke-width="9.216" x2="155.197" stroke="black" x1="172.645" y2="53.7897" y1="53.7897"/>
 </g>
</svg>
