<?xml version='1.0' encoding='UTF-8' standalone='no'?>
<!-- Created with Fritzing (http://www.fritzing.org/) -->
<svg xmlns="http://www.w3.org/2000/svg" viewBox="0 0 354.331 70.8661" y="0in" xmlns:svg="http://www.w3.org/2000/svg" version="1.2" baseProfile="tiny" width="4.92126in" x="0in" height="0.984252in" >
 <g transform="matrix(-1, 0, 0, 1, 354.331, 0)">
  <g partID="57710">
   <g id="board" >
    <rect fill="none" stroke-width="0.5" y="0.288" stroke="black" id="boardoutline" fill-opacity="0.5" width="353.755" height="70.2901" x="0.288" />
   </g>
  </g>
  <g partID="69630">
   <g transform="translate(2.88,2.88)">
    <g id="groundplane1" >
     <polygon fill="black" stroke-width="0" stroke="none" points="0,0,0,4.32,342.864,4.32,342.864,61.488,348.48,61.488,348.48,0" />
     <polygon fill="black" stroke-width="0" stroke="none" points="0,4.32,0,61.488,4.464,61.488,4.464,4.32" />
     <polygon fill="black" stroke-width="0" stroke="none" points="29.664,4.32,29.664,40.032,29.952,40.032,29.952,40.176,30.096,40.176,30.096,40.32,30.24,40.32,30.24,40.464,30.528,40.464,30.528,40.608,30.672,40.608,30.672,40.752,30.816,40.752,30.816,40.896,30.96,40.896,30.96,41.04,31.104,41.04,31.104,41.328,31.248,41.328,31.248,41.472,31.392,41.472,31.392,41.76,31.536,41.76,31.536,41.904,31.68,41.904,31.68,42.336,31.824,42.336,31.824,42.912,31.968,42.912,31.968,44.496,31.824,44.496,31.824,45.072,31.68,45.072,31.68,45.504,31.536,45.504,31.536,45.792,31.392,45.792,31.392,45.936,31.248,45.936,31.248,46.224,31.104,46.224,31.104,46.368,30.96,46.368,30.96,46.512,30.816,46.512,30.816,48.096,30.96,48.096,30.96,48.24,31.104,48.24,31.104,48.528,31.248,48.528,31.248,48.672,31.392,48.672,31.392,48.96,31.536,48.96,31.536,49.104,31.68,49.104,31.68,49.536,31.824,49.536,31.824,50.112,31.968,50.112,31.968,51.696,31.824,51.696,31.824,52.272,31.68,52.272,31.68,52.704,31.536,52.704,31.536,52.992,31.392,52.992,31.392,53.136,31.248,53.136,31.248,53.424,31.104,53.424,31.104,53.568,30.96,53.568,30.96,53.712,30.816,53.712,30.816,53.856,30.672,53.856,30.672,54,30.528,54,30.528,54.144,30.384,54.144,30.384,54.288,30.096,54.288,30.096,54.432,29.952,54.432,29.952,54.576,29.664,54.576,29.664,61.488,54.864,61.488,54.864,4.32" />
     <polygon fill="black" stroke-width="0" stroke="none" points="80.064,4.32,80.064,11.232,80.352,11.232,80.352,11.376,80.496,11.376,80.496,11.52,80.64,11.52,80.64,11.664,80.928,11.664,80.928,11.808,81.072,11.808,81.072,11.952,81.216,11.952,81.216,12.096,81.36,12.096,81.36,12.24,81.504,12.24,81.504,12.528,81.648,12.528,81.648,12.672,81.792,12.672,81.792,12.96,81.936,12.96,81.936,13.104,82.08,13.104,82.08,13.536,82.224,13.536,82.224,14.112,82.368,14.112,82.368,15.696,82.224,15.696,82.224,16.272,82.08,16.272,82.08,16.704,81.936,16.704,81.936,16.992,81.792,16.992,81.792,17.136,81.648,17.136,81.648,17.424,81.504,17.424,81.504,17.568,81.36,17.568,81.36,17.712,81.216,17.712,81.216,19.296,81.36,19.296,81.36,19.44,81.504,19.44,81.504,19.728,81.648,19.728,81.648,19.872,81.792,19.872,81.792,20.16,81.936,20.16,81.936,20.304,82.08,20.304,82.08,20.736,82.224,20.736,82.224,21.312,82.368,21.312,82.368,22.896,82.224,22.896,82.224,23.472,82.08,23.472,82.08,23.904,81.936,23.904,81.936,24.192,81.792,24.192,81.792,24.336,81.648,24.336,81.648,24.624,81.504,24.624,81.504,24.768,81.36,24.768,81.36,24.912,81.216,24.912,81.216,25.056,81.072,25.056,81.072,25.2,80.928,25.2,80.928,25.344,80.784,25.344,80.784,25.488,80.496,25.488,80.496,25.632,80.352,25.632,80.352,25.776,80.064,25.776,80.064,33.12,213.264,33.12,213.264,61.488,267.264,61.488,267.264,54.576,266.976,54.576,266.976,54.432,266.688,54.432,266.688,54.288,266.544,54.288,266.544,54.144,266.4,54.144,266.4,54,266.256,54,266.256,53.856,266.112,53.856,266.112,53.712,265.968,53.712,265.968,53.568,265.824,53.568,265.824,53.424,265.68,53.424,265.68,53.28,265.536,53.28,265.536,52.992,265.392,52.992,265.392,52.704,265.248,52.704,265.248,52.416,265.104,52.416,265.104,51.984,264.96,51.984,264.96,50.976,264.816,50.976,264.816,50.832,264.96,50.832,264.96,49.824,265.104,49.824,265.104,49.392,265.248,49.392,265.248,49.104,265.392,49.104,265.392,48.816,265.536,48.816,265.536,48.528,265.68,48.528,265.68,48.384,265.824,48.384,265.824,48.24,265.968,48.24,265.968,48.096,266.112,48.096,266.112,46.512,265.968,46.512,265.968,46.368,265.824,46.368,265.824,46.224,265.68,46.224,265.68,46.08,265.536,46.08,265.536,45.792,265.392,45.792,265.392,45.504,265.248,45.504,265.248,45.216,265.104,45.216,265.104,44.784,264.96,44.784,264.96,43.776,264.816,43.776,264.816,43.632,264.96,43.632,264.96,42.624,265.104,42.624,265.104,42.192,265.248,42.192,265.248,41.904,265.392,41.904,265.392,41.616,265.536,41.616,265.536,41.328,265.68,41.328,265.68,41.184,265.824,41.184,265.824,41.04,265.968,41.04,265.968,40.896,266.112,40.896,266.112,40.752,266.256,40.752,266.256,40.608,266.4,40.608,266.4,40.464,266.544,40.464,266.544,40.32,266.832,40.32,266.832,40.176,266.976,40.176,266.976,40.032,267.264,40.032,267.264,4.32" />
     <polygon fill="black" stroke-width="0" stroke="none" points="292.464,4.32,292.464,61.488,317.664,61.488,317.664,25.776,317.376,25.776,317.376,25.632,317.088,25.632,317.088,25.488,316.944,25.488,316.944,25.344,316.8,25.344,316.8,25.2,316.656,25.2,316.656,25.056,316.512,25.056,316.512,24.912,316.368,24.912,316.368,24.768,316.224,24.768,316.224,24.624,316.08,24.624,316.08,24.48,315.936,24.48,315.936,24.192,315.792,24.192,315.792,23.904,315.648,23.904,315.648,23.616,315.504,23.616,315.504,23.184,315.36,23.184,315.36,22.176,315.216,22.176,315.216,22.032,315.36,22.032,315.36,21.024,315.504,21.024,315.504,20.592,315.648,20.592,315.648,20.304,315.792,20.304,315.792,20.016,315.936,20.016,315.936,19.728,316.08,19.728,316.08,19.584,316.224,19.584,316.224,19.44,316.368,19.44,316.368,19.296,316.512,19.296,316.512,17.712,316.368,17.712,316.368,17.568,316.224,17.568,316.224,17.424,316.08,17.424,316.08,17.28,315.936,17.28,315.936,16.992,315.792,16.992,315.792,16.704,315.648,16.704,315.648,16.416,315.504,16.416,315.504,15.984,315.36,15.984,315.36,14.976,315.216,14.976,315.216,14.832,315.36,14.832,315.36,13.824,315.504,13.824,315.504,13.392,315.648,13.392,315.648,13.104,315.792,13.104,315.792,12.816,315.936,12.816,315.936,12.528,316.08,12.528,316.08,12.384,316.224,12.384,316.224,12.24,316.368,12.24,316.368,12.096,316.512,12.096,316.512,11.952,316.656,11.952,316.656,11.808,316.8,11.808,316.8,11.664,316.944,11.664,316.944,11.52,317.232,11.52,317.232,11.376,317.376,11.376,317.376,11.232,317.664,11.232,317.664,4.32" />
     <polygon fill="black" stroke-width="0" stroke="none" points="80.064,33.12,80.064,61.488,148.464,61.488,148.464,54.576,148.176,54.576,148.176,54.432,147.888,54.432,147.888,54.288,147.744,54.288,147.744,54.144,147.6,54.144,147.6,54,147.456,54,147.456,53.856,147.312,53.856,147.312,53.712,147.168,53.712,147.168,53.568,147.024,53.568,147.024,53.424,146.88,53.424,146.88,53.28,146.736,53.28,146.736,52.992,146.592,52.992,146.592,52.704,146.448,52.704,146.448,52.416,146.304,52.416,146.304,51.984,146.16,51.984,146.16,50.976,146.016,50.976,146.016,50.832,146.16,50.832,146.16,49.824,146.304,49.824,146.304,49.392,146.448,49.392,146.448,49.104,146.592,49.104,146.592,48.816,146.736,48.816,146.736,48.528,146.88,48.528,146.88,48.384,147.024,48.384,147.024,48.24,147.168,48.24,147.168,48.096,147.312,48.096,147.312,46.512,147.168,46.512,147.168,46.368,147.024,46.368,147.024,46.224,146.88,46.224,146.88,46.08,146.736,46.08,146.736,45.792,146.592,45.792,146.592,45.504,146.448,45.504,146.448,45.216,146.304,45.216,146.304,44.784,146.16,44.784,146.16,43.776,146.016,43.776,146.016,43.632,146.16,43.632,146.16,42.624,146.304,42.624,146.304,42.192,146.448,42.192,146.448,41.904,146.592,41.904,146.592,41.616,146.736,41.616,146.736,41.328,146.88,41.328,146.88,41.184,147.024,41.184,147.024,41.04,147.168,41.04,147.168,40.896,147.312,40.896,147.312,40.752,147.456,40.752,147.456,40.608,147.6,40.608,147.6,40.464,147.744,40.464,147.744,40.32,148.032,40.32,148.032,40.176,148.176,40.176,148.176,40.032,148.464,40.032,148.464,33.12" />
     <polygon fill="black" stroke-width="0" stroke="none" points="173.664,33.12,173.664,40.032,173.952,40.032,173.952,40.176,174.096,40.176,174.096,40.32,174.24,40.32,174.24,40.464,174.528,40.464,174.528,40.608,174.672,40.608,174.672,40.752,174.816,40.752,174.816,40.896,174.96,40.896,174.96,41.04,175.104,41.04,175.104,41.328,175.248,41.328,175.248,41.472,175.392,41.472,175.392,41.76,175.536,41.76,175.536,41.904,175.68,41.904,175.68,42.336,175.824,42.336,175.824,42.912,175.968,42.912,175.968,44.496,175.824,44.496,175.824,45.072,175.68,45.072,175.68,45.504,175.536,45.504,175.536,45.792,175.392,45.792,175.392,45.936,175.248,45.936,175.248,46.224,175.104,46.224,175.104,46.368,174.96,46.368,174.96,46.512,174.816,46.512,174.816,48.096,174.96,48.096,174.96,48.24,175.104,48.24,175.104,48.528,175.248,48.528,175.248,48.672,175.392,48.672,175.392,48.96,175.536,48.96,175.536,49.104,175.68,49.104,175.68,49.536,175.824,49.536,175.824,50.112,175.968,50.112,175.968,51.696,175.824,51.696,175.824,52.272,175.68,52.272,175.68,52.704,175.536,52.704,175.536,52.992,175.392,52.992,175.392,53.136,175.248,53.136,175.248,53.424,175.104,53.424,175.104,53.568,174.96,53.568,174.96,53.712,174.816,53.712,174.816,53.856,174.672,53.856,174.672,54,174.528,54,174.528,54.144,174.384,54.144,174.384,54.288,174.096,54.288,174.096,54.432,173.952,54.432,173.952,54.576,173.664,54.576,173.664,61.488,188.064,61.488,188.064,33.12" />
     <polygon fill="black" stroke-width="0" stroke="none" points="0,61.488,0,61.632,348.48,61.632,348.48,61.488" />
     <polygon fill="black" stroke-width="0" stroke="none" points="0,61.488,0,61.632,348.48,61.632,348.48,61.488" />
     <polygon fill="black" stroke-width="0" stroke="none" points="0,61.488,0,61.632,348.48,61.632,348.48,61.488" />
     <polygon fill="black" stroke-width="0" stroke="none" points="0,61.488,0,61.632,348.48,61.632,348.48,61.488" />
     <polygon fill="black" stroke-width="0" stroke="none" points="0,61.488,0,61.632,348.48,61.632,348.48,61.488" />
     <polygon fill="black" stroke-width="0" stroke="none" points="0,61.488,0,61.632,348.48,61.632,348.48,61.488" />
     <polygon fill="black" stroke-width="0" stroke="none" points="0,61.488,0,61.632,348.48,61.632,348.48,61.488" />
     <polygon fill="black" stroke-width="0" stroke="none" points="0,61.632,0,65.088,348.48,65.088,348.48,61.632" />
     <g id="connector0pad" >
      <circle cy="10.0993" fill="black" stroke-width="0" cx="35.097" stroke="none"  r="2.7"/>
     </g>
    </g>
   </g>
  </g>
  <g partID="69640">
   <g transform="translate(14.04,6.912)">
    <g id="groundplane1" >
     <polygon fill="black" stroke-width="0" stroke="none" points="0,0,11.592,0,11.592,14.256,0,14.256" />
    </g>
   </g>
  </g>
  <g partID="69650">
   <g transform="translate(7.056,14.688)">
    <g id="groundplane1" >
     <polygon fill="black" stroke-width="0" stroke="none" points="0,0,12.672,0,12.672,13.176,0,13.176" />
    </g>
   </g>
  </g>
  <g partID="69660">
   <g transform="translate(64.44,50.112)">
    <g id="groundplane1" >
     <polygon fill="black" stroke-width="0" stroke="none" points="0,0,11.592,0,11.592,14.256,0,14.256" />
    </g>
   </g>
  </g>
  <g partID="69670">
   <g transform="translate(276.696,6.912)">
    <g id="groundplane1" >
     <polygon fill="black" stroke-width="0" stroke="none" points="0,0,11.592,0,11.592,14.256,0,14.256" />
    </g>
   </g>
  </g>
  <g partID="69680">
   <g transform="translate(197.496,50.112)">
    <g id="groundplane1" >
     <polygon fill="black" stroke-width="0" stroke="none" points="0,0,11.592,0,11.592,14.256,0,14.256" />
    </g>
   </g>
  </g>
  <g partID="69690">
   <g transform="translate(203.328,43.488)">
    <g id="groundplane1" >
     <polygon fill="black" stroke-width="0" stroke="none" points="0,0,12.816,0,12.816,13.176,0,13.176" />
    </g>
   </g>
  </g>
  <g partID="69700">
   <g transform="translate(327.096,50.112)">
    <g id="groundplane1" >
     <polygon fill="black" stroke-width="0" stroke="none" points="0,0,11.592,0,11.592,14.256,0,14.256" />
    </g>
   </g>
  </g>
  <g partID="69710">
   <g transform="translate(332.928,43.488)">
    <g id="groundplane1" >
     <polygon fill="black" stroke-width="0" stroke="none" points="0,0,12.816,0,12.816,13.176,0,13.176" />
    </g>
   </g>
  </g>
  <g partID="65571">
   <g transform="translate(26.4056,49.4741)">
    <g id="copper1" >
     <circle fill="none" cy="4.31559" stroke-width="1.44" cx="4.31559" stroke="black" id="connector0pin"  r="1.99559"/>
    </g>
   </g>
  </g>
  <g partID="62491">
   <g transform="translate(26.4056,42.2741)">
    <g id="copper1" >
     <circle fill="none" cy="4.31559" stroke-width="1.44" cx="4.31559" stroke="black" id="connector0pin"  r="1.99559"/>
    </g>
   </g>
  </g>
  <g partID="58070">
   <g transform="translate(57.5208,6.98972)">
    <g id="copper1" >
     <rect fill="black" stroke-width="0" y="1.6" stroke="none" id="connector0pad" fill-opacity="1" width="22.4" x="1.6" height="25.6" />
     <g fill="none" stroke-width="0" y="1.6" stroke="none" id="connector0terminal" width="22.4" x="1.6" height="25.6" />
    </g>
   </g>
  </g>
  <g partID="58300">
   <g transform="translate(320.321,35.7897)">
    <g id="copper1" >
     <rect fill="black" stroke-width="0" y="1.6" stroke="none" id="connector0pad" fill-opacity="1" width="22.4" x="1.6" height="25.6" />
     <g fill="none" stroke-width="0" y="1.6" stroke="none" id="connector0terminal" width="22.4" x="1.6" height="25.6" />
    </g>
   </g>
  </g>
  <g partID="58290">
   <g transform="translate(320.321,6.98972)">
    <g id="copper1" >
     <rect fill="black" stroke-width="0" y="1.6" stroke="none" id="connector0pad" fill-opacity="1" width="22.4" x="1.6" height="25.6" />
     <g fill="none" stroke-width="0" y="1.6" stroke="none" id="connector0terminal" width="22.4" x="1.6" height="25.6" />
    </g>
   </g>
  </g>
  <g partID="65531">
   <g transform="translate(76.8056,20.6741)">
    <g id="copper1" >
     <circle fill="none" cy="4.31559" stroke-width="1.44" cx="4.31559" stroke="black" id="connector0pin"  r="1.99559"/>
    </g>
   </g>
  </g>
  <g partID="62551">
   <g transform="translate(76.8056,13.4741)">
    <g id="copper1" >
     <circle fill="none" cy="4.31559" stroke-width="1.44" cx="4.31559" stroke="black" id="connector0pin"  r="1.99559"/>
    </g>
   </g>
  </g>
  <g partID="65311">
   <g transform="translate(148.806,49.4741)">
    <g id="copper1" >
     <circle fill="none" cy="4.31559" stroke-width="1.44" cx="4.31559" stroke="black" id="connector0pin"  r="1.99559"/>
    </g>
   </g>
  </g>
  <g partID="62611">
   <g transform="translate(148.806,42.2741)">
    <g id="copper1" >
     <circle fill="none" cy="4.31559" stroke-width="1.44" cx="4.31559" stroke="black" id="connector0pin"  r="1.99559"/>
    </g>
   </g>
  </g>
  <g partID="58280">
   <g transform="translate(269.921,35.7897)">
    <g id="copper1" >
     <rect fill="black" stroke-width="0" y="1.6" stroke="none" id="connector0pad" fill-opacity="1" width="22.4" x="1.6" height="25.6" />
     <g fill="none" stroke-width="0" y="1.6" stroke="none" id="connector0terminal" width="22.4" x="1.6" height="25.6" />
    </g>
   </g>
  </g>
  <g partID="65331">
   <g transform="translate(267.606,42.2741)">
    <g id="copper1" >
     <circle fill="none" cy="4.31559" stroke-width="1.44" cx="4.31559" stroke="black" id="connector0pin"  r="1.99559"/>
    </g>
   </g>
  </g>
  <g partID="62661">
   <g transform="translate(267.606,49.4741)">
    <g id="copper1" >
     <circle fill="none" cy="4.31559" stroke-width="1.44" cx="4.31559" stroke="black" id="connector0pin"  r="1.99559"/>
    </g>
   </g>
  </g>
  <g partID="58270">
   <g transform="translate(269.921,6.98972)">
    <g id="copper1" >
     <rect fill="black" stroke-width="0" y="1.6" stroke="none" id="connector0pad" fill-opacity="1" width="22.4" x="1.6" height="25.6" />
     <g fill="none" stroke-width="0" y="1.6" stroke="none" id="connector0terminal" width="22.4" x="1.6" height="25.6" />
    </g>
   </g>
  </g>
  <g partID="58140">
   <g transform="translate(190.721,35.7897)">
    <g id="copper1" >
     <rect fill="black" stroke-width="0" y="1.6" stroke="none" id="connector0pad" fill-opacity="1" width="22.4" x="1.6" height="25.6" />
     <g fill="none" stroke-width="0" y="1.6" stroke="none" id="connector0terminal" width="22.4" x="1.6" height="25.6" />
    </g>
   </g>
  </g>
  <g partID="58120">
   <g transform="translate(151.121,35.7897)">
    <g id="copper1" >
     <rect fill="black" stroke-width="0" y="1.6" stroke="none" id="connector0pad" fill-opacity="1" width="22.4" x="1.6" height="25.6" />
     <g fill="none" stroke-width="0" y="1.6" stroke="none" id="connector0terminal" width="22.4" x="1.6" height="25.6" />
    </g>
   </g>
  </g>
  <g partID="65511">
   <g transform="translate(318.006,20.6741)">
    <g id="copper1" >
     <circle fill="none" cy="4.31559" stroke-width="1.44" cx="4.31559" stroke="black" id="connector0pin"  r="1.99559"/>
    </g>
   </g>
  </g>
  <g partID="62701">
   <g transform="translate(318.006,13.4741)">
    <g id="copper1" >
     <circle fill="none" cy="4.31559" stroke-width="1.44" cx="4.31559" stroke="black" id="connector0pin"  r="1.99559"/>
    </g>
   </g>
  </g>
  <g partID="58060">
   <g transform="translate(57.5208,35.7897)">
    <g id="copper1" >
     <rect fill="black" stroke-width="0" y="1.6" stroke="none" id="connector0pad" fill-opacity="1" width="22.4" x="1.6" height="25.6" />
     <g fill="none" stroke-width="0" y="1.6" stroke="none" id="connector0terminal" width="22.4" x="1.6" height="25.6" />
    </g>
   </g>
  </g>
  <g partID="57880">
   <g transform="translate(7.1208,35.7897)">
    <g id="copper1" >
     <rect fill="black" stroke-width="0" y="1.6" stroke="none" id="connector0pad" fill-opacity="1" width="22.4" x="1.6" height="25.6" />
     <g fill="none" stroke-width="0" y="1.6" stroke="none" id="connector0terminal" width="22.4" x="1.6" height="25.6" />
    </g>
   </g>
  </g>
  <g partID="57750">
   <g transform="translate(7.1208,6.98972)">
    <g id="copper1" >
     <rect fill="black" stroke-width="0" y="1.6" stroke="none" id="connector0pad" fill-opacity="1" width="22.4" x="1.6" height="25.6" />
     <g fill="none" stroke-width="0" y="1.6" stroke="none" id="connector0terminal" width="22.4" x="1.6" height="25.6" />
    </g>
   </g>
  </g>
  <g partID="69311">
   <g transform="translate(170.405,42.2741)">
    <g id="copper1" >
     <circle fill="none" cy="4.31559" stroke-width="1.44" cx="4.31559" stroke="black" id="connector0pin"  r="1.99559"/>
    </g>
   </g>
  </g>
  <g partID="69341">
   <g transform="translate(170.405,49.4741)">
    <g id="copper1" >
     <circle fill="none" cy="4.31559" stroke-width="1.44" cx="4.31559" stroke="black" id="connector0pin"  r="1.99559"/>
    </g>
   </g>
  </g>
  <g partID="61040">
   <line stroke-linecap="round" stroke-width="9.216" x2="81.1208" stroke="black" x1="131.422" y2="50.2031" y1="50.2654"/>
  </g>
  <g partID="62740">
   <line stroke-linecap="round" stroke-width="9.216" x2="138.595" stroke="black" x1="146.034" y2="28.4812" y1="21.3083"/>
  </g>
  <g partID="58570">
   <line stroke-linecap="round" stroke-width="9.216" x2="146.034" stroke="black" x1="185.617" y2="21.3083" y1="21.3083"/>
  </g>
  <g partID="58510">
   <line stroke-linecap="round" stroke-width="9.216" x2="185.617" stroke="black" x1="192.721" y2="50.2654" y1="50.2354"/>
  </g>
  <g partID="68880">
   <line stroke-linecap="round" stroke-width="9.216" x2="185.617" stroke="black" x1="185.617" y2="21.3083" y1="50.2654"/>
  </g>
  <g partID="62820">
   <line stroke-linecap="round" stroke-width="9.216" x2="271.921" stroke="black" x1="185.617" y2="21.3807" y1="21.3083"/>
  </g>
  <g partID="63380">
   <line stroke-linecap="round" stroke-width="9.216" x2="308.006" stroke="black" x1="315.179" y2="43.0926" y1="50.2654"/>
  </g>
  <g partID="63170">
   <line stroke-linecap="round" stroke-width="9.216" x2="315.179" stroke="black" x1="322.321" y2="50.2654" y1="50.2353"/>
  </g>
  <g partID="63350">
   <line stroke-linecap="round" stroke-width="9.216" x2="293.521" stroke="black" x1="300.833" y2="21.3412" y1="21.3083"/>
  </g>
  <g partID="63470">
   <line stroke-linecap="round" stroke-width="9.216" x2="59.5208" stroke="black" x1="52.3744" y2="50.2353" y1="50.2654"/>
  </g>
  <g partID="63200">
   <line stroke-linecap="round" stroke-width="9.216" x2="38.0287" stroke="black" x1="30.7208" y2="21.3083" y1="21.3412"/>
  </g>
  <g partID="63440">
   <line stroke-linecap="round" stroke-width="9.216" x2="45.2015" stroke="black" x1="38.0287" y2="28.4812" y1="21.3083"/>
  </g>
  <g partID="64160">
   <line stroke-linecap="round" stroke-width="9.216" x2="131.422" stroke="black" x1="138.595" y2="50.2654" y1="43.0926"/>
  </g>
  <g partID="64130">
   <line stroke-linecap="round" stroke-width="9.216" x2="138.595" stroke="black" x1="138.595" y2="43.0926" y1="28.4812"/>
  </g>
  <g partID="64100">
   <line stroke-linecap="round" stroke-width="9.216" x2="45.2015" stroke="black" x1="45.2015" y2="43.0926" y1="28.4812"/>
  </g>
  <g partID="64070">
   <line stroke-linecap="round" stroke-width="9.216" x2="52.3744" stroke="black" x1="45.2015" y2="50.2654" y1="43.0926"/>
  </g>
  <g partID="64220">
   <line stroke-linecap="round" stroke-width="9.216" x2="308.006" stroke="black" x1="308.006" y2="28.4812" y1="43.0926"/>
  </g>
  <g partID="64190">
   <line stroke-linecap="round" stroke-width="9.216" x2="300.833" stroke="black" x1="308.006" y2="21.3083" y1="28.4812"/>
  </g>
  <g partID="67090">
   <line stroke-linecap="round" stroke-width="1.728" x2="273.388" stroke="black" x1="275.521" y2="48.0574" y1="50.1897"/>
  </g>
  <g partID="66890">
   <line stroke-linecap="round" stroke-width="1.728" x2="275.521" stroke="black" x1="273.388" y2="50.1897" y1="52.3221"/>
  </g>
  <g partID="67310">
   <line stroke-linecap="round" stroke-width="1.728" x2="163.921" stroke="black" x1="156.721" y2="50.1897" y1="50.1897"/>
  </g>
  <g partID="67290">
   <line stroke-linecap="round" stroke-width="1.728" x2="154.588" stroke="black" x1="156.721" y2="48.0574" y1="50.1897"/>
  </g>
  <g partID="67260">
   <line stroke-linecap="round" stroke-width="1.728" x2="156.721" stroke="black" x1="154.588" y2="50.1897" y1="52.3221"/>
  </g>
  <g partID="67230">
   <line stroke-linecap="round" stroke-width="1.728" x2="333.121" stroke="black" x1="326.001" y2="21.3897" y1="21.3897"/>
  </g>
  <g partID="67200">
   <line stroke-linecap="round" stroke-width="1.728" x2="323.805" stroke="black" x1="326.001" y2="19.2412" y1="21.3897"/>
  </g>
  <g partID="67170">
   <line stroke-linecap="round" stroke-width="1.728" x2="326.001" stroke="black" x1="323.805" y2="21.3897" y1="23.5383"/>
  </g>
  <g partID="67140">
   <line stroke-linecap="round" stroke-width="1.728" x2="282.721" stroke="black" x1="275.521" y2="50.1897" y1="50.1897"/>
  </g>
  <g partID="67670">
   <line stroke-linecap="round" stroke-width="1.728" x2="19.9208" stroke="black" x1="27.1208" y2="50.1897" y1="50.1897"/>
  </g>
  <g partID="67640">
   <line stroke-linecap="round" stroke-width="1.728" x2="29.2535" stroke="black" x1="27.1208" y2="48.0573" y1="50.1897"/>
  </g>
  <g partID="67610">
   <line stroke-linecap="round" stroke-width="1.728" x2="27.1208" stroke="black" x1="29.2531" y2="50.1897" y1="52.3221"/>
  </g>
  <g partID="67580">
   <line stroke-linecap="round" stroke-width="1.728" x2="70.3208" stroke="black" x1="77.6008" y2="21.3897" y1="21.3897"/>
  </g>
  <g partID="67560">
   <line stroke-linecap="round" stroke-width="1.728" x2="79.6697" stroke="black" x1="77.6008" y2="19.2738" y1="21.3897"/>
  </g>
  <g partID="67530">
   <line stroke-linecap="round" stroke-width="1.728" x2="77.6008" stroke="black" x1="79.6697" y2="21.3897" y1="23.5057"/>
  </g>
  <g partID="69390">
   <line stroke-linecap="round" stroke-width="1.728" x2="173.245" stroke="black" x1="171.006" y2="48.0496" y1="50.2654"/>
  </g>
  <g partID="69360">
   <line stroke-linecap="round" stroke-width="1.728" x2="171.006" stroke="black" x1="163.921" y2="50.2654" y1="50.1897"/>
  </g>
  <g partID="69480">
   <line stroke-linecap="round" stroke-width="1.728" x2="171.006" stroke="black" x1="163.921" y2="50.2654" y1="50.1897"/>
  </g>
  <g partID="69510">
   <line stroke-linecap="round" stroke-width="1.728" x2="173.215" stroke="black" x1="171.006" y2="52.3612" y1="50.2654"/>
  </g>
 </g>
</svg>
